<mxfile host="65bd71144e">
    <diagram id="HHa2Qv0wDfQtKXYiqdUY" name="DevSecOps Maturity">
        <mxGraphModel dx="602" dy="335" grid="1" gridSize="10" guides="1" tooltips="1" connect="1" arrows="1" fold="1" page="1" pageScale="1" pageWidth="1100" pageHeight="850" math="0" shadow="0">
            <root>
                <mxCell id="0"/>
                <mxCell id="1" parent="0"/>
                <mxCell id="LytyyFFLT9Lsc8S2HGza-1" value="DevSecOps Maturity Analysys" style="shape=table;childLayout=tableLayout;startSize=40;collapsible=0;recursiveResize=0;expand=0;fontStyle=1;strokeColor=#0066CC;fontFamily=Comic Sans MS;fontSize=9;fillColor=#FFFFCC;" parent="1" vertex="1">
                    <mxGeometry x="141" y="140" width="730" height="630" as="geometry"/>
                </mxCell>
                <mxCell id="LytyyFFLT9Lsc8S2HGza-2" value="" style="shape=tableRow;horizontal=0;startSize=110;swimlaneHead=0;swimlaneBody=0;top=0;left=0;bottom=0;right=0;dropTarget=0;fillColor=none;collapsible=0;recursiveResize=0;expand=0;fontStyle=1;strokeColor=#0066CC;fontFamily=Comic Sans MS;fontSize=9;" parent="LytyyFFLT9Lsc8S2HGza-1" vertex="1">
                    <mxGeometry y="40" width="730" height="120" as="geometry"/>
                </mxCell>
                <mxCell id="LytyyFFLT9Lsc8S2HGza-3" value="Basic" style="swimlane;swimlaneHead=0;swimlaneBody=0;fontStyle=0;connectable=0;fillColor=#FF3333;startSize=40;collapsible=0;recursiveResize=0;expand=0;fontStyle=1;strokeColor=#0066CC;fontFamily=Comic Sans MS;fontSize=9;" parent="LytyyFFLT9Lsc8S2HGza-2" vertex="1">
                    <mxGeometry x="110" width="160" height="120" as="geometry">
                        <mxRectangle width="160" height="120" as="alternateBounds"/>
                    </mxGeometry>
                </mxCell>
                <mxCell id="LytyyFFLT9Lsc8S2HGza-4" value="Intermediate" style="swimlane;swimlaneHead=0;swimlaneBody=0;fontStyle=0;connectable=0;fillColor=#FFCCE6;startSize=40;collapsible=0;recursiveResize=0;expand=0;fontStyle=1;strokeColor=#0066CC;fontFamily=Comic Sans MS;fontSize=9;" parent="LytyyFFLT9Lsc8S2HGza-2" vertex="1">
                    <mxGeometry x="270" width="160" height="120" as="geometry">
                        <mxRectangle width="160" height="120" as="alternateBounds"/>
                    </mxGeometry>
                </mxCell>
                <mxCell id="LytyyFFLT9Lsc8S2HGza-47" value="&lt;font style=&quot;font-size: 12px;&quot;&gt;Shared responsibility &lt;br&gt;No Boundaries(Dev&amp;amp;Ops)&lt;br&gt;Agile processes&lt;br&gt;Monthly Release&lt;br&gt;Action on metrics.&lt;/font&gt;" style="text;html=1;align=center;verticalAlign=middle;resizable=0;points=[];autosize=1;strokeColor=none;fillColor=none;fontSize=9;fontFamily=Comic Sans MS;" parent="LytyyFFLT9Lsc8S2HGza-4" vertex="1">
                    <mxGeometry x="-5" y="30" width="160" height="90" as="geometry"/>
                </mxCell>
                <mxCell id="MO1thTo8uA5cUM_53QHz-1" value="&lt;font style=&quot;font-size: 8px;&quot; face=&quot;Comic Sans MS&quot;&gt;Current&lt;/font&gt;" style="ellipse;whiteSpace=wrap;html=1;strokeColor=#0066CC;fontFamily=Times New Roman;fontSize=9;fillColor=#E6E6E6;" parent="LytyyFFLT9Lsc8S2HGza-4" vertex="1">
                    <mxGeometry x="125" y="92.5" width="30" height="30" as="geometry"/>
                </mxCell>
                <mxCell id="LytyyFFLT9Lsc8S2HGza-5" value="Standard" style="swimlane;swimlaneHead=0;swimlaneBody=0;fontStyle=0;connectable=0;fillColor=#FFFF66;startSize=40;collapsible=0;recursiveResize=0;expand=0;fontStyle=1;strokeColor=#0066CC;fontFamily=Comic Sans MS;fontSize=9;" parent="LytyyFFLT9Lsc8S2HGza-2" vertex="1">
                    <mxGeometry x="430" width="160" height="120" as="geometry">
                        <mxRectangle width="160" height="120" as="alternateBounds"/>
                    </mxGeometry>
                </mxCell>
                <mxCell id="LytyyFFLT9Lsc8S2HGza-48" value="&lt;font style=&quot;font-size: 12px;&quot;&gt;Teams Onus&lt;br&gt;Tooling Team&lt;br style=&quot;border-color: var(--border-color);&quot;&gt;Decentralized decision&lt;br style=&quot;border-color: var(--border-color);&quot;&gt;Component ownership.&lt;br&gt;Continous Improvement&lt;/font&gt;" style="text;html=1;align=center;verticalAlign=middle;resizable=0;points=[];autosize=1;strokeColor=none;fillColor=none;fontSize=9;fontFamily=Comic Sans MS;" parent="LytyyFFLT9Lsc8S2HGza-5" vertex="1">
                    <mxGeometry x="-10" y="29" width="160" height="90" as="geometry"/>
                </mxCell>
                <mxCell id="LytyyFFLT9Lsc8S2HGza-6" value="Advanced" style="swimlane;swimlaneHead=0;swimlaneBody=0;fontStyle=0;connectable=0;fillColor=#B3FF66;startSize=40;collapsible=0;recursiveResize=0;expand=0;fontStyle=1;strokeColor=#0066CC;fontFamily=Comic Sans MS;fontSize=9;" parent="LytyyFFLT9Lsc8S2HGza-2" vertex="1">
                    <mxGeometry x="590" width="140" height="120" as="geometry">
                        <mxRectangle width="140" height="120" as="alternateBounds"/>
                    </mxGeometry>
                </mxCell>
                <mxCell id="LytyyFFLT9Lsc8S2HGza-49" value="&lt;font style=&quot;font-size: 12px;&quot;&gt;Speedy Feedback&lt;br style=&quot;border-color: var(--border-color);&quot;&gt;AI First&lt;br&gt;RAD&lt;br style=&quot;border-color: var(--border-color);&quot;&gt;Superfast Learning&amp;nbsp;&lt;/font&gt;" style="text;html=1;align=center;verticalAlign=middle;resizable=0;points=[];autosize=1;strokeColor=none;fillColor=none;fontSize=9;fontFamily=Comic Sans MS;" parent="LytyyFFLT9Lsc8S2HGza-6" vertex="1">
                    <mxGeometry y="40" width="140" height="70" as="geometry"/>
                </mxCell>
                <mxCell id="LytyyFFLT9Lsc8S2HGza-8" value="" style="shape=tableRow;horizontal=0;startSize=110;swimlaneHead=0;swimlaneBody=0;top=0;left=0;bottom=0;right=0;dropTarget=0;fillColor=none;collapsible=0;recursiveResize=0;expand=0;fontStyle=1;strokeColor=#0066CC;fontFamily=Comic Sans MS;fontSize=9;" parent="LytyyFFLT9Lsc8S2HGza-1" vertex="1">
                    <mxGeometry y="160" width="730" height="120" as="geometry"/>
                </mxCell>
                <mxCell id="LytyyFFLT9Lsc8S2HGza-9" value="" style="swimlane;swimlaneHead=0;swimlaneBody=0;fontStyle=0;connectable=0;fillColor=#FF3333;startSize=0;collapsible=0;recursiveResize=0;expand=0;fontStyle=1;strokeColor=#0066CC;fontFamily=Comic Sans MS;fontSize=9;" parent="LytyyFFLT9Lsc8S2HGza-8" vertex="1">
                    <mxGeometry x="110" width="160" height="120" as="geometry">
                        <mxRectangle width="160" height="120" as="alternateBounds"/>
                    </mxGeometry>
                </mxCell>
                <mxCell id="LytyyFFLT9Lsc8S2HGza-50" value="&lt;font style=&quot;font-size: 12px;&quot;&gt;Monolith product&lt;br&gt;Basic Modules&lt;br&gt;Component Library&amp;nbsp;&lt;br&gt;API Management&lt;br&gt;Basic automation&lt;/font&gt;" style="text;html=1;align=center;verticalAlign=middle;resizable=0;points=[];autosize=1;strokeColor=none;fillColor=none;fontSize=9;fontFamily=Comic Sans MS;" parent="LytyyFFLT9Lsc8S2HGza-9" vertex="1">
                    <mxGeometry x="5" y="15" width="130" height="90" as="geometry"/>
                </mxCell>
                <mxCell id="rJoUMcJ71U402FxEsKE9-8" value="&lt;font style=&quot;font-size: 8px;&quot; face=&quot;Comic Sans MS&quot;&gt;Current&lt;/font&gt;" style="ellipse;whiteSpace=wrap;html=1;strokeColor=#0066CC;fontFamily=Times New Roman;fontSize=9;fillColor=#E6E6E6;" parent="LytyyFFLT9Lsc8S2HGza-9" vertex="1">
                    <mxGeometry x="130" y="90" width="30" height="30" as="geometry"/>
                </mxCell>
                <mxCell id="LytyyFFLT9Lsc8S2HGza-10" value="" style="swimlane;swimlaneHead=0;swimlaneBody=0;fontStyle=0;connectable=0;fillColor=none;startSize=0;collapsible=0;recursiveResize=0;expand=0;fontStyle=1;strokeColor=#0066CC;fontFamily=Comic Sans MS;fontSize=9;" parent="LytyyFFLT9Lsc8S2HGza-8" vertex="1">
                    <mxGeometry x="270" width="160" height="120" as="geometry">
                        <mxRectangle width="160" height="120" as="alternateBounds"/>
                    </mxGeometry>
                </mxCell>
                <mxCell id="LytyyFFLT9Lsc8S2HGza-51" value="&lt;font style=&quot;font-size: 12px;&quot;&gt;Component Engineering&lt;br&gt;Config As Code&lt;br&gt;Even driven&lt;br&gt;Service Mesh&lt;br&gt;Automated Test Release&lt;br&gt;&lt;/font&gt;" style="text;html=1;align=center;verticalAlign=middle;resizable=0;points=[];autosize=1;strokeColor=none;fillColor=none;fontSize=9;fontFamily=Comic Sans MS;" parent="LytyyFFLT9Lsc8S2HGza-10" vertex="1">
                    <mxGeometry x="-5" y="20" width="160" height="90" as="geometry"/>
                </mxCell>
                <mxCell id="LytyyFFLT9Lsc8S2HGza-11" value="" style="swimlane;swimlaneHead=0;swimlaneBody=0;fontStyle=0;connectable=0;fillColor=none;startSize=0;collapsible=0;recursiveResize=0;expand=0;fontStyle=1;strokeColor=#0066CC;fontFamily=Comic Sans MS;fontSize=9;" parent="LytyyFFLT9Lsc8S2HGza-8" vertex="1">
                    <mxGeometry x="430" width="160" height="120" as="geometry">
                        <mxRectangle width="160" height="120" as="alternateBounds"/>
                    </mxGeometry>
                </mxCell>
                <mxCell id="LytyyFFLT9Lsc8S2HGza-52" value="&lt;font style=&quot;font-size: 12px;&quot;&gt;Distributed architecture&lt;br&gt;Cloud First/ SAAS&lt;br&gt;Full Automation&amp;nbsp;&lt;/font&gt;" style="text;html=1;align=center;verticalAlign=middle;resizable=0;points=[];autosize=1;strokeColor=none;fillColor=none;fontSize=9;fontFamily=Comic Sans MS;" parent="LytyyFFLT9Lsc8S2HGza-11" vertex="1">
                    <mxGeometry x="-10" y="35" width="160" height="60" as="geometry"/>
                </mxCell>
                <mxCell id="LytyyFFLT9Lsc8S2HGza-12" style="swimlane;swimlaneHead=0;swimlaneBody=0;fontStyle=0;connectable=0;fillColor=none;startSize=0;collapsible=0;recursiveResize=0;expand=0;fontStyle=1;strokeColor=#0066CC;fontFamily=Comic Sans MS;fontSize=9;" parent="LytyyFFLT9Lsc8S2HGza-8" vertex="1">
                    <mxGeometry x="590" width="140" height="120" as="geometry">
                        <mxRectangle width="140" height="120" as="alternateBounds"/>
                    </mxGeometry>
                </mxCell>
                <mxCell id="LytyyFFLT9Lsc8S2HGza-53" value="&lt;font style=&quot;font-size: 12px;&quot;&gt;Hybrid Infra &amp;amp;&amp;amp; App&lt;br&gt;Agentic AI workflows&lt;br&gt;AIOps/ML Ops&lt;/font&gt;" style="text;html=1;align=center;verticalAlign=middle;resizable=0;points=[];autosize=1;strokeColor=none;fillColor=none;fontSize=9;fontFamily=Comic Sans MS;" parent="LytyyFFLT9Lsc8S2HGza-12" vertex="1">
                    <mxGeometry y="35" width="150" height="60" as="geometry"/>
                </mxCell>
                <mxCell id="MO1thTo8uA5cUM_53QHz-2" value="" style="ellipse;whiteSpace=wrap;html=1;aspect=fixed;strokeColor=#0066CC;fontFamily=Times New Roman;fontSize=9;fillColor=#B3FF66;" parent="LytyyFFLT9Lsc8S2HGza-12" vertex="1">
                    <mxGeometry x="45" y="-20" width="15" height="15" as="geometry"/>
                </mxCell>
                <mxCell id="rJoUMcJ71U402FxEsKE9-9" value="" style="ellipse;whiteSpace=wrap;html=1;aspect=fixed;strokeColor=#0066CC;fontFamily=Times New Roman;fontSize=9;fillColor=#B3FF66;" parent="LytyyFFLT9Lsc8S2HGza-12" vertex="1">
                    <mxGeometry x="30" y="95" width="15" height="15" as="geometry"/>
                </mxCell>
                <mxCell id="rJoUMcJ71U402FxEsKE9-10" style="edgeStyle=none;html=1;entryX=0;entryY=0.5;entryDx=0;entryDy=0;fontFamily=Times New Roman;fontSize=9;" parent="LytyyFFLT9Lsc8S2HGza-8" source="rJoUMcJ71U402FxEsKE9-8" target="rJoUMcJ71U402FxEsKE9-9" edge="1">
                    <mxGeometry relative="1" as="geometry"/>
                </mxCell>
                <mxCell id="LytyyFFLT9Lsc8S2HGza-14" value="" style="shape=tableRow;horizontal=0;startSize=110;swimlaneHead=0;swimlaneBody=0;top=0;left=0;bottom=0;right=0;dropTarget=0;fillColor=none;collapsible=0;recursiveResize=0;expand=0;fontStyle=1;strokeColor=#0066CC;fontFamily=Comic Sans MS;fontSize=9;" parent="LytyyFFLT9Lsc8S2HGza-1" vertex="1">
                    <mxGeometry y="280" width="730" height="120" as="geometry"/>
                </mxCell>
                <mxCell id="LytyyFFLT9Lsc8S2HGza-15" value="" style="swimlane;swimlaneHead=0;swimlaneBody=0;fontStyle=0;connectable=0;fillColor=#FF3333;startSize=0;collapsible=0;recursiveResize=0;expand=0;fontStyle=1;strokeColor=#0066CC;fontFamily=Comic Sans MS;fontSize=9;" parent="LytyyFFLT9Lsc8S2HGza-14" vertex="1">
                    <mxGeometry x="110" width="160" height="120" as="geometry">
                        <mxRectangle width="160" height="120" as="alternateBounds"/>
                    </mxGeometry>
                </mxCell>
                <mxCell id="LytyyFFLT9Lsc8S2HGza-56" value="&lt;font style=&quot;font-size: 12px;&quot;&gt;Scripted builds&lt;br&gt;Multiplatform Packages&lt;br&gt;Manual staging&lt;br&gt;Basic Test Automation.&lt;/font&gt;" style="text;html=1;align=center;verticalAlign=middle;resizable=0;points=[];autosize=1;strokeColor=none;fillColor=none;fontSize=9;fontFamily=Comic Sans MS;" parent="LytyyFFLT9Lsc8S2HGza-15" vertex="1">
                    <mxGeometry y="20" width="160" height="70" as="geometry"/>
                </mxCell>
                <mxCell id="LytyyFFLT9Lsc8S2HGza-16" value="" style="swimlane;swimlaneHead=0;swimlaneBody=0;fontStyle=0;connectable=0;fillColor=none;startSize=0;collapsible=0;recursiveResize=0;expand=0;fontStyle=1;strokeColor=#0066CC;fontFamily=Comic Sans MS;fontSize=9;" parent="LytyyFFLT9Lsc8S2HGza-14" vertex="1">
                    <mxGeometry x="270" width="160" height="120" as="geometry">
                        <mxRectangle width="160" height="120" as="alternateBounds"/>
                    </mxGeometry>
                </mxCell>
                <mxCell id="LytyyFFLT9Lsc8S2HGza-57" value="&lt;font style=&quot;font-size: 12px;&quot;&gt;Polled builds&lt;br&gt;Automated staging&lt;br&gt;Complete Test Automation&lt;/font&gt;" style="text;html=1;align=center;verticalAlign=middle;resizable=0;points=[];autosize=1;strokeColor=none;fillColor=none;fontSize=9;fontFamily=Comic Sans MS;" parent="LytyyFFLT9Lsc8S2HGza-16" vertex="1">
                    <mxGeometry x="-5" y="25" width="170" height="60" as="geometry"/>
                </mxCell>
                <mxCell id="LytyyFFLT9Lsc8S2HGza-17" value="" style="swimlane;swimlaneHead=0;swimlaneBody=0;fontStyle=0;connectable=0;fillColor=none;startSize=0;collapsible=0;recursiveResize=0;expand=0;fontStyle=1;strokeColor=#0066CC;fontFamily=Comic Sans MS;fontSize=9;" parent="LytyyFFLT9Lsc8S2HGza-14" vertex="1">
                    <mxGeometry x="430" width="160" height="120" as="geometry">
                        <mxRectangle width="160" height="120" as="alternateBounds"/>
                    </mxGeometry>
                </mxCell>
                <mxCell id="LytyyFFLT9Lsc8S2HGza-58" value="&lt;font style=&quot;font-size: 12px;&quot;&gt;Quality Gates&lt;br&gt;Realtime build metrics&lt;br&gt;Deployment/Compliance &lt;br&gt;trending&lt;br&gt;TDD frameworks&lt;br&gt;Test Results Consolidation&lt;br&gt;Dynamic&amp;nbsp; Provisioning&lt;/font&gt;" style="text;html=1;align=center;verticalAlign=middle;resizable=0;points=[];autosize=1;strokeColor=none;fillColor=none;fontSize=9;fontFamily=Comic Sans MS;" parent="LytyyFFLT9Lsc8S2HGza-17" vertex="1">
                    <mxGeometry x="-15" width="170" height="110" as="geometry"/>
                </mxCell>
                <mxCell id="LytyyFFLT9Lsc8S2HGza-18" style="swimlane;swimlaneHead=0;swimlaneBody=0;fontStyle=0;connectable=0;fillColor=none;startSize=0;collapsible=0;recursiveResize=0;expand=0;fontStyle=1;strokeColor=#0066CC;fontFamily=Comic Sans MS;fontSize=9;" parent="LytyyFFLT9Lsc8S2HGza-14" vertex="1">
                    <mxGeometry x="590" width="140" height="120" as="geometry">
                        <mxRectangle width="140" height="120" as="alternateBounds"/>
                    </mxGeometry>
                </mxCell>
                <mxCell id="LytyyFFLT9Lsc8S2HGza-59" value="&lt;font style=&quot;font-size: 12px;&quot;&gt;Zero-touch&amp;nbsp;&lt;br&gt;Build Orchestration&lt;br&gt;AI powered Tests&lt;br&gt;Reliable GitOps&amp;nbsp;&lt;/font&gt;" style="text;html=1;align=center;verticalAlign=middle;resizable=0;points=[];autosize=1;strokeColor=none;fillColor=none;fontSize=9;fontFamily=Comic Sans MS;" parent="LytyyFFLT9Lsc8S2HGza-18" vertex="1">
                    <mxGeometry x="5" y="20" width="130" height="70" as="geometry"/>
                </mxCell>
                <mxCell id="LytyyFFLT9Lsc8S2HGza-20" style="shape=tableRow;horizontal=0;startSize=110;swimlaneHead=0;swimlaneBody=0;top=0;left=0;bottom=0;right=0;dropTarget=0;fillColor=none;collapsible=0;recursiveResize=0;expand=0;fontStyle=1;strokeColor=#0066CC;fontFamily=Comic Sans MS;fontSize=9;" parent="LytyyFFLT9Lsc8S2HGza-1" vertex="1">
                    <mxGeometry y="400" width="730" height="110" as="geometry"/>
                </mxCell>
                <mxCell id="LytyyFFLT9Lsc8S2HGza-21" style="swimlane;swimlaneHead=0;swimlaneBody=0;fontStyle=0;connectable=0;fillColor=#FF3333;startSize=0;collapsible=0;recursiveResize=0;expand=0;fontStyle=1;strokeColor=#0066CC;fontFamily=Comic Sans MS;fontSize=9;" parent="LytyyFFLT9Lsc8S2HGza-20" vertex="1">
                    <mxGeometry x="110" width="160" height="110" as="geometry">
                        <mxRectangle width="160" height="110" as="alternateBounds"/>
                    </mxGeometry>
                </mxCell>
                <mxCell id="LytyyFFLT9Lsc8S2HGza-22" style="swimlane;swimlaneHead=0;swimlaneBody=0;fontStyle=0;connectable=0;fillColor=none;startSize=0;collapsible=0;recursiveResize=0;expand=0;fontStyle=1;strokeColor=#0066CC;fontFamily=Comic Sans MS;fontSize=9;" parent="LytyyFFLT9Lsc8S2HGza-20" vertex="1">
                    <mxGeometry x="270" width="160" height="110" as="geometry">
                        <mxRectangle width="160" height="110" as="alternateBounds"/>
                    </mxGeometry>
                </mxCell>
                <mxCell id="rJoUMcJ71U402FxEsKE9-14" value="&lt;font style=&quot;font-size: 8px;&quot; face=&quot;Comic Sans MS&quot;&gt;Current&lt;/font&gt;" style="ellipse;whiteSpace=wrap;html=1;strokeColor=#0066CC;fontFamily=Times New Roman;fontSize=9;fillColor=#E6E6E6;" parent="LytyyFFLT9Lsc8S2HGza-22" vertex="1">
                    <mxGeometry x="129" y="82.5" width="30" height="30" as="geometry"/>
                </mxCell>
                <mxCell id="LytyyFFLT9Lsc8S2HGza-23" style="swimlane;swimlaneHead=0;swimlaneBody=0;fontStyle=0;connectable=0;fillColor=none;startSize=0;collapsible=0;recursiveResize=0;expand=0;fontStyle=1;strokeColor=#0066CC;fontFamily=Comic Sans MS;fontSize=9;" parent="LytyyFFLT9Lsc8S2HGza-20" vertex="1">
                    <mxGeometry x="430" width="160" height="110" as="geometry">
                        <mxRectangle width="160" height="110" as="alternateBounds"/>
                    </mxGeometry>
                </mxCell>
                <mxCell id="LytyyFFLT9Lsc8S2HGza-24" style="swimlane;swimlaneHead=0;swimlaneBody=0;fontStyle=0;connectable=0;fillColor=none;startSize=0;collapsible=0;recursiveResize=0;expand=0;fontStyle=1;strokeColor=#0066CC;fontFamily=Comic Sans MS;fontSize=9;" parent="LytyyFFLT9Lsc8S2HGza-20" vertex="1">
                    <mxGeometry x="590" width="140" height="110" as="geometry">
                        <mxRectangle width="140" height="110" as="alternateBounds"/>
                    </mxGeometry>
                </mxCell>
                <mxCell id="LytyyFFLT9Lsc8S2HGza-26" style="shape=tableRow;horizontal=0;startSize=110;swimlaneHead=0;swimlaneBody=0;top=0;left=0;bottom=0;right=0;dropTarget=0;fillColor=none;collapsible=0;recursiveResize=0;expand=0;fontStyle=1;strokeColor=#0066CC;fontFamily=Comic Sans MS;fontSize=9;" parent="LytyyFFLT9Lsc8S2HGza-1" vertex="1">
                    <mxGeometry y="510" width="730" height="120" as="geometry"/>
                </mxCell>
                <mxCell id="LytyyFFLT9Lsc8S2HGza-27" style="swimlane;swimlaneHead=0;swimlaneBody=0;fontStyle=0;connectable=0;fillColor=#FF3333;startSize=0;collapsible=0;recursiveResize=0;expand=0;fontStyle=1;strokeColor=#0066CC;fontFamily=Comic Sans MS;fontSize=9;" parent="LytyyFFLT9Lsc8S2HGza-26" vertex="1">
                    <mxGeometry x="110" width="160" height="120" as="geometry">
                        <mxRectangle width="160" height="120" as="alternateBounds"/>
                    </mxGeometry>
                </mxCell>
                <mxCell id="LytyyFFLT9Lsc8S2HGza-64" value="&lt;font style=&quot;font-size: 12px;&quot;&gt;ITSM Tools&lt;br&gt;SLA Driven&lt;br&gt;Alert Based Runbook&lt;br&gt;Scripted Infra Provisioning&lt;br&gt;Security Audit&lt;/font&gt;" style="text;html=1;align=center;verticalAlign=middle;resizable=0;points=[];autosize=1;strokeColor=none;fillColor=none;fontSize=9;fontFamily=Comic Sans MS;" parent="LytyyFFLT9Lsc8S2HGza-27" vertex="1">
                    <mxGeometry x="-20" y="15" width="180" height="90" as="geometry"/>
                </mxCell>
                <mxCell id="LytyyFFLT9Lsc8S2HGza-28" style="swimlane;swimlaneHead=0;swimlaneBody=0;fontStyle=0;connectable=0;fillColor=none;startSize=0;collapsible=0;recursiveResize=0;expand=0;fontStyle=1;strokeColor=#0066CC;fontFamily=Comic Sans MS;fontSize=9;" parent="LytyyFFLT9Lsc8S2HGza-26" vertex="1">
                    <mxGeometry x="270" width="160" height="120" as="geometry">
                        <mxRectangle width="160" height="120" as="alternateBounds"/>
                    </mxGeometry>
                </mxCell>
                <mxCell id="LytyyFFLT9Lsc8S2HGza-65" value="&lt;font style=&quot;font-size: 12px;&quot;&gt;Realtime Monitoring&lt;br&gt;Diagonostics&lt;br&gt;Automated Remediation&lt;/font&gt;" style="text;html=1;align=center;verticalAlign=middle;resizable=0;points=[];autosize=1;strokeColor=none;fillColor=none;fontSize=9;fontFamily=Comic Sans MS;" parent="LytyyFFLT9Lsc8S2HGza-28" vertex="1">
                    <mxGeometry x="-10" y="30" width="160" height="60" as="geometry"/>
                </mxCell>
                <mxCell id="rJoUMcJ71U402FxEsKE9-17" value="&lt;font style=&quot;font-size: 8px;&quot; face=&quot;Comic Sans MS&quot;&gt;Current&lt;/font&gt;" style="ellipse;whiteSpace=wrap;html=1;strokeColor=#0066CC;fontFamily=Times New Roman;fontSize=9;fillColor=#E6E6E6;" parent="LytyyFFLT9Lsc8S2HGza-28" vertex="1">
                    <mxGeometry x="130" y="89.5" width="30" height="30" as="geometry"/>
                </mxCell>
                <mxCell id="LytyyFFLT9Lsc8S2HGza-29" style="swimlane;swimlaneHead=0;swimlaneBody=0;fontStyle=0;connectable=0;fillColor=none;startSize=0;collapsible=0;recursiveResize=0;expand=0;fontStyle=1;strokeColor=#0066CC;fontFamily=Comic Sans MS;fontSize=9;" parent="LytyyFFLT9Lsc8S2HGza-26" vertex="1">
                    <mxGeometry x="430" width="160" height="120" as="geometry">
                        <mxRectangle width="160" height="120" as="alternateBounds"/>
                    </mxGeometry>
                </mxCell>
                <mxCell id="LytyyFFLT9Lsc8S2HGza-66" value="&lt;font style=&quot;font-size: 12px;&quot;&gt;Resilience Automation&lt;br&gt;Complete Software Defined&lt;br&gt;VDMS / VDSS Framework&lt;br&gt;Continous Security/Audit&lt;/font&gt;" style="text;html=1;align=center;verticalAlign=middle;resizable=0;points=[];autosize=1;strokeColor=none;fillColor=none;fontSize=9;fontFamily=Comic Sans MS;" parent="LytyyFFLT9Lsc8S2HGza-29" vertex="1">
                    <mxGeometry x="-15" y="30" width="180" height="70" as="geometry"/>
                </mxCell>
                <mxCell id="LytyyFFLT9Lsc8S2HGza-30" style="swimlane;swimlaneHead=0;swimlaneBody=0;fontStyle=0;connectable=0;fillColor=none;startSize=0;collapsible=0;recursiveResize=0;expand=0;fontStyle=1;strokeColor=#0066CC;fontFamily=Comic Sans MS;fontSize=9;" parent="LytyyFFLT9Lsc8S2HGza-26" vertex="1">
                    <mxGeometry x="590" width="140" height="120" as="geometry">
                        <mxRectangle width="140" height="120" as="alternateBounds"/>
                    </mxGeometry>
                </mxCell>
                <mxCell id="LytyyFFLT9Lsc8S2HGza-67" value="&lt;font style=&quot;font-size: 12px;&quot;&gt;Appcentric Optimization&lt;br&gt;SLE Scoring&lt;br&gt;AI-Ops&amp;nbsp;&lt;br&gt;AI -Driven Prediction&lt;/font&gt;" style="text;html=1;align=center;verticalAlign=middle;resizable=0;points=[];autosize=1;strokeColor=none;fillColor=none;fontSize=9;fontFamily=Comic Sans MS;" parent="LytyyFFLT9Lsc8S2HGza-30" vertex="1">
                    <mxGeometry x="-10" y="30" width="160" height="70" as="geometry"/>
                </mxCell>
                <mxCell id="MO1thTo8uA5cUM_53QHz-3" style="edgeStyle=none;html=1;entryX=0;entryY=0.5;entryDx=0;entryDy=0;fontFamily=Times New Roman;fontSize=9;" parent="LytyyFFLT9Lsc8S2HGza-1" source="MO1thTo8uA5cUM_53QHz-1" target="MO1thTo8uA5cUM_53QHz-2" edge="1">
                    <mxGeometry relative="1" as="geometry"/>
                </mxCell>
                <mxCell id="LytyyFFLT9Lsc8S2HGza-32" value="" style="shape=tableRow;horizontal=0;startSize=110;swimlaneHead=0;swimlaneBody=0;top=0;left=0;bottom=0;right=0;dropTarget=0;fillColor=none;collapsible=0;recursiveResize=0;expand=0;fontStyle=1;strokeColor=#0066CC;fontFamily=Comic Sans MS;fontSize=9;" parent="1" vertex="1">
                    <mxGeometry x="140" y="510" width="810" height="120" as="geometry"/>
                </mxCell>
                <mxCell id="LytyyFFLT9Lsc8S2HGza-33" value="" style="swimlane;swimlaneHead=0;swimlaneBody=0;fontStyle=0;connectable=0;fillColor=none;startSize=0;collapsible=0;recursiveResize=0;expand=0;fontStyle=1;strokeColor=#0066CC;fontFamily=Comic Sans MS;fontSize=9;" parent="LytyyFFLT9Lsc8S2HGza-32" vertex="1">
                    <mxGeometry x="110" width="140" height="120" as="geometry">
                        <mxRectangle width="140" height="120" as="alternateBounds"/>
                    </mxGeometry>
                </mxCell>
                <mxCell id="LytyyFFLT9Lsc8S2HGza-60" value="&lt;font style=&quot;font-size: 12px;&quot;&gt;Basic Test Automation&lt;br&gt;Risk Based Manual Tests&lt;br&gt;Continous Integration&lt;/font&gt;" style="text;html=1;align=center;verticalAlign=middle;resizable=0;points=[];autosize=1;strokeColor=none;fillColor=none;fontSize=9;fontFamily=Comic Sans MS;" parent="LytyyFFLT9Lsc8S2HGza-33" vertex="1">
                    <mxGeometry x="-10" y="60" width="160" height="60" as="geometry"/>
                </mxCell>
                <mxCell id="LytyyFFLT9Lsc8S2HGza-34" value="" style="swimlane;swimlaneHead=0;swimlaneBody=0;fontStyle=0;connectable=0;fillColor=none;startSize=0;collapsible=0;recursiveResize=0;expand=0;fontStyle=1;strokeColor=#0066CC;fontFamily=Comic Sans MS;fontSize=9;" parent="LytyyFFLT9Lsc8S2HGza-32" vertex="1">
                    <mxGeometry x="250" width="140" height="120" as="geometry">
                        <mxRectangle width="140" height="120" as="alternateBounds"/>
                    </mxGeometry>
                </mxCell>
                <mxCell id="LytyyFFLT9Lsc8S2HGza-61" value="&lt;font style=&quot;font-size: 12px;&quot;&gt;Automated testing&amp;nbsp;&lt;br&gt;Test Results Consolidation&lt;br&gt;Component DrivenTests&lt;br&gt;API tests&lt;/font&gt;" style="text;html=1;align=center;verticalAlign=middle;resizable=0;points=[];autosize=1;strokeColor=none;fillColor=none;fontSize=9;fontFamily=Comic Sans MS;" parent="LytyyFFLT9Lsc8S2HGza-34" vertex="1">
                    <mxGeometry x="10" y="50" width="170" height="70" as="geometry"/>
                </mxCell>
                <mxCell id="LytyyFFLT9Lsc8S2HGza-35" value="" style="swimlane;swimlaneHead=0;swimlaneBody=0;fontStyle=0;connectable=0;fillColor=none;startSize=0;collapsible=0;recursiveResize=0;expand=0;fontStyle=1;strokeColor=#0066CC;fontFamily=Comic Sans MS;fontSize=9;" parent="LytyyFFLT9Lsc8S2HGza-32" vertex="1">
                    <mxGeometry x="390" width="140" height="120" as="geometry">
                        <mxRectangle width="140" height="120" as="alternateBounds"/>
                    </mxGeometry>
                </mxCell>
                <mxCell id="LytyyFFLT9Lsc8S2HGza-62" value="&lt;font style=&quot;font-size: 12px;&quot;&gt;TDD/BDD&lt;br&gt;Test Rule Based Promotion&lt;br&gt;Automated Tests Integration&lt;/font&gt;" style="text;html=1;align=center;verticalAlign=middle;resizable=0;points=[];autosize=1;strokeColor=none;fillColor=none;fontSize=9;fontFamily=Comic Sans MS;" parent="LytyyFFLT9Lsc8S2HGza-35" vertex="1">
                    <mxGeometry x="25" y="55" width="190" height="60" as="geometry"/>
                </mxCell>
                <mxCell id="rJoUMcJ71U402FxEsKE9-11" value="&lt;font style=&quot;font-size: 8px;&quot; face=&quot;Comic Sans MS&quot;&gt;Current&lt;/font&gt;" style="ellipse;whiteSpace=wrap;html=1;strokeColor=#0066CC;fontFamily=Times New Roman;fontSize=9;fillColor=#E6E6E6;" parent="LytyyFFLT9Lsc8S2HGza-35" vertex="1">
                    <mxGeometry x="5" width="30" height="30" as="geometry"/>
                </mxCell>
                <mxCell id="LytyyFFLT9Lsc8S2HGza-36" style="swimlane;swimlaneHead=0;swimlaneBody=0;fontStyle=0;connectable=0;fillColor=none;startSize=0;collapsible=0;recursiveResize=0;expand=0;fontStyle=1;strokeColor=#0066CC;fontFamily=Comic Sans MS;fontSize=9;" parent="LytyyFFLT9Lsc8S2HGza-32" vertex="1">
                    <mxGeometry x="530" width="140" height="120" as="geometry">
                        <mxRectangle width="140" height="120" as="alternateBounds"/>
                    </mxGeometry>
                </mxCell>
                <mxCell id="LytyyFFLT9Lsc8S2HGza-63" value="&lt;font style=&quot;font-size: 12px;&quot;&gt;Test Trending&lt;br&gt;AI besed Generation&lt;br&gt;AI Based Prediction&lt;/font&gt;" style="text;html=1;align=center;verticalAlign=middle;resizable=0;points=[];autosize=1;strokeColor=none;fillColor=none;fontSize=9;fontFamily=Comic Sans MS;" parent="LytyyFFLT9Lsc8S2HGza-36" vertex="1">
                    <mxGeometry x="60" y="60" width="140" height="60" as="geometry"/>
                </mxCell>
                <mxCell id="rJoUMcJ71U402FxEsKE9-12" value="" style="ellipse;whiteSpace=wrap;html=1;aspect=fixed;strokeColor=#0066CC;fontFamily=Times New Roman;fontSize=9;fillColor=#B3FF66;" parent="LytyyFFLT9Lsc8S2HGza-36" vertex="1">
                    <mxGeometry x="70" y="7.5" width="15" height="15" as="geometry"/>
                </mxCell>
                <mxCell id="LytyyFFLT9Lsc8S2HGza-37" style="swimlane;swimlaneHead=0;swimlaneBody=0;fontStyle=0;connectable=0;fillColor=none;startSize=0;collapsible=0;recursiveResize=0;expand=0;fontStyle=1;strokeColor=#0066CC;fontFamily=Comic Sans MS;fontSize=9;" parent="LytyyFFLT9Lsc8S2HGza-32" vertex="1">
                    <mxGeometry x="670" width="140" height="120" as="geometry">
                        <mxRectangle width="140" height="120" as="alternateBounds"/>
                    </mxGeometry>
                </mxCell>
                <mxCell id="rJoUMcJ71U402FxEsKE9-13" style="edgeStyle=none;html=1;entryX=0;entryY=0.5;entryDx=0;entryDy=0;fontFamily=Times New Roman;fontSize=9;" parent="LytyyFFLT9Lsc8S2HGza-32" source="rJoUMcJ71U402FxEsKE9-11" target="rJoUMcJ71U402FxEsKE9-12" edge="1">
                    <mxGeometry relative="1" as="geometry"/>
                </mxCell>
                <mxCell id="LytyyFFLT9Lsc8S2HGza-38" value="&lt;b&gt;&lt;font style=&quot;font-size: 12px;&quot;&gt;Culture and Skill&lt;/font&gt;&lt;/b&gt;" style="text;html=1;strokeColor=none;fillColor=none;align=center;verticalAlign=middle;whiteSpace=wrap;rounded=0;fontFamily=Comic Sans MS;fontSize=9;" parent="1" vertex="1">
                    <mxGeometry x="160" y="235" width="80" height="30" as="geometry"/>
                </mxCell>
                <mxCell id="LytyyFFLT9Lsc8S2HGza-42" value="&lt;b&gt;&lt;font style=&quot;font-size: 14px;&quot;&gt;Design and Architecture&lt;/font&gt;&lt;/b&gt;" style="text;html=1;strokeColor=none;fillColor=none;align=center;verticalAlign=middle;whiteSpace=wrap;rounded=0;fontFamily=Comic Sans MS;fontSize=9;" parent="1" vertex="1">
                    <mxGeometry x="160" y="340" width="60" height="30" as="geometry"/>
                </mxCell>
                <mxCell id="LytyyFFLT9Lsc8S2HGza-43" value="&lt;b&gt;&lt;font style=&quot;font-size: 14px;&quot;&gt;Build and Deploy&lt;/font&gt;&lt;/b&gt;" style="text;html=1;strokeColor=none;fillColor=none;align=center;verticalAlign=middle;whiteSpace=wrap;rounded=0;fontFamily=Comic Sans MS;fontSize=9;" parent="1" vertex="1">
                    <mxGeometry x="160" y="460" width="70" height="30" as="geometry"/>
                </mxCell>
                <mxCell id="LytyyFFLT9Lsc8S2HGza-44" value="&lt;b&gt;&lt;font style=&quot;font-size: 14px;&quot;&gt;Test&lt;/font&gt;&lt;/b&gt;" style="text;html=1;strokeColor=none;fillColor=none;align=center;verticalAlign=middle;whiteSpace=wrap;rounded=0;fontFamily=Comic Sans MS;fontSize=9;" parent="1" vertex="1">
                    <mxGeometry x="160" y="580" width="60" height="30" as="geometry"/>
                </mxCell>
                <mxCell id="LytyyFFLT9Lsc8S2HGza-45" value="&lt;b&gt;&lt;font style=&quot;font-size: 14px;&quot;&gt;Operation&lt;/font&gt;&lt;/b&gt;" style="text;html=1;strokeColor=none;fillColor=none;align=center;verticalAlign=middle;whiteSpace=wrap;rounded=0;fontFamily=Comic Sans MS;fontSize=9;" parent="1" vertex="1">
                    <mxGeometry x="160" y="700" width="60" height="30" as="geometry"/>
                </mxCell>
                <mxCell id="LytyyFFLT9Lsc8S2HGza-46" value="&lt;font style=&quot;font-size: 12px;&quot;&gt;Priorotized Work&lt;br&gt;Large teams&lt;br&gt;Multiple roles&amp;nbsp;&lt;br&gt;Quarterly releases&lt;br&gt;Defined processes.&lt;/font&gt;" style="text;html=1;align=center;verticalAlign=middle;resizable=0;points=[];autosize=1;strokeColor=none;fillColor=none;fontSize=9;fontFamily=Comic Sans MS;" parent="1" vertex="1">
                    <mxGeometry x="255" y="213" width="130" height="90" as="geometry"/>
                </mxCell>
                <mxCell id="rJoUMcJ71U402FxEsKE9-15" value="" style="ellipse;whiteSpace=wrap;html=1;aspect=fixed;strokeColor=#0066CC;fontFamily=Times New Roman;fontSize=9;fillColor=#B3FF66;" parent="1" vertex="1">
                    <mxGeometry x="745" y="630" width="15" height="15" as="geometry"/>
                </mxCell>
                <mxCell id="rJoUMcJ71U402FxEsKE9-16" style="edgeStyle=none;html=1;entryX=0;entryY=0.5;entryDx=0;entryDy=0;fontFamily=Times New Roman;fontSize=9;" parent="1" source="rJoUMcJ71U402FxEsKE9-14" target="rJoUMcJ71U402FxEsKE9-15" edge="1">
                    <mxGeometry relative="1" as="geometry"/>
                </mxCell>
                <mxCell id="rJoUMcJ71U402FxEsKE9-18" value="" style="ellipse;whiteSpace=wrap;html=1;aspect=fixed;strokeColor=#0066CC;fontFamily=Times New Roman;fontSize=9;fillColor=#B3FF66;" parent="1" vertex="1">
                    <mxGeometry x="755" y="747" width="15" height="15" as="geometry"/>
                </mxCell>
                <mxCell id="rJoUMcJ71U402FxEsKE9-19" style="edgeStyle=none;html=1;entryX=0;entryY=0.5;entryDx=0;entryDy=0;fontFamily=Times New Roman;fontSize=9;" parent="1" source="rJoUMcJ71U402FxEsKE9-17" target="rJoUMcJ71U402FxEsKE9-18" edge="1">
                    <mxGeometry relative="1" as="geometry"/>
                </mxCell>
            </root>
        </mxGraphModel>
    </diagram>
    <diagram id="o7SX92u5WDPKv_Qo-5N-" name="Microservices">
        <mxGraphModel dx="1702" dy="2035" grid="1" gridSize="10" guides="1" tooltips="1" connect="1" arrows="1" fold="1" page="1" pageScale="1" pageWidth="1100" pageHeight="850" math="0" shadow="0">
            <root>
                <mxCell id="0"/>
                <mxCell id="1" parent="0"/>
                <mxCell id="t2N2KF-7ZCxaXUU58gSf-131" value="" style="group" parent="1" vertex="1" connectable="0">
                    <mxGeometry x="-130" y="-900" width="710" height="390" as="geometry"/>
                </mxCell>
                <mxCell id="56" value="" style="group" parent="t2N2KF-7ZCxaXUU58gSf-131" vertex="1" connectable="0">
                    <mxGeometry x="150" width="420" height="390" as="geometry"/>
                </mxCell>
                <mxCell id="6" value="" style="rounded=1;whiteSpace=wrap;html=1;fillColor=#EEE2E2;" parent="56" vertex="1">
                    <mxGeometry width="420" height="390" as="geometry"/>
                </mxCell>
                <mxCell id="12" value="" style="group" parent="56" vertex="1" connectable="0">
                    <mxGeometry x="20" y="44.31818181818181" width="380" height="70.9090909090909" as="geometry"/>
                </mxCell>
                <mxCell id="11" value="" style="group;fillColor=#FFCCCC;container=0;" parent="12" vertex="1" connectable="0">
                    <mxGeometry width="380" height="70.9090909090909" as="geometry"/>
                </mxCell>
                <mxCell id="8" value="&lt;font face=&quot;Comic Sans MS&quot;&gt;Service Orchestration&lt;/font&gt;" style="rounded=1;whiteSpace=wrap;html=1;strokeColor=#0066CC;fillColor=#4DB2FF;" parent="12" vertex="1">
                    <mxGeometry x="10" y="13.295454545454545" width="90" height="44.31818181818181" as="geometry"/>
                </mxCell>
                <mxCell id="9" value="&lt;font face=&quot;Comic Sans MS&quot;&gt;Service Mesh&lt;/font&gt;" style="rounded=1;whiteSpace=wrap;html=1;fillColor=#FFFFFF;" parent="12" vertex="1">
                    <mxGeometry x="110" y="26.59090909090909" width="80" height="17.727272727272727" as="geometry"/>
                </mxCell>
                <mxCell id="10" value="&lt;font face=&quot;Comic Sans MS&quot;&gt;Monitoring &amp;amp;&amp;amp; Scaling&lt;/font&gt;" style="rounded=1;whiteSpace=wrap;html=1;" parent="12" vertex="1">
                    <mxGeometry x="220" y="26.59090909090909" width="130" height="17.727272727272727" as="geometry"/>
                </mxCell>
                <mxCell id="19" value="" style="group" parent="56" vertex="1" connectable="0">
                    <mxGeometry x="20" y="141.8181818181818" width="380" height="70.9090909090909" as="geometry"/>
                </mxCell>
                <mxCell id="14" value="" style="group;fillColor=#CCFFFF;container=0;" parent="19" vertex="1" connectable="0">
                    <mxGeometry width="380" height="70.9090909090909" as="geometry"/>
                </mxCell>
                <mxCell id="15" value="&lt;font face=&quot;Comic Sans MS&quot;&gt;Business&amp;nbsp;&lt;br&gt;Services&lt;br&gt;&lt;/font&gt;" style="rounded=1;whiteSpace=wrap;html=1;strokeColor=#0066CC;fillColor=#4DB2FF;" parent="19" vertex="1">
                    <mxGeometry x="10" y="13.295454545454545" width="90" height="44.31818181818181" as="geometry"/>
                </mxCell>
                <mxCell id="16" value="&lt;font face=&quot;Comic Sans MS&quot;&gt;Domain Specific Service1&lt;/font&gt;" style="rounded=1;whiteSpace=wrap;html=1;fillColor=#FFFFFF;" parent="19" vertex="1">
                    <mxGeometry x="110" y="8.863636363636363" width="150" height="26.59090909090909" as="geometry"/>
                </mxCell>
                <mxCell id="25" value="&lt;font face=&quot;Comic Sans MS&quot;&gt;Domain Specific Service2&lt;/font&gt;" style="rounded=1;whiteSpace=wrap;html=1;fillColor=#FFFFFF;" parent="19" vertex="1">
                    <mxGeometry x="140" y="31.02272727272727" width="150" height="26.59090909090909" as="geometry"/>
                </mxCell>
                <mxCell id="26" value="......" style="text;html=1;strokeColor=none;fillColor=none;align=center;verticalAlign=middle;whiteSpace=wrap;rounded=0;fontFamily=Comic Sans MS;" parent="19" vertex="1">
                    <mxGeometry x="280" y="44.31818181818181" width="60" height="26.59090909090909" as="geometry"/>
                </mxCell>
                <mxCell id="n1w96Yya6C1sHL4KPiyu-137" value="Refactored,&lt;br&gt;Replatformed" style="text;html=1;strokeColor=none;fillColor=none;align=center;verticalAlign=middle;whiteSpace=wrap;rounded=0;fontFamily=Comic Sans MS;fontSize=12;" parent="19" vertex="1">
                    <mxGeometry x="320" y="7.532318181818142" width="60" height="29.250000000000004" as="geometry"/>
                </mxCell>
                <mxCell id="55" value="" style="group" parent="56" vertex="1" connectable="0">
                    <mxGeometry x="20" y="248.18181818181816" width="380" height="115.22727272727272" as="geometry"/>
                </mxCell>
                <mxCell id="21" value="" style="group;fillColor=#CCFFFF;container=0;" parent="55" vertex="1" connectable="0">
                    <mxGeometry width="380" height="115.22727272727272" as="geometry"/>
                </mxCell>
                <mxCell id="22" value="&lt;font face=&quot;Comic Sans MS&quot;&gt;Common Services&lt;/font&gt;" style="rounded=1;whiteSpace=wrap;html=1;strokeColor=#0066CC;fillColor=#4DB2FF;" parent="55" vertex="1">
                    <mxGeometry x="10" y="35.45454545454545" width="90" height="44.31818181818181" as="geometry"/>
                </mxCell>
                <mxCell id="23" value="&lt;font face=&quot;Comic Sans MS&quot;&gt;SEARCH&lt;/font&gt;" style="rounded=1;whiteSpace=wrap;html=1;fillColor=#FFFFFF;" parent="55" vertex="1">
                    <mxGeometry x="110" y="8.863636363636363" width="70" height="17.727272727272727" as="geometry"/>
                </mxCell>
                <mxCell id="24" value="&lt;font face=&quot;Comic Sans MS&quot;&gt;Security/RBAC&lt;/font&gt;" style="rounded=1;whiteSpace=wrap;html=1;" parent="55" vertex="1">
                    <mxGeometry x="190" y="8.863636363636363" width="100" height="17.727272727272727" as="geometry"/>
                </mxCell>
                <mxCell id="36" value="&lt;font face=&quot;Comic Sans MS&quot;&gt;CMS&lt;/font&gt;" style="rounded=1;whiteSpace=wrap;html=1;fillColor=#FFFFFF;" parent="55" vertex="1">
                    <mxGeometry x="300" y="8.863636363636363" width="50" height="17.727272727272727" as="geometry"/>
                </mxCell>
                <mxCell id="37" value="&lt;font face=&quot;Comic Sans MS&quot;&gt;DMS&lt;/font&gt;" style="rounded=1;whiteSpace=wrap;html=1;fillColor=#FFFFFF;" parent="55" vertex="1">
                    <mxGeometry x="110" y="35.45454545454545" width="50" height="17.727272727272727" as="geometry"/>
                </mxCell>
                <mxCell id="38" value="&lt;font face=&quot;Comic Sans MS&quot;&gt;Workflows&lt;/font&gt;" style="rounded=1;whiteSpace=wrap;html=1;fillColor=#FFFFFF;" parent="55" vertex="1">
                    <mxGeometry x="170" y="35.45454545454545" width="70" height="17.727272727272727" as="geometry"/>
                </mxCell>
                <mxCell id="40" value="&lt;font face=&quot;Comic Sans MS&quot;&gt;Policy Engine&lt;/font&gt;" style="rounded=1;whiteSpace=wrap;html=1;fillColor=#FFFFFF;" parent="55" vertex="1">
                    <mxGeometry x="250" y="35.45454545454545" width="80" height="17.727272727272727" as="geometry"/>
                </mxCell>
                <mxCell id="41" value="&lt;font face=&quot;Comic Sans MS&quot;&gt;ESB&lt;/font&gt;" style="rounded=1;whiteSpace=wrap;html=1;fillColor=#FFFFFF;" parent="55" vertex="1">
                    <mxGeometry x="110" y="62.04545454545454" width="80" height="17.727272727272727" as="geometry"/>
                </mxCell>
                <mxCell id="42" value="&lt;font face=&quot;Comic Sans MS&quot;&gt;Catalogue&lt;/font&gt;" style="rounded=1;whiteSpace=wrap;html=1;fillColor=#FFFFFF;" parent="55" vertex="1">
                    <mxGeometry x="212.5" y="62.04545454545454" width="55" height="17.727272727272727" as="geometry"/>
                </mxCell>
                <mxCell id="43" value="&lt;font face=&quot;Comic Sans MS&quot;&gt;Change Central&lt;/font&gt;" style="rounded=1;whiteSpace=wrap;html=1;fillColor=#FFFFFF;" parent="55" vertex="1">
                    <mxGeometry x="280" y="62.04545454545454" width="90" height="17.727272727272727" as="geometry"/>
                </mxCell>
                <mxCell id="44" value="&lt;font face=&quot;Comic Sans MS&quot;&gt;Dataflow&lt;/font&gt;" style="rounded=1;whiteSpace=wrap;html=1;fillColor=#FFFFFF;" parent="55" vertex="1">
                    <mxGeometry x="110" y="88.63636363636363" width="90" height="17.727272727272727" as="geometry"/>
                </mxCell>
                <mxCell id="45" value="&lt;font face=&quot;Comic Sans MS&quot;&gt;Lake&lt;/font&gt;" style="rounded=1;whiteSpace=wrap;html=1;fillColor=#FFFFFF;" parent="55" vertex="1">
                    <mxGeometry x="210" y="88.63636363636363" width="90" height="17.727272727272727" as="geometry"/>
                </mxCell>
                <mxCell id="52" value="......" style="text;html=1;strokeColor=none;fillColor=none;align=center;verticalAlign=middle;whiteSpace=wrap;rounded=0;fontFamily=Comic Sans MS;" parent="55" vertex="1">
                    <mxGeometry x="310" y="84.20454545454545" width="60" height="26.59090909090909" as="geometry"/>
                </mxCell>
                <mxCell id="n1w96Yya6C1sHL4KPiyu-136" value="&lt;b&gt;Reduced Dependencies&lt;/b&gt;" style="text;html=1;strokeColor=none;fillColor=none;align=center;verticalAlign=middle;whiteSpace=wrap;rounded=0;fontFamily=Comic Sans MS;fontSize=12;" parent="55" vertex="1">
                    <mxGeometry x="8" y="-4.436249999999997" width="90" height="29.25" as="geometry"/>
                </mxCell>
                <mxCell id="Qaq8B_Wh8oWom-hraLdx-131" value="Phase2 Transformation - refactor/ replatform" style="text;html=1;strokeColor=none;fillColor=none;align=center;verticalAlign=middle;whiteSpace=wrap;rounded=0;fontFamily=Comic Sans MS;fontSize=12;" parent="56" vertex="1">
                    <mxGeometry x="65" y="15.063749999999999" width="290" height="29.25" as="geometry"/>
                </mxCell>
                <mxCell id="123" style="edgeStyle=none;html=1;fontFamily=Comic Sans MS;fontSize=24;" parent="t2N2KF-7ZCxaXUU58gSf-131" source="6" edge="1">
                    <mxGeometry relative="1" as="geometry">
                        <mxPoint x="590" y="170" as="targetPoint"/>
                    </mxGeometry>
                </mxCell>
                <mxCell id="130" style="edgeStyle=none;html=1;entryX=0;entryY=0.5;entryDx=0;entryDy=0;fontFamily=Comic Sans MS;fontSize=24;" parent="t2N2KF-7ZCxaXUU58gSf-131" source="125" target="15" edge="1">
                    <mxGeometry relative="1" as="geometry"/>
                </mxCell>
                <mxCell id="131" style="edgeStyle=none;html=1;entryX=0;entryY=0.5;entryDx=0;entryDy=0;fontFamily=Comic Sans MS;fontSize=24;" parent="t2N2KF-7ZCxaXUU58gSf-131" source="125" target="22" edge="1">
                    <mxGeometry relative="1" as="geometry">
                        <mxPoint x="140" y="190" as="sourcePoint"/>
                    </mxGeometry>
                </mxCell>
                <mxCell id="125" value="API Gateway" style="sketch=0;outlineConnect=0;fontColor=#232F3E;gradientColor=none;fillColor=#B0084D;strokeColor=none;dashed=0;verticalLabelPosition=bottom;verticalAlign=top;align=center;html=1;fontSize=12;fontStyle=0;aspect=fixed;pointerEvents=1;shape=mxgraph.aws4.endpoint;fontFamily=Comic Sans MS;" parent="t2N2KF-7ZCxaXUU58gSf-131" vertex="1">
                    <mxGeometry x="105" y="182.5" width="25" height="25" as="geometry"/>
                </mxCell>
                <mxCell id="6cQGvpOUTSckRMWg6grE-131" value="" style="group" parent="t2N2KF-7ZCxaXUU58gSf-131" vertex="1" connectable="0">
                    <mxGeometry x="590" y="9.5" width="120" height="358.5" as="geometry"/>
                </mxCell>
                <mxCell id="6cQGvpOUTSckRMWg6grE-132" value="" style="rounded=1;whiteSpace=wrap;html=1;fillColor=#EEE2E2;" parent="6cQGvpOUTSckRMWg6grE-131" vertex="1">
                    <mxGeometry width="120" height="358.5" as="geometry"/>
                </mxCell>
                <mxCell id="6cQGvpOUTSckRMWg6grE-133" value="&lt;font style=&quot;font-size: 14px;&quot;&gt;&lt;b&gt;Data Services&lt;/b&gt;&lt;/font&gt;" style="text;html=1;strokeColor=none;fillColor=none;align=center;verticalAlign=middle;whiteSpace=wrap;rounded=0;fontFamily=Comic Sans MS;fontSize=8;" parent="6cQGvpOUTSckRMWg6grE-131" vertex="1">
                    <mxGeometry x="9" y="12.221590909090908" width="100" height="24.443181818181817" as="geometry"/>
                </mxCell>
                <mxCell id="6cQGvpOUTSckRMWg6grE-134" value="&lt;font style=&quot;&quot;&gt;&lt;b style=&quot;&quot;&gt;&lt;font style=&quot;font-size: 10px;&quot;&gt;Search&lt;br&gt;(ES)&lt;/font&gt;&lt;/b&gt;&lt;br&gt;&lt;/font&gt;" style="shape=datastore;whiteSpace=wrap;html=1;strokeColor=#0066CC;fontFamily=Comic Sans MS;fontSize=14;fillColor=#FFCCE6;" parent="6cQGvpOUTSckRMWg6grE-131" vertex="1">
                    <mxGeometry x="29" y="40.73863636363636" width="60" height="48.88636363636363" as="geometry"/>
                </mxCell>
                <mxCell id="6cQGvpOUTSckRMWg6grE-135" value="&lt;font style=&quot;&quot;&gt;&lt;font style=&quot;font-size: 10px;&quot;&gt;&lt;b&gt;Postgresql&lt;/b&gt;&lt;/font&gt;&lt;br&gt;&lt;/font&gt;" style="shape=datastore;whiteSpace=wrap;html=1;strokeColor=#0066CC;fontFamily=Comic Sans MS;fontSize=14;fillColor=#FFCCE6;" parent="6cQGvpOUTSckRMWg6grE-131" vertex="1">
                    <mxGeometry x="30" y="114.06818181818181" width="60" height="48.88636363636363" as="geometry"/>
                </mxCell>
                <mxCell id="6cQGvpOUTSckRMWg6grE-136" value="&lt;font style=&quot;&quot;&gt;&lt;font style=&quot;font-size: 10px;&quot;&gt;&lt;b&gt;Ehcache&lt;/b&gt;&lt;/font&gt;&lt;br&gt;&lt;/font&gt;" style="shape=datastore;whiteSpace=wrap;html=1;strokeColor=#0066CC;fontFamily=Comic Sans MS;fontSize=14;fillColor=#FFCCE6;" parent="6cQGvpOUTSckRMWg6grE-131" vertex="1">
                    <mxGeometry x="30" y="195.54545454545453" width="60" height="48.88636363636363" as="geometry"/>
                </mxCell>
                <mxCell id="6cQGvpOUTSckRMWg6grE-137" value="&lt;font style=&quot;&quot;&gt;&lt;font style=&quot;font-size: 10px;&quot;&gt;&lt;b&gt;Neo4j&lt;/b&gt;&lt;/font&gt;&lt;br&gt;&lt;/font&gt;" style="shape=datastore;whiteSpace=wrap;html=1;strokeColor=#0066CC;fontFamily=Comic Sans MS;fontSize=14;fillColor=#FFCCE6;" parent="6cQGvpOUTSckRMWg6grE-131" vertex="1">
                    <mxGeometry x="30" y="264.8011363636364" width="60" height="48.88636363636363" as="geometry"/>
                </mxCell>
                <mxCell id="6cQGvpOUTSckRMWg6grE-138" value="&lt;font style=&quot;font-size: 24px;&quot;&gt;.....&lt;/font&gt;" style="text;html=1;strokeColor=none;fillColor=none;align=center;verticalAlign=middle;whiteSpace=wrap;rounded=0;fontFamily=Comic Sans MS;fontSize=6;" parent="6cQGvpOUTSckRMWg6grE-131" vertex="1">
                    <mxGeometry x="49" y="321.83522727272725" width="60" height="24.443181818181817" as="geometry"/>
                </mxCell>
                <mxCell id="n1w96Yya6C1sHL4KPiyu-133" value="" style="group" parent="t2N2KF-7ZCxaXUU58gSf-131" vertex="1" connectable="0">
                    <mxGeometry width="80" height="390" as="geometry"/>
                </mxCell>
                <mxCell id="27" value="" style="rounded=1;whiteSpace=wrap;html=1;fillColor=#EEE2E2;" parent="n1w96Yya6C1sHL4KPiyu-133" vertex="1">
                    <mxGeometry width="80" height="390" as="geometry"/>
                </mxCell>
                <mxCell id="29" value="Mobile client" style="sketch=0;outlineConnect=0;fontColor=#232F3E;gradientColor=none;strokeColor=#232F3E;fillColor=#EEE2E2;dashed=0;verticalLabelPosition=bottom;verticalAlign=top;align=center;html=1;fontSize=12;fontStyle=0;aspect=fixed;shape=mxgraph.aws4.resourceIcon;resIcon=mxgraph.aws4.mobile_client;fontFamily=Comic Sans MS;" parent="n1w96Yya6C1sHL4KPiyu-133" vertex="1">
                    <mxGeometry x="12" width="54.418604651162795" height="54.418604651162795" as="geometry"/>
                </mxCell>
                <mxCell id="30" value="Applications" style="sketch=0;points=[[0,0,0],[0.25,0,0],[0.5,0,0],[0.75,0,0],[1,0,0],[0,1,0],[0.25,1,0],[0.5,1,0],[0.75,1,0],[1,1,0],[0,0.25,0],[0,0.5,0],[0,0.75,0],[1,0.25,0],[1,0.5,0],[1,0.75,0]];outlineConnect=0;fontColor=#232F3E;gradientColor=#F54749;gradientDirection=north;fillColor=#FFCCFF;strokeColor=#ffffff;dashed=0;verticalLabelPosition=bottom;verticalAlign=top;align=center;html=1;fontSize=12;fontStyle=0;aspect=fixed;shape=mxgraph.aws4.resourceIcon;resIcon=mxgraph.aws4.amplify;fontFamily=Comic Sans MS;" parent="n1w96Yya6C1sHL4KPiyu-133" vertex="1">
                    <mxGeometry x="17" y="90.69767441860465" width="45.348837209302324" height="45.348837209302324" as="geometry"/>
                </mxCell>
                <mxCell id="31" value="Dashboards&lt;br&gt;" style="sketch=0;points=[[0,0,0],[0.25,0,0],[0.5,0,0],[0.75,0,0],[1,0,0],[0,1,0],[0.25,1,0],[0.5,1,0],[0.75,1,0],[1,1,0],[0,0.25,0],[0,0.5,0],[0,0.75,0],[1,0.25,0],[1,0.5,0],[1,0.75,0]];points=[[0,0,0],[0.25,0,0],[0.5,0,0],[0.75,0,0],[1,0,0],[0,1,0],[0.25,1,0],[0.5,1,0],[0.75,1,0],[1,1,0],[0,0.25,0],[0,0.5,0],[0,0.75,0],[1,0.25,0],[1,0.5,0],[1,0.75,0]];outlineConnect=0;fontColor=#232F3E;gradientColor=#F34482;gradientDirection=north;fillColor=#FFCCFF;strokeColor=#ffffff;dashed=0;verticalLabelPosition=bottom;verticalAlign=top;align=center;html=1;fontSize=12;fontStyle=0;aspect=fixed;shape=mxgraph.aws4.resourceIcon;resIcon=mxgraph.aws4.personal_health_dashboard;fontFamily=Comic Sans MS;" parent="n1w96Yya6C1sHL4KPiyu-133" vertex="1">
                    <mxGeometry x="17" y="170.51162790697674" width="39.906976744186046" height="39.906976744186046" as="geometry"/>
                </mxCell>
                <mxCell id="34" value="AI Queries" style="shape=mxgraph.cisco.people.man_woman;html=1;pointerEvents=1;dashed=0;fillColor=#036897;strokeColor=#ffffff;strokeWidth=2;verticalLabelPosition=bottom;verticalAlign=top;align=center;outlineConnect=0;fontFamily=Comic Sans MS;fontSize=8;" parent="n1w96Yya6C1sHL4KPiyu-133" vertex="1">
                    <mxGeometry x="24" y="253.95348837209303" width="30" height="36.279069767441854" as="geometry"/>
                </mxCell>
                <mxCell id="35" value="CLI" style="sketch=0;points=[[0,0,0],[0.25,0,0],[0.5,0,0],[0.75,0,0],[1,0,0],[0,1,0],[0.25,1,0],[0.5,1,0],[0.75,1,0],[1,1,0],[0,0.25,0],[0,0.5,0],[0,0.75,0],[1,0.25,0],[1,0.5,0],[1,0.75,0]];outlineConnect=0;fontColor=#232F3E;gradientColor=#F78E04;gradientDirection=north;fillColor=#D05C17;strokeColor=#ffffff;dashed=0;verticalLabelPosition=bottom;verticalAlign=top;align=center;html=1;fontSize=12;fontStyle=0;aspect=fixed;shape=mxgraph.aws4.resourceIcon;resIcon=mxgraph.aws4.genomics_cli;fontFamily=Comic Sans MS;" parent="n1w96Yya6C1sHL4KPiyu-133" vertex="1">
                    <mxGeometry x="17" y="326.51162790697674" width="43.53488372093023" height="43.53488372093023" as="geometry"/>
                </mxCell>
                <mxCell id="n1w96Yya6C1sHL4KPiyu-135" value="" style="edgeStyle=none;html=1;fontFamily=Comic Sans MS;fontSize=12;" parent="t2N2KF-7ZCxaXUU58gSf-131" source="27" target="125" edge="1">
                    <mxGeometry relative="1" as="geometry"/>
                </mxCell>
            </root>
        </mxGraphModel>
    </diagram>
    <diagram id="4JGKvvkWwklBM6_Btrgp" name="Agentic">
        <mxGraphModel dx="1872" dy="2035" grid="1" gridSize="10" guides="1" tooltips="1" connect="1" arrows="1" fold="1" page="1" pageScale="1" pageWidth="1100" pageHeight="850" math="0" shadow="0">
            <root>
                <mxCell id="0"/>
                <mxCell id="1" parent="0"/>
                <mxCell id="_Lbp-MhDQG6pdM6gClgB-4" value="" style="edgeStyle=none;html=1;fontFamily=Comic Sans MS;fontSize=12;" parent="1" source="G5CNpF1ZyAMZ08ovfX3D-38" target="0Som-wI_wgkEfMMIxSo--8" edge="1">
                    <mxGeometry relative="1" as="geometry"/>
                </mxCell>
                <mxCell id="G5CNpF1ZyAMZ08ovfX3D-38" value="API Gateway" style="sketch=0;outlineConnect=0;fontColor=#232F3E;gradientColor=none;fillColor=#B0084D;strokeColor=none;dashed=0;verticalLabelPosition=bottom;verticalAlign=top;align=center;html=1;fontSize=12;fontStyle=0;aspect=fixed;pointerEvents=1;shape=mxgraph.aws4.endpoint;fontFamily=Comic Sans MS;" parent="1" vertex="1">
                    <mxGeometry x="-70" y="-878" width="38" height="38" as="geometry"/>
                </mxCell>
                <mxCell id="_Lbp-MhDQG6pdM6gClgB-7" value="" style="edgeStyle=none;html=1;fontFamily=Comic Sans MS;fontSize=12;" parent="1" source="G5CNpF1ZyAMZ08ovfX3D-2" target="2CuSADO_GvNy7Pb8LybT-5" edge="1">
                    <mxGeometry relative="1" as="geometry"/>
                </mxCell>
                <mxCell id="G5CNpF1ZyAMZ08ovfX3D-2" value="" style="rounded=1;whiteSpace=wrap;html=1;fillColor=#EEE2E2;" parent="1" vertex="1">
                    <mxGeometry x="-10" y="-1160" width="460" height="640" as="geometry"/>
                </mxCell>
                <mxCell id="G5CNpF1ZyAMZ08ovfX3D-3" value="" style="group" parent="1" vertex="1" connectable="0">
                    <mxGeometry x="30.48" y="-771.82" width="389.05" height="251.82" as="geometry"/>
                </mxCell>
                <mxCell id="G5CNpF1ZyAMZ08ovfX3D-4" value="......" style="text;html=1;strokeColor=none;fillColor=none;align=center;verticalAlign=middle;whiteSpace=wrap;rounded=0;fontFamily=Comic Sans MS;" parent="G5CNpF1ZyAMZ08ovfX3D-3" vertex="1">
                    <mxGeometry x="317.38289473684205" y="153.35192307692304" width="61.42894736842105" height="48.42692307692306" as="geometry"/>
                </mxCell>
                <mxCell id="G5CNpF1ZyAMZ08ovfX3D-6" value="" style="group" parent="1" vertex="1" connectable="0">
                    <mxGeometry x="29.71" y="-670" width="399.29" height="143.85" as="geometry"/>
                </mxCell>
                <mxCell id="G5CNpF1ZyAMZ08ovfX3D-7" value="" style="group" parent="G5CNpF1ZyAMZ08ovfX3D-6" vertex="1" connectable="0">
                    <mxGeometry y="13.981629975215045" width="399.29" height="129.86837002478495" as="geometry"/>
                </mxCell>
                <mxCell id="G5CNpF1ZyAMZ08ovfX3D-8" value="" style="shape=document;whiteSpace=wrap;html=1;boundedLbl=1;strokeColor=#0066CC;fontFamily=Comic Sans MS;fontSize=24;fillColor=#FFCCE6;" parent="G5CNpF1ZyAMZ08ovfX3D-7" vertex="1">
                    <mxGeometry y="-13.981629975215045" width="399.29" height="143.85000000000002" as="geometry"/>
                </mxCell>
                <mxCell id="G5CNpF1ZyAMZ08ovfX3D-9" value="&lt;font face=&quot;Comic Sans MS&quot;&gt;SEARCH&lt;/font&gt;" style="rounded=1;whiteSpace=wrap;html=1;fillColor=#FFFFFF;" parent="G5CNpF1ZyAMZ08ovfX3D-7" vertex="1">
                    <mxGeometry x="20.476190476190474" y="20.97298271782162" width="71.66666666666666" height="16.132649971401975" as="geometry"/>
                </mxCell>
                <mxCell id="G5CNpF1ZyAMZ08ovfX3D-10" value="&lt;font face=&quot;Comic Sans MS&quot;&gt;Security/RBAC&lt;/font&gt;" style="rounded=1;whiteSpace=wrap;html=1;" parent="G5CNpF1ZyAMZ08ovfX3D-7" vertex="1">
                    <mxGeometry x="102.38095238095238" y="20.97298271782162" width="102.38095238095238" height="16.132649971401975" as="geometry"/>
                </mxCell>
                <mxCell id="G5CNpF1ZyAMZ08ovfX3D-11" value="&lt;font face=&quot;Comic Sans MS&quot;&gt;CMS&lt;/font&gt;" style="rounded=1;whiteSpace=wrap;html=1;fillColor=#FFFFFF;" parent="G5CNpF1ZyAMZ08ovfX3D-7" vertex="1">
                    <mxGeometry x="215" y="20.97298271782162" width="51.19047619047619" height="16.132649971401975" as="geometry"/>
                </mxCell>
                <mxCell id="G5CNpF1ZyAMZ08ovfX3D-12" value="&lt;font face=&quot;Comic Sans MS&quot;&gt;DMS&lt;/font&gt;" style="rounded=1;whiteSpace=wrap;html=1;fillColor=#FFFFFF;" parent="G5CNpF1ZyAMZ08ovfX3D-7" vertex="1">
                    <mxGeometry x="284.10714285714283" y="20.97298271782162" width="51.19047619047619" height="16.132649971401975" as="geometry"/>
                </mxCell>
                <mxCell id="G5CNpF1ZyAMZ08ovfX3D-13" value="&lt;font face=&quot;Comic Sans MS&quot;&gt;Workflows&lt;/font&gt;" style="rounded=1;whiteSpace=wrap;html=1;fillColor=#FFFFFF;" parent="G5CNpF1ZyAMZ08ovfX3D-7" vertex="1">
                    <mxGeometry x="20.476190476190474" y="45.171957674924585" width="71.66666666666666" height="16.132649971401975" as="geometry"/>
                </mxCell>
                <mxCell id="G5CNpF1ZyAMZ08ovfX3D-14" value="&lt;font face=&quot;Comic Sans MS&quot;&gt;Policy Engine&lt;/font&gt;" style="rounded=1;whiteSpace=wrap;html=1;fillColor=#FFFFFF;" parent="G5CNpF1ZyAMZ08ovfX3D-7" vertex="1">
                    <mxGeometry x="102.38095238095238" y="45.171957674924585" width="81.9047619047619" height="16.132649971401975" as="geometry"/>
                </mxCell>
                <mxCell id="G5CNpF1ZyAMZ08ovfX3D-15" value="&lt;font face=&quot;Comic Sans MS&quot;&gt;ESB&lt;/font&gt;" style="rounded=1;whiteSpace=wrap;html=1;fillColor=#FFFFFF;" parent="G5CNpF1ZyAMZ08ovfX3D-7" vertex="1">
                    <mxGeometry x="20.476190476190474" y="73.40409512487804" width="81.9047619047619" height="16.132649971401975" as="geometry"/>
                </mxCell>
                <mxCell id="G5CNpF1ZyAMZ08ovfX3D-16" value="&lt;font face=&quot;Comic Sans MS&quot;&gt;Catalogue&lt;/font&gt;" style="rounded=1;whiteSpace=wrap;html=1;fillColor=#FFFFFF;" parent="G5CNpF1ZyAMZ08ovfX3D-7" vertex="1">
                    <mxGeometry x="209.88095238095238" y="45.171957674924585" width="56.3095238095238" height="16.132649971401975" as="geometry"/>
                </mxCell>
                <mxCell id="G5CNpF1ZyAMZ08ovfX3D-17" value="&lt;font face=&quot;Comic Sans MS&quot;&gt;Change Central&lt;/font&gt;" style="rounded=1;whiteSpace=wrap;html=1;fillColor=#FFFFFF;" parent="G5CNpF1ZyAMZ08ovfX3D-7" vertex="1">
                    <mxGeometry x="296.90476190476187" y="45.171957674924585" width="92.14285714285714" height="16.132649971401975" as="geometry"/>
                </mxCell>
                <mxCell id="G5CNpF1ZyAMZ08ovfX3D-18" value="&lt;font face=&quot;Comic Sans MS&quot;&gt;Dataflow&lt;/font&gt;" style="rounded=1;whiteSpace=wrap;html=1;fillColor=#FFFFFF;" parent="G5CNpF1ZyAMZ08ovfX3D-7" vertex="1">
                    <mxGeometry x="122.85714285714285" y="69.37093263202753" width="92.14285714285714" height="16.132649971401975" as="geometry"/>
                </mxCell>
                <mxCell id="G5CNpF1ZyAMZ08ovfX3D-19" value="&lt;font face=&quot;Comic Sans MS&quot;&gt;Lake&lt;/font&gt;" style="rounded=1;whiteSpace=wrap;html=1;fillColor=#FFFFFF;" parent="G5CNpF1ZyAMZ08ovfX3D-7" vertex="1">
                    <mxGeometry x="225.2380952380952" y="69.37093263202753" width="92.14285714285714" height="16.132649971401975" as="geometry"/>
                </mxCell>
                <mxCell id="G5CNpF1ZyAMZ08ovfX3D-20" value="&lt;font style=&quot;font-size: 12px;&quot;&gt;Common Services -multiple product integration&lt;/font&gt;" style="text;html=1;strokeColor=none;fillColor=none;align=center;verticalAlign=middle;whiteSpace=wrap;rounded=0;fontFamily=Comic Sans MS;fontSize=24;" parent="G5CNpF1ZyAMZ08ovfX3D-6" vertex="1">
                    <mxGeometry x="24.64" width="350" height="20.972444962822568" as="geometry"/>
                </mxCell>
                <mxCell id="G5CNpF1ZyAMZ08ovfX3D-21" value="" style="group" parent="1" vertex="1" connectable="0">
                    <mxGeometry x="88.53" y="-938.1627272727271" width="330.99545454545455" height="384.01" as="geometry"/>
                </mxCell>
                <mxCell id="0Som-wI_wgkEfMMIxSo--5" value="" style="group" parent="G5CNpF1ZyAMZ08ovfX3D-21" vertex="1" connectable="0">
                    <mxGeometry x="-61.3" y="100" width="392.29" height="284.01" as="geometry"/>
                </mxCell>
                <mxCell id="G5CNpF1ZyAMZ08ovfX3D-22" value="" style="shape=dataStorage;whiteSpace=wrap;html=1;fixedSize=1;strokeColor=#0066CC;fontFamily=Comic Sans MS;fontSize=12;fillColor=#CCFFFF;rotation=90;" parent="0Som-wI_wgkEfMMIxSo--5" vertex="1">
                    <mxGeometry x="123.44" y="-118.7" width="153.44" height="402.71" as="geometry"/>
                </mxCell>
                <mxCell id="G5CNpF1ZyAMZ08ovfX3D-23" value="&lt;font style=&quot;font-size: 12px;&quot;&gt;Business Services -1 codebase&amp;nbsp;&lt;/font&gt;" style="text;html=1;strokeColor=none;fillColor=none;align=center;verticalAlign=middle;whiteSpace=wrap;rounded=0;fontFamily=Comic Sans MS;fontSize=24;" parent="0Som-wI_wgkEfMMIxSo--5" vertex="1">
                    <mxGeometry x="91.14524332591772" width="239.99944382647385" height="41.31883604866984" as="geometry"/>
                </mxCell>
                <mxCell id="G5CNpF1ZyAMZ08ovfX3D-24" value="&lt;font face=&quot;Comic Sans MS&quot;&gt;Domain Specific Service1&lt;/font&gt;" style="rounded=1;whiteSpace=wrap;html=1;fillColor=#FFFFFF;" parent="0Som-wI_wgkEfMMIxSo--5" vertex="1">
                    <mxGeometry x="91.14524332591772" y="41.31883604866986" width="149.99965239154616" height="36.21282738709013" as="geometry"/>
                </mxCell>
                <mxCell id="G5CNpF1ZyAMZ08ovfX3D-25" value="&lt;font face=&quot;Comic Sans MS&quot;&gt;Domain Specific Service2&lt;/font&gt;" style="rounded=1;whiteSpace=wrap;html=1;fillColor=#FFFFFF;" parent="0Som-wI_wgkEfMMIxSo--5" vertex="1">
                    <mxGeometry x="121.14517380422696" y="77.53166343576" width="149.99965239154616" height="36.21282738709013" as="geometry"/>
                </mxCell>
                <mxCell id="G5CNpF1ZyAMZ08ovfX3D-26" value="......" style="text;html=1;strokeColor=none;fillColor=none;align=center;verticalAlign=middle;whiteSpace=wrap;rounded=0;fontFamily=Comic Sans MS;" parent="0Som-wI_wgkEfMMIxSo--5" vertex="1">
                    <mxGeometry x="281.1448030218762" y="77.53166343576" width="59.99986095661846" height="36.21282738709013" as="geometry"/>
                </mxCell>
                <mxCell id="0Som-wI_wgkEfMMIxSo--9" value="Distributed Federated Data Management" style="rounded=1;whiteSpace=wrap;html=1;strokeColor=#0066CC;fontFamily=Comic Sans MS;fontSize=12;fillColor=#CCFFFF;" parent="G5CNpF1ZyAMZ08ovfX3D-21" vertex="1">
                    <mxGeometry x="-63.650000000000006" y="18.162727272727125" width="390" height="20" as="geometry"/>
                </mxCell>
                <mxCell id="0Som-wI_wgkEfMMIxSo--7" value="Data Connectors" style="rounded=1;whiteSpace=wrap;html=1;strokeColor=#0066CC;fontFamily=Comic Sans MS;fontSize=12;fillColor=#CCFFFF;" parent="1" vertex="1">
                    <mxGeometry x="24.88" y="-860" width="390" height="20" as="geometry"/>
                </mxCell>
                <mxCell id="0Som-wI_wgkEfMMIxSo--8" value="Harmonized Data Definition(Meta Data)" style="rounded=1;whiteSpace=wrap;html=1;strokeColor=#0066CC;fontFamily=Comic Sans MS;fontSize=12;fillColor=#CCFFFF;" parent="1" vertex="1">
                    <mxGeometry x="24.879999999999995" y="-890" width="390" height="20" as="geometry"/>
                </mxCell>
                <mxCell id="0Som-wI_wgkEfMMIxSo--10" value="Harmonized Process Definition(data+business)" style="rounded=1;whiteSpace=wrap;html=1;strokeColor=#0066CC;fontFamily=Comic Sans MS;fontSize=12;fillColor=#CCFFFF;" parent="1" vertex="1">
                    <mxGeometry x="24.879999999999995" y="-950" width="390" height="20" as="geometry"/>
                </mxCell>
                <mxCell id="rhu3JGB3BehPXXvO0az0-4" value="" style="group" parent="1" vertex="1" connectable="0">
                    <mxGeometry x="254.01" y="-1136" width="169.99" height="170" as="geometry"/>
                </mxCell>
                <mxCell id="0Som-wI_wgkEfMMIxSo--12" value="" style="rounded=1;whiteSpace=wrap;html=1;strokeColor=#0066CC;fontFamily=Comic Sans MS;fontSize=12;fillColor=#CCFFFF;" parent="rhu3JGB3BehPXXvO0az0-4" vertex="1">
                    <mxGeometry width="169.99" height="170" as="geometry"/>
                </mxCell>
                <mxCell id="rhu3JGB3BehPXXvO0az0-3" value="" style="group" parent="rhu3JGB3BehPXXvO0az0-4" vertex="1" connectable="0">
                    <mxGeometry x="9.759999999999991" y="10" width="150.23000000000002" height="150" as="geometry"/>
                </mxCell>
                <mxCell id="0Som-wI_wgkEfMMIxSo--40" value="&lt;font style=&quot;font-size: 9px;&quot;&gt;Management &amp;amp;&amp;amp; Monitoring&lt;/font&gt;" style="rounded=1;whiteSpace=wrap;html=1;strokeColor=#0066CC;fontFamily=Comic Sans MS;fontSize=12;fillColor=#FFFFCC;" parent="rhu3JGB3BehPXXvO0az0-3" vertex="1">
                    <mxGeometry x="0.2300000000000182" y="120" width="150" height="30" as="geometry"/>
                </mxCell>
                <mxCell id="rhu3JGB3BehPXXvO0az0-1" value="&lt;font style=&quot;font-size: 9px;&quot;&gt;Multiagent Context&lt;/font&gt;" style="rounded=1;whiteSpace=wrap;html=1;strokeColor=#0066CC;fontFamily=Comic Sans MS;fontSize=12;fillColor=#FFFFCC;" parent="rhu3JGB3BehPXXvO0az0-3" vertex="1">
                    <mxGeometry x="0.2300000000000182" y="60" width="150" height="30" as="geometry"/>
                </mxCell>
                <mxCell id="rhu3JGB3BehPXXvO0az0-2" value="&lt;font style=&quot;font-size: 9px;&quot;&gt;Multiagent Orchestration&lt;/font&gt;" style="rounded=1;whiteSpace=wrap;html=1;strokeColor=#0066CC;fontFamily=Comic Sans MS;fontSize=12;fillColor=#FFFFCC;" parent="rhu3JGB3BehPXXvO0az0-3" vertex="1">
                    <mxGeometry width="150" height="30" as="geometry"/>
                </mxCell>
                <mxCell id="rhu3JGB3BehPXXvO0az0-5" value="" style="group" parent="1" vertex="1" connectable="0">
                    <mxGeometry x="18" y="-1150" width="230" height="190" as="geometry"/>
                </mxCell>
                <mxCell id="0Som-wI_wgkEfMMIxSo--11" value="" style="rounded=1;whiteSpace=wrap;html=1;strokeColor=#0066CC;fontFamily=Comic Sans MS;fontSize=12;fillColor=#CCFFFF;direction=south;" parent="rhu3JGB3BehPXXvO0az0-5" vertex="1">
                    <mxGeometry width="230" height="190" as="geometry"/>
                </mxCell>
                <mxCell id="0Som-wI_wgkEfMMIxSo--13" value="AI Agent" style="shape=umlActor;verticalLabelPosition=bottom;verticalAlign=top;html=1;outlineConnect=0;strokeColor=#0066CC;fontFamily=Comic Sans MS;fontSize=12;fillColor=#CCFFFF;" parent="rhu3JGB3BehPXXvO0az0-5" vertex="1">
                    <mxGeometry x="32" y="136.0000000000001" width="18" height="26.36" as="geometry"/>
                </mxCell>
                <mxCell id="0Som-wI_wgkEfMMIxSo--25" value="AI Agent" style="shape=umlActor;verticalLabelPosition=bottom;verticalAlign=top;html=1;outlineConnect=0;strokeColor=#0066CC;fontFamily=Comic Sans MS;fontSize=12;fillColor=#CCFFFF;" parent="rhu3JGB3BehPXXvO0az0-5" vertex="1">
                    <mxGeometry x="98" y="136.0000000000001" width="18" height="26.36" as="geometry"/>
                </mxCell>
                <mxCell id="0Som-wI_wgkEfMMIxSo--26" value="AI Agent" style="shape=umlActor;verticalLabelPosition=bottom;verticalAlign=top;html=1;outlineConnect=0;strokeColor=#0066CC;fontFamily=Comic Sans MS;fontSize=12;fillColor=#CCFFFF;" parent="rhu3JGB3BehPXXvO0az0-5" vertex="1">
                    <mxGeometry x="163.17000000000002" y="136.0000000000001" width="18" height="26.36" as="geometry"/>
                </mxCell>
                <mxCell id="0Som-wI_wgkEfMMIxSo--27" value="Businnes Outcome Metric Tree" style="text;html=1;strokeColor=none;fillColor=none;align=center;verticalAlign=middle;whiteSpace=wrap;rounded=0;fontFamily=Comic Sans MS;fontSize=12;" parent="rhu3JGB3BehPXXvO0az0-5" vertex="1">
                    <mxGeometry x="5.59" y="10" width="178.83" height="30" as="geometry"/>
                </mxCell>
                <mxCell id="0Som-wI_wgkEfMMIxSo--28" value="KPA1" style="rounded=1;whiteSpace=wrap;html=1;strokeColor=#0066CC;fontFamily=Comic Sans MS;fontSize=12;fillColor=#FFFFCC;" parent="rhu3JGB3BehPXXvO0az0-5" vertex="1">
                    <mxGeometry x="10.479999999999997" y="40" width="70" height="20" as="geometry"/>
                </mxCell>
                <mxCell id="0Som-wI_wgkEfMMIxSo--29" value="KPA2" style="rounded=1;whiteSpace=wrap;html=1;strokeColor=#0066CC;fontFamily=Comic Sans MS;fontSize=12;fillColor=#FFFFCC;" parent="rhu3JGB3BehPXXvO0az0-5" vertex="1">
                    <mxGeometry x="4.880000000000003" y="80" width="70" height="20" as="geometry"/>
                </mxCell>
                <mxCell id="0Som-wI_wgkEfMMIxSo--35" style="edgeStyle=none;html=1;fontFamily=Comic Sans MS;fontSize=12;" parent="rhu3JGB3BehPXXvO0az0-5" source="0Som-wI_wgkEfMMIxSo--28" target="0Som-wI_wgkEfMMIxSo--29" edge="1">
                    <mxGeometry relative="1" as="geometry"/>
                </mxCell>
                <mxCell id="0Som-wI_wgkEfMMIxSo--30" value="KPA3" style="rounded=1;whiteSpace=wrap;html=1;strokeColor=#0066CC;fontFamily=Comic Sans MS;fontSize=12;fillColor=#FFFFCC;" parent="rhu3JGB3BehPXXvO0az0-5" vertex="1">
                    <mxGeometry x="86" y="80" width="70" height="20" as="geometry"/>
                </mxCell>
                <mxCell id="0Som-wI_wgkEfMMIxSo--34" style="edgeStyle=none;html=1;entryX=0.5;entryY=0;entryDx=0;entryDy=0;fontFamily=Comic Sans MS;fontSize=12;exitX=0.75;exitY=1;exitDx=0;exitDy=0;" parent="rhu3JGB3BehPXXvO0az0-5" source="0Som-wI_wgkEfMMIxSo--28" target="0Som-wI_wgkEfMMIxSo--30" edge="1">
                    <mxGeometry relative="1" as="geometry">
                        <mxPoint x="50" y="70" as="sourcePoint"/>
                    </mxGeometry>
                </mxCell>
                <mxCell id="0Som-wI_wgkEfMMIxSo--31" value="KPA4" style="rounded=1;whiteSpace=wrap;html=1;strokeColor=#0066CC;fontFamily=Comic Sans MS;fontSize=12;fillColor=#FFFFCC;" parent="rhu3JGB3BehPXXvO0az0-5" vertex="1">
                    <mxGeometry x="4.880000000000003" y="110" width="70" height="20" as="geometry"/>
                </mxCell>
                <mxCell id="0Som-wI_wgkEfMMIxSo--36" style="edgeStyle=none;html=1;fontFamily=Comic Sans MS;fontSize=12;" parent="rhu3JGB3BehPXXvO0az0-5" source="0Som-wI_wgkEfMMIxSo--29" target="0Som-wI_wgkEfMMIxSo--31" edge="1">
                    <mxGeometry relative="1" as="geometry"/>
                </mxCell>
                <mxCell id="0Som-wI_wgkEfMMIxSo--32" value="KPA4" style="rounded=1;whiteSpace=wrap;html=1;strokeColor=#0066CC;fontFamily=Comic Sans MS;fontSize=12;fillColor=#FFFFCC;" parent="rhu3JGB3BehPXXvO0az0-5" vertex="1">
                    <mxGeometry x="81.17000000000002" y="110" width="70" height="20" as="geometry"/>
                </mxCell>
                <mxCell id="0Som-wI_wgkEfMMIxSo--37" style="edgeStyle=none;html=1;entryX=0.5;entryY=0;entryDx=0;entryDy=0;fontFamily=Comic Sans MS;fontSize=12;" parent="rhu3JGB3BehPXXvO0az0-5" source="0Som-wI_wgkEfMMIxSo--29" target="0Som-wI_wgkEfMMIxSo--32" edge="1">
                    <mxGeometry relative="1" as="geometry"/>
                </mxCell>
                <mxCell id="0Som-wI_wgkEfMMIxSo--39" value="Agents working on KPA's of business model" style="text;html=1;strokeColor=none;fillColor=none;align=center;verticalAlign=middle;whiteSpace=wrap;rounded=0;fontFamily=Comic Sans MS;fontSize=12;" parent="rhu3JGB3BehPXXvO0az0-5" vertex="1">
                    <mxGeometry x="149" y="40" width="81" height="80" as="geometry"/>
                </mxCell>
                <mxCell id="04zfOeeYEFY4NSv_LnUe-2" value="&lt;b&gt;&lt;font style=&quot;font-size: 12px;&quot;&gt;Agent Control Framework&lt;/font&gt;&lt;/b&gt;" style="text;html=1;strokeColor=none;fillColor=none;align=center;verticalAlign=middle;whiteSpace=wrap;rounded=0;fontFamily=Times New Roman;fontSize=9;rotation=-90;" parent="1" vertex="1">
                    <mxGeometry x="370" y="-1060" width="143.23" height="30" as="geometry"/>
                </mxCell>
                <mxCell id="04zfOeeYEFY4NSv_LnUe-5" value="&lt;b&gt;&lt;font style=&quot;font-size: 12px;&quot;&gt;AI ReadyData Plane&amp;nbsp;&lt;/font&gt;&lt;/b&gt;" style="text;html=1;strokeColor=none;fillColor=none;align=center;verticalAlign=middle;whiteSpace=wrap;rounded=0;fontFamily=Times New Roman;fontSize=9;rotation=-90;" parent="1" vertex="1">
                    <mxGeometry x="357.75" y="-909.4" width="155.5" height="30" as="geometry"/>
                </mxCell>
                <mxCell id="2CuSADO_GvNy7Pb8LybT-1" value="" style="group" parent="1" vertex="1" connectable="0">
                    <mxGeometry x="470" y="-980" width="120" height="358.5" as="geometry"/>
                </mxCell>
                <mxCell id="2CuSADO_GvNy7Pb8LybT-2" value="" style="rounded=1;whiteSpace=wrap;html=1;fillColor=#EEE2E2;" parent="2CuSADO_GvNy7Pb8LybT-1" vertex="1">
                    <mxGeometry width="120" height="358.5" as="geometry"/>
                </mxCell>
                <mxCell id="2CuSADO_GvNy7Pb8LybT-3" value="&lt;font style=&quot;font-size: 14px;&quot;&gt;&lt;b&gt;Data Services&lt;/b&gt;&lt;/font&gt;" style="text;html=1;strokeColor=none;fillColor=none;align=center;verticalAlign=middle;whiteSpace=wrap;rounded=0;fontFamily=Comic Sans MS;fontSize=8;" parent="2CuSADO_GvNy7Pb8LybT-1" vertex="1">
                    <mxGeometry x="9" y="12.221590909090908" width="100" height="24.443181818181817" as="geometry"/>
                </mxCell>
                <mxCell id="2CuSADO_GvNy7Pb8LybT-4" value="&lt;font style=&quot;&quot;&gt;&lt;b style=&quot;&quot;&gt;&lt;font style=&quot;font-size: 10px;&quot;&gt;Search&lt;br&gt;(ES)&lt;/font&gt;&lt;/b&gt;&lt;br&gt;&lt;/font&gt;" style="shape=datastore;whiteSpace=wrap;html=1;strokeColor=#0066CC;fontFamily=Comic Sans MS;fontSize=14;fillColor=#FFCCE6;" parent="2CuSADO_GvNy7Pb8LybT-1" vertex="1">
                    <mxGeometry x="29" y="40.73863636363636" width="60" height="48.88636363636363" as="geometry"/>
                </mxCell>
                <mxCell id="2CuSADO_GvNy7Pb8LybT-5" value="&lt;font style=&quot;&quot;&gt;&lt;font style=&quot;font-size: 10px;&quot;&gt;&lt;b&gt;Postgresql&lt;/b&gt;&lt;/font&gt;&lt;br&gt;&lt;/font&gt;" style="shape=datastore;whiteSpace=wrap;html=1;strokeColor=#0066CC;fontFamily=Comic Sans MS;fontSize=14;fillColor=#FFCCE6;" parent="2CuSADO_GvNy7Pb8LybT-1" vertex="1">
                    <mxGeometry x="30" y="114.06818181818181" width="60" height="48.88636363636363" as="geometry"/>
                </mxCell>
                <mxCell id="2CuSADO_GvNy7Pb8LybT-6" value="&lt;font style=&quot;&quot;&gt;&lt;font style=&quot;font-size: 10px;&quot;&gt;&lt;b&gt;Ehcache&lt;/b&gt;&lt;/font&gt;&lt;br&gt;&lt;/font&gt;" style="shape=datastore;whiteSpace=wrap;html=1;strokeColor=#0066CC;fontFamily=Comic Sans MS;fontSize=14;fillColor=#FFCCE6;" parent="2CuSADO_GvNy7Pb8LybT-1" vertex="1">
                    <mxGeometry x="30" y="195.54545454545453" width="60" height="48.88636363636363" as="geometry"/>
                </mxCell>
                <mxCell id="2CuSADO_GvNy7Pb8LybT-7" value="&lt;font style=&quot;&quot;&gt;&lt;font style=&quot;font-size: 10px;&quot;&gt;&lt;b&gt;Neo4j&lt;/b&gt;&lt;/font&gt;&lt;br&gt;&lt;/font&gt;" style="shape=datastore;whiteSpace=wrap;html=1;strokeColor=#0066CC;fontFamily=Comic Sans MS;fontSize=14;fillColor=#FFCCE6;" parent="2CuSADO_GvNy7Pb8LybT-1" vertex="1">
                    <mxGeometry x="30" y="264.8011363636364" width="60" height="48.88636363636363" as="geometry"/>
                </mxCell>
                <mxCell id="2CuSADO_GvNy7Pb8LybT-8" value="&lt;font style=&quot;font-size: 24px;&quot;&gt;.....&lt;/font&gt;" style="text;html=1;strokeColor=none;fillColor=none;align=center;verticalAlign=middle;whiteSpace=wrap;rounded=0;fontFamily=Comic Sans MS;fontSize=6;" parent="2CuSADO_GvNy7Pb8LybT-1" vertex="1">
                    <mxGeometry x="49" y="321.83522727272725" width="60" height="24.443181818181817" as="geometry"/>
                </mxCell>
                <mxCell id="2CuSADO_GvNy7Pb8LybT-9" value="" style="group" parent="1" vertex="1" connectable="0">
                    <mxGeometry x="-170" y="-1070" width="80" height="420" as="geometry"/>
                </mxCell>
                <mxCell id="G5CNpF1ZyAMZ08ovfX3D-27" value="" style="rounded=1;whiteSpace=wrap;html=1;fillColor=#EEE2E2;" parent="2CuSADO_GvNy7Pb8LybT-9" vertex="1">
                    <mxGeometry width="80" height="420" as="geometry"/>
                </mxCell>
                <mxCell id="G5CNpF1ZyAMZ08ovfX3D-29" value="Mobile client" style="sketch=0;outlineConnect=0;fontColor=#232F3E;gradientColor=none;strokeColor=#232F3E;fillColor=#EEE2E2;dashed=0;verticalLabelPosition=bottom;verticalAlign=top;align=center;html=1;fontSize=12;fontStyle=0;aspect=fixed;shape=mxgraph.aws4.resourceIcon;resIcon=mxgraph.aws4.mobile_client;fontFamily=Comic Sans MS;" parent="2CuSADO_GvNy7Pb8LybT-9" vertex="1">
                    <mxGeometry x="13" width="60" height="60" as="geometry"/>
                </mxCell>
                <mxCell id="G5CNpF1ZyAMZ08ovfX3D-31" value="Applications" style="sketch=0;points=[[0,0,0],[0.25,0,0],[0.5,0,0],[0.75,0,0],[1,0,0],[0,1,0],[0.25,1,0],[0.5,1,0],[0.75,1,0],[1,1,0],[0,0.25,0],[0,0.5,0],[0,0.75,0],[1,0.25,0],[1,0.5,0],[1,0.75,0]];outlineConnect=0;fontColor=#232F3E;gradientColor=#F54749;gradientDirection=north;fillColor=#FFCCFF;strokeColor=#ffffff;dashed=0;verticalLabelPosition=bottom;verticalAlign=top;align=center;html=1;fontSize=12;fontStyle=0;aspect=fixed;shape=mxgraph.aws4.resourceIcon;resIcon=mxgraph.aws4.amplify;fontFamily=Comic Sans MS;" parent="2CuSADO_GvNy7Pb8LybT-9" vertex="1">
                    <mxGeometry x="18" y="100" width="50" height="50" as="geometry"/>
                </mxCell>
                <mxCell id="G5CNpF1ZyAMZ08ovfX3D-33" value="Dashboards&lt;br&gt;" style="sketch=0;points=[[0,0,0],[0.25,0,0],[0.5,0,0],[0.75,0,0],[1,0,0],[0,1,0],[0.25,1,0],[0.5,1,0],[0.75,1,0],[1,1,0],[0,0.25,0],[0,0.5,0],[0,0.75,0],[1,0.25,0],[1,0.5,0],[1,0.75,0]];points=[[0,0,0],[0.25,0,0],[0.5,0,0],[0.75,0,0],[1,0,0],[0,1,0],[0.25,1,0],[0.5,1,0],[0.75,1,0],[1,1,0],[0,0.25,0],[0,0.5,0],[0,0.75,0],[1,0.25,0],[1,0.5,0],[1,0.75,0]];outlineConnect=0;fontColor=#232F3E;gradientColor=#F34482;gradientDirection=north;fillColor=#FFCCFF;strokeColor=#ffffff;dashed=0;verticalLabelPosition=bottom;verticalAlign=top;align=center;html=1;fontSize=12;fontStyle=0;aspect=fixed;shape=mxgraph.aws4.resourceIcon;resIcon=mxgraph.aws4.personal_health_dashboard;fontFamily=Comic Sans MS;" parent="2CuSADO_GvNy7Pb8LybT-9" vertex="1">
                    <mxGeometry x="21" y="270" width="44" height="44" as="geometry"/>
                </mxCell>
                <mxCell id="G5CNpF1ZyAMZ08ovfX3D-35" value="CLI" style="sketch=0;points=[[0,0,0],[0.25,0,0],[0.5,0,0],[0.75,0,0],[1,0,0],[0,1,0],[0.25,1,0],[0.5,1,0],[0.75,1,0],[1,1,0],[0,0.25,0],[0,0.5,0],[0,0.75,0],[1,0.25,0],[1,0.5,0],[1,0.75,0]];outlineConnect=0;fontColor=#232F3E;gradientColor=#F78E04;gradientDirection=north;fillColor=#D05C17;strokeColor=#ffffff;dashed=0;verticalLabelPosition=bottom;verticalAlign=top;align=center;html=1;fontSize=12;fontStyle=0;aspect=fixed;shape=mxgraph.aws4.resourceIcon;resIcon=mxgraph.aws4.genomics_cli;fontFamily=Comic Sans MS;" parent="2CuSADO_GvNy7Pb8LybT-9" vertex="1">
                    <mxGeometry x="16" y="350" width="48" height="48" as="geometry"/>
                </mxCell>
                <mxCell id="0Som-wI_wgkEfMMIxSo--1" value="Human Query" style="shape=mxgraph.cisco.people.man_woman;html=1;pointerEvents=1;dashed=0;fillColor=#036897;strokeColor=#ffffff;strokeWidth=2;verticalLabelPosition=bottom;verticalAlign=top;align=center;outlineConnect=0;fontFamily=Comic Sans MS;fontSize=8;" parent="2CuSADO_GvNy7Pb8LybT-9" vertex="1">
                    <mxGeometry x="25" y="190" width="30" height="40" as="geometry"/>
                </mxCell>
                <mxCell id="2CuSADO_GvNy7Pb8LybT-10" value="" style="edgeStyle=none;html=1;fontFamily=Comic Sans MS;fontSize=10;" parent="1" source="G5CNpF1ZyAMZ08ovfX3D-27" target="G5CNpF1ZyAMZ08ovfX3D-38" edge="1">
                    <mxGeometry relative="1" as="geometry"/>
                </mxCell>
                <mxCell id="2CuSADO_GvNy7Pb8LybT-12" value="&lt;b&gt;&lt;font style=&quot;font-size: 18px;&quot;&gt;Federated Data Layer Added to make Agentic and AI Native&lt;/font&gt;&lt;/b&gt;" style="text;html=1;strokeColor=none;fillColor=none;align=center;verticalAlign=middle;whiteSpace=wrap;rounded=0;fontFamily=Comic Sans MS;fontSize=10;" parent="1" vertex="1">
                    <mxGeometry x="-170" y="-1140" width="150" height="30" as="geometry"/>
                </mxCell>
                <mxCell id="_Lbp-MhDQG6pdM6gClgB-1" value="" style="endArrow=classic;startArrow=classic;html=1;fontFamily=Comic Sans MS;fontSize=12;" parent="1" edge="1">
                    <mxGeometry width="50" height="50" relative="1" as="geometry">
                        <mxPoint x="429" y="-1025" as="sourcePoint"/>
                        <mxPoint x="429" y="-1105" as="targetPoint"/>
                    </mxGeometry>
                </mxCell>
                <mxCell id="_Lbp-MhDQG6pdM6gClgB-2" value="" style="endArrow=classic;startArrow=classic;html=1;fontFamily=Comic Sans MS;fontSize=12;" parent="1" edge="1">
                    <mxGeometry width="50" height="50" relative="1" as="geometry">
                        <mxPoint x="420" y="-840" as="sourcePoint"/>
                        <mxPoint x="420" y="-960" as="targetPoint"/>
                    </mxGeometry>
                </mxCell>
                <mxCell id="wQcfAghHlZWnuX78vyx2-1" value="Phase 1 transformation" style="shape=document;whiteSpace=wrap;html=1;boundedLbl=1;strokeColor=#0066CC;fontFamily=Comic Sans MS;fontSize=12;fillColor=#E6E6E6;" parent="1" vertex="1">
                    <mxGeometry x="469" y="-1110" width="111" height="80" as="geometry"/>
                </mxCell>
            </root>
        </mxGraphModel>
    </diagram>
    <diagram id="AdO2sA35msm-YUNLNADW" name="Monolith">
        <mxGraphModel dx="1872" dy="2035" grid="1" gridSize="10" guides="1" tooltips="1" connect="1" arrows="1" fold="1" page="1" pageScale="1" pageWidth="1100" pageHeight="850" math="0" shadow="0">
            <root>
                <mxCell id="0"/>
                <mxCell id="1" parent="0"/>
                <mxCell id="8sP9y6pPTWbFlFQFhmkR-11" value="" style="group" parent="1" vertex="1" connectable="0">
                    <mxGeometry x="-30" y="-860" width="420" height="350" as="geometry"/>
                </mxCell>
                <mxCell id="8sP9y6pPTWbFlFQFhmkR-12" value="" style="rounded=1;whiteSpace=wrap;html=1;fillColor=#EEE2E2;" parent="8sP9y6pPTWbFlFQFhmkR-11" vertex="1">
                    <mxGeometry width="419.99999999999994" height="349.99999999999994" as="geometry"/>
                </mxCell>
                <mxCell id="8sP9y6pPTWbFlFQFhmkR-24" value="" style="group" parent="8sP9y6pPTWbFlFQFhmkR-11" vertex="1" connectable="0">
                    <mxGeometry x="19.999999999999996" y="206.8181818181818" width="380" height="143.1818181818182" as="geometry"/>
                </mxCell>
                <mxCell id="8sP9y6pPTWbFlFQFhmkR-38" value="......" style="text;html=1;strokeColor=none;fillColor=none;align=center;verticalAlign=middle;whiteSpace=wrap;rounded=0;fontFamily=Comic Sans MS;" parent="8sP9y6pPTWbFlFQFhmkR-24" vertex="1">
                    <mxGeometry x="310" y="87.19405594405593" width="60" height="27.534965034965033" as="geometry"/>
                </mxCell>
                <mxCell id="8sP9y6pPTWbFlFQFhmkR-58" value="" style="group" parent="8sP9y6pPTWbFlFQFhmkR-11" vertex="1" connectable="0">
                    <mxGeometry x="20.00186046511628" y="182.95454545454547" width="390.0041860465116" height="163.6806818181818" as="geometry"/>
                </mxCell>
                <mxCell id="8sP9y6pPTWbFlFQFhmkR-57" value="" style="group" parent="8sP9y6pPTWbFlFQFhmkR-58" vertex="1" connectable="0">
                    <mxGeometry y="15.909090909090908" width="390.0041860465116" height="147.7715909090909" as="geometry"/>
                </mxCell>
                <mxCell id="8sP9y6pPTWbFlFQFhmkR-54" value="" style="shape=document;whiteSpace=wrap;html=1;boundedLbl=1;strokeColor=#0066CC;fontFamily=Comic Sans MS;fontSize=24;fillColor=#FFCCE6;" parent="8sP9y6pPTWbFlFQFhmkR-57" vertex="1">
                    <mxGeometry y="-15.909090909090903" width="390.0041860465116" height="163.68068181818177" as="geometry"/>
                </mxCell>
                <mxCell id="8sP9y6pPTWbFlFQFhmkR-27" value="&lt;font face=&quot;Comic Sans MS&quot;&gt;SEARCH&lt;/font&gt;" style="rounded=1;whiteSpace=wrap;html=1;fillColor=#FFFFFF;" parent="8sP9y6pPTWbFlFQFhmkR-57" vertex="1">
                    <mxGeometry x="19.999999999999996" y="23.864248251748247" width="70" height="18.356643356643346" as="geometry"/>
                </mxCell>
                <mxCell id="8sP9y6pPTWbFlFQFhmkR-28" value="&lt;font face=&quot;Comic Sans MS&quot;&gt;Security/RBAC&lt;/font&gt;" style="rounded=1;whiteSpace=wrap;html=1;" parent="8sP9y6pPTWbFlFQFhmkR-57" vertex="1">
                    <mxGeometry x="100" y="23.864248251748247" width="100" height="18.356643356643346" as="geometry"/>
                </mxCell>
                <mxCell id="8sP9y6pPTWbFlFQFhmkR-29" value="&lt;font face=&quot;Comic Sans MS&quot;&gt;CMS&lt;/font&gt;" style="rounded=1;whiteSpace=wrap;html=1;fillColor=#FFFFFF;" parent="8sP9y6pPTWbFlFQFhmkR-57" vertex="1">
                    <mxGeometry x="210" y="23.864248251748247" width="50" height="18.356643356643346" as="geometry"/>
                </mxCell>
                <mxCell id="8sP9y6pPTWbFlFQFhmkR-30" value="&lt;font face=&quot;Comic Sans MS&quot;&gt;DMS&lt;/font&gt;" style="rounded=1;whiteSpace=wrap;html=1;fillColor=#FFFFFF;" parent="8sP9y6pPTWbFlFQFhmkR-57" vertex="1">
                    <mxGeometry x="277.49999999999994" y="23.864248251748247" width="50" height="18.356643356643346" as="geometry"/>
                </mxCell>
                <mxCell id="8sP9y6pPTWbFlFQFhmkR-31" value="&lt;font face=&quot;Comic Sans MS&quot;&gt;Workflows&lt;/font&gt;" style="rounded=1;whiteSpace=wrap;html=1;fillColor=#FFFFFF;" parent="8sP9y6pPTWbFlFQFhmkR-57" vertex="1">
                    <mxGeometry x="19.999999999999996" y="51.39921328671327" width="70" height="18.356643356643346" as="geometry"/>
                </mxCell>
                <mxCell id="8sP9y6pPTWbFlFQFhmkR-32" value="&lt;font face=&quot;Comic Sans MS&quot;&gt;Policy Engine&lt;/font&gt;" style="rounded=1;whiteSpace=wrap;html=1;fillColor=#FFFFFF;" parent="8sP9y6pPTWbFlFQFhmkR-57" vertex="1">
                    <mxGeometry x="100" y="51.39921328671327" width="79.99999999999999" height="18.356643356643346" as="geometry"/>
                </mxCell>
                <mxCell id="8sP9y6pPTWbFlFQFhmkR-33" value="&lt;font face=&quot;Comic Sans MS&quot;&gt;ESB&lt;/font&gt;" style="rounded=1;whiteSpace=wrap;html=1;fillColor=#FFFFFF;" parent="8sP9y6pPTWbFlFQFhmkR-57" vertex="1">
                    <mxGeometry x="19.999999999999996" y="83.52333916083913" width="79.99999999999999" height="18.356643356643346" as="geometry"/>
                </mxCell>
                <mxCell id="8sP9y6pPTWbFlFQFhmkR-34" value="&lt;font face=&quot;Comic Sans MS&quot;&gt;Catalogue&lt;/font&gt;" style="rounded=1;whiteSpace=wrap;html=1;fillColor=#FFFFFF;" parent="8sP9y6pPTWbFlFQFhmkR-57" vertex="1">
                    <mxGeometry x="205" y="51.39921328671327" width="54.99999999999999" height="18.356643356643346" as="geometry"/>
                </mxCell>
                <mxCell id="8sP9y6pPTWbFlFQFhmkR-35" value="&lt;font face=&quot;Comic Sans MS&quot;&gt;Change Central&lt;/font&gt;" style="rounded=1;whiteSpace=wrap;html=1;fillColor=#FFFFFF;" parent="8sP9y6pPTWbFlFQFhmkR-57" vertex="1">
                    <mxGeometry x="290" y="51.39921328671327" width="90" height="18.356643356643346" as="geometry"/>
                </mxCell>
                <mxCell id="8sP9y6pPTWbFlFQFhmkR-36" value="&lt;font face=&quot;Comic Sans MS&quot;&gt;Dataflow&lt;/font&gt;" style="rounded=1;whiteSpace=wrap;html=1;fillColor=#FFFFFF;" parent="8sP9y6pPTWbFlFQFhmkR-57" vertex="1">
                    <mxGeometry x="119.99999999999999" y="78.93417832167829" width="90" height="18.356643356643346" as="geometry"/>
                </mxCell>
                <mxCell id="8sP9y6pPTWbFlFQFhmkR-37" value="&lt;font face=&quot;Comic Sans MS&quot;&gt;Lake&lt;/font&gt;" style="rounded=1;whiteSpace=wrap;html=1;fillColor=#FFFFFF;" parent="8sP9y6pPTWbFlFQFhmkR-57" vertex="1">
                    <mxGeometry x="219.99999999999997" y="78.93417832167829" width="90" height="18.356643356643346" as="geometry"/>
                </mxCell>
                <mxCell id="8sP9y6pPTWbFlFQFhmkR-55" value="&lt;font style=&quot;font-size: 12px;&quot;&gt;Common Services -multiple product integration&lt;/font&gt;" style="text;html=1;strokeColor=none;fillColor=none;align=center;verticalAlign=middle;whiteSpace=wrap;rounded=0;fontFamily=Comic Sans MS;fontSize=24;" parent="8sP9y6pPTWbFlFQFhmkR-58" vertex="1">
                    <mxGeometry x="24.066976744186046" width="341.86046511627904" height="23.86363636363636" as="geometry"/>
                </mxCell>
                <mxCell id="CqZlo_TTrdUPEtpJr883-6" value="" style="group" parent="8sP9y6pPTWbFlFQFhmkR-11" vertex="1" connectable="0">
                    <mxGeometry x="73.32418604651164" y="39.77272727272727" width="273.3418604651163" height="122.05454545454539" as="geometry"/>
                </mxCell>
                <mxCell id="CqZlo_TTrdUPEtpJr883-5" value="" style="shape=dataStorage;whiteSpace=wrap;html=1;fixedSize=1;strokeColor=#0066CC;fontFamily=Comic Sans MS;fontSize=12;fillColor=#CCFFFF;rotation=90;" parent="CqZlo_TTrdUPEtpJr883-6" vertex="1">
                    <mxGeometry x="56.778139534883714" y="-46.239772727272715" width="149.87162790697676" height="214.53409090909085" as="geometry"/>
                </mxCell>
                <mxCell id="8sP9y6pPTWbFlFQFhmkR-73" value="&lt;font style=&quot;font-size: 12px;&quot;&gt;Business Services -1 codebase&amp;nbsp;&lt;/font&gt;" style="text;html=1;strokeColor=none;fillColor=none;align=center;verticalAlign=middle;whiteSpace=wrap;rounded=0;fontFamily=Comic Sans MS;fontSize=24;" parent="CqZlo_TTrdUPEtpJr883-6" vertex="1">
                    <mxGeometry x="29.155813953488394" y="6.55454545454546" width="234.4186046511628" height="27.228409090909082" as="geometry"/>
                </mxCell>
                <mxCell id="CqZlo_TTrdUPEtpJr883-2" value="&lt;font face=&quot;Comic Sans MS&quot;&gt;Domain Specific Service1&lt;/font&gt;" style="rounded=1;whiteSpace=wrap;html=1;fillColor=#FFFFFF;" parent="CqZlo_TTrdUPEtpJr883-6" vertex="1">
                    <mxGeometry x="29.155813953488394" y="33.78295454545456" width="146.51162790697677" height="23.863636363636363" as="geometry"/>
                </mxCell>
                <mxCell id="CqZlo_TTrdUPEtpJr883-1" value="&lt;font face=&quot;Comic Sans MS&quot;&gt;Domain Specific Service2&lt;/font&gt;" style="rounded=1;whiteSpace=wrap;html=1;fillColor=#FFFFFF;" parent="CqZlo_TTrdUPEtpJr883-6" vertex="1">
                    <mxGeometry x="58.45813953488375" y="57.646590909090925" width="146.51162790697677" height="23.863636363636363" as="geometry"/>
                </mxCell>
                <mxCell id="CqZlo_TTrdUPEtpJr883-3" value="......" style="text;html=1;strokeColor=none;fillColor=none;align=center;verticalAlign=middle;whiteSpace=wrap;rounded=0;fontFamily=Comic Sans MS;" parent="CqZlo_TTrdUPEtpJr883-6" vertex="1">
                    <mxGeometry x="214.7372093023256" y="57.646590909090925" width="58.6046511627907" height="23.863636363636363" as="geometry"/>
                </mxCell>
                <mxCell id="8sP9y6pPTWbFlFQFhmkR-2" style="edgeStyle=none;html=1;fontFamily=Comic Sans MS;fontSize=24;" parent="1" source="8sP9y6pPTWbFlFQFhmkR-3" edge="1">
                    <mxGeometry relative="1" as="geometry">
                        <mxPoint x="-100" y="-720" as="targetPoint"/>
                    </mxGeometry>
                </mxCell>
                <mxCell id="8sP9y6pPTWbFlFQFhmkR-4" style="edgeStyle=none;html=1;fontFamily=Comic Sans MS;fontSize=24;" parent="1" source="8sP9y6pPTWbFlFQFhmkR-5" edge="1">
                    <mxGeometry relative="1" as="geometry">
                        <mxPoint x="-100" y="-720" as="targetPoint"/>
                    </mxGeometry>
                </mxCell>
                <mxCell id="8sP9y6pPTWbFlFQFhmkR-6" style="edgeStyle=none;html=1;fontFamily=Comic Sans MS;fontSize=24;" parent="1" source="8sP9y6pPTWbFlFQFhmkR-7" edge="1">
                    <mxGeometry relative="1" as="geometry">
                        <mxPoint x="-110" y="-720" as="targetPoint"/>
                    </mxGeometry>
                </mxCell>
                <mxCell id="8sP9y6pPTWbFlFQFhmkR-40" style="edgeStyle=none;html=1;entryX=-0.021;entryY=0.482;entryDx=0;entryDy=0;entryPerimeter=0;fontFamily=Comic Sans MS;fontSize=24;" parent="1" source="8sP9y6pPTWbFlFQFhmkR-12" target="8sP9y6pPTWbFlFQFhmkR-45" edge="1">
                    <mxGeometry relative="1" as="geometry"/>
                </mxCell>
                <mxCell id="jg9SVg9T9A-UjMyOlw0x-3" style="edgeStyle=none;html=1;fontFamily=Comic Sans MS;fontSize=8;" parent="1" source="8sP9y6pPTWbFlFQFhmkR-43" target="8sP9y6pPTWbFlFQFhmkR-12" edge="1">
                    <mxGeometry relative="1" as="geometry"/>
                </mxCell>
                <mxCell id="8sP9y6pPTWbFlFQFhmkR-43" value="API Gateway" style="sketch=0;outlineConnect=0;fontColor=#232F3E;gradientColor=none;fillColor=#B0084D;strokeColor=none;dashed=0;verticalLabelPosition=bottom;verticalAlign=top;align=center;html=1;fontSize=12;fontStyle=0;aspect=fixed;pointerEvents=1;shape=mxgraph.aws4.endpoint;fontFamily=Comic Sans MS;" parent="1" vertex="1">
                    <mxGeometry x="-70" y="-704" width="30" height="30" as="geometry"/>
                </mxCell>
                <mxCell id="8sP9y6pPTWbFlFQFhmkR-44" value="" style="group" parent="1" vertex="1" connectable="0">
                    <mxGeometry x="420" y="-860" width="120" height="340" as="geometry"/>
                </mxCell>
                <mxCell id="8sP9y6pPTWbFlFQFhmkR-45" value="" style="rounded=1;whiteSpace=wrap;html=1;fillColor=#EEE2E2;" parent="8sP9y6pPTWbFlFQFhmkR-44" vertex="1">
                    <mxGeometry width="120" height="340" as="geometry"/>
                </mxCell>
                <mxCell id="8sP9y6pPTWbFlFQFhmkR-46" value="&lt;font style=&quot;font-size: 14px;&quot;&gt;&lt;b&gt;Data Services&lt;/b&gt;&lt;/font&gt;" style="text;html=1;strokeColor=none;fillColor=none;align=center;verticalAlign=middle;whiteSpace=wrap;rounded=0;fontFamily=Comic Sans MS;fontSize=8;" parent="8sP9y6pPTWbFlFQFhmkR-44" vertex="1">
                    <mxGeometry x="9" y="11.59090909090909" width="100" height="23.18181818181818" as="geometry"/>
                </mxCell>
                <mxCell id="8sP9y6pPTWbFlFQFhmkR-47" value="&lt;font style=&quot;&quot;&gt;&lt;b style=&quot;&quot;&gt;&lt;font style=&quot;font-size: 10px;&quot;&gt;Search&lt;br&gt;(ES)&lt;/font&gt;&lt;/b&gt;&lt;br&gt;&lt;/font&gt;" style="shape=datastore;whiteSpace=wrap;html=1;strokeColor=#0066CC;fontFamily=Comic Sans MS;fontSize=14;fillColor=#FFCCE6;" parent="8sP9y6pPTWbFlFQFhmkR-44" vertex="1">
                    <mxGeometry x="29" y="38.63636363636363" width="60" height="46.36363636363636" as="geometry"/>
                </mxCell>
                <mxCell id="8sP9y6pPTWbFlFQFhmkR-48" value="&lt;font style=&quot;&quot;&gt;&lt;font style=&quot;font-size: 10px;&quot;&gt;&lt;b&gt;Postgresql&lt;/b&gt;&lt;/font&gt;&lt;br&gt;&lt;/font&gt;" style="shape=datastore;whiteSpace=wrap;html=1;strokeColor=#0066CC;fontFamily=Comic Sans MS;fontSize=14;fillColor=#FFCCE6;" parent="8sP9y6pPTWbFlFQFhmkR-44" vertex="1">
                    <mxGeometry x="30" y="108.18181818181819" width="60" height="46.36363636363636" as="geometry"/>
                </mxCell>
                <mxCell id="8sP9y6pPTWbFlFQFhmkR-50" value="&lt;font style=&quot;&quot;&gt;&lt;font style=&quot;font-size: 10px;&quot;&gt;&lt;b&gt;Ehcache&lt;/b&gt;&lt;/font&gt;&lt;br&gt;&lt;/font&gt;" style="shape=datastore;whiteSpace=wrap;html=1;strokeColor=#0066CC;fontFamily=Comic Sans MS;fontSize=14;fillColor=#FFCCE6;" parent="8sP9y6pPTWbFlFQFhmkR-44" vertex="1">
                    <mxGeometry x="30" y="185.45454545454544" width="60" height="46.36363636363636" as="geometry"/>
                </mxCell>
                <mxCell id="8sP9y6pPTWbFlFQFhmkR-51" value="&lt;font style=&quot;&quot;&gt;&lt;font style=&quot;font-size: 10px;&quot;&gt;&lt;b&gt;Neo4j&lt;/b&gt;&lt;/font&gt;&lt;br&gt;&lt;/font&gt;" style="shape=datastore;whiteSpace=wrap;html=1;strokeColor=#0066CC;fontFamily=Comic Sans MS;fontSize=14;fillColor=#FFCCE6;" parent="8sP9y6pPTWbFlFQFhmkR-44" vertex="1">
                    <mxGeometry x="30" y="251.13636363636365" width="60" height="46.36363636363636" as="geometry"/>
                </mxCell>
                <mxCell id="8sP9y6pPTWbFlFQFhmkR-52" value="&lt;font style=&quot;font-size: 24px;&quot;&gt;.....&lt;/font&gt;" style="text;html=1;strokeColor=none;fillColor=none;align=center;verticalAlign=middle;whiteSpace=wrap;rounded=0;fontFamily=Comic Sans MS;fontSize=6;" parent="8sP9y6pPTWbFlFQFhmkR-44" vertex="1">
                    <mxGeometry x="49" y="305.2272727272727" width="60" height="23.18181818181818" as="geometry"/>
                </mxCell>
                <mxCell id="kUISurI0DHJb01z6TseT-2" value="Product Current Arcitecture" style="text;html=1;strokeColor=none;fillColor=none;align=center;verticalAlign=middle;whiteSpace=wrap;rounded=0;fontFamily=Comic Sans MS;fontSize=14;" parent="1" vertex="1">
                    <mxGeometry x="10" y="-860" width="360" height="30" as="geometry"/>
                </mxCell>
                <mxCell id="kUISurI0DHJb01z6TseT-3" value="" style="group" parent="1" vertex="1" connectable="0">
                    <mxGeometry x="-170" y="-850" width="80" height="332" as="geometry"/>
                </mxCell>
                <mxCell id="8sP9y6pPTWbFlFQFhmkR-1" value="" style="rounded=1;whiteSpace=wrap;html=1;fillColor=#EEE2E2;" parent="kUISurI0DHJb01z6TseT-3" vertex="1">
                    <mxGeometry width="80" height="332" as="geometry"/>
                </mxCell>
                <mxCell id="8sP9y6pPTWbFlFQFhmkR-3" value="Mobile client" style="sketch=0;outlineConnect=0;fontColor=#232F3E;gradientColor=none;strokeColor=#232F3E;fillColor=#EEE2E2;dashed=0;verticalLabelPosition=bottom;verticalAlign=top;align=center;html=1;fontSize=12;fontStyle=0;aspect=fixed;shape=mxgraph.aws4.resourceIcon;resIcon=mxgraph.aws4.mobile_client;fontFamily=Comic Sans MS;" parent="kUISurI0DHJb01z6TseT-3" vertex="1">
                    <mxGeometry x="13" width="47.42857142857142" height="47.42857142857142" as="geometry"/>
                </mxCell>
                <mxCell id="8sP9y6pPTWbFlFQFhmkR-5" value="Applications" style="sketch=0;points=[[0,0,0],[0.25,0,0],[0.5,0,0],[0.75,0,0],[1,0,0],[0,1,0],[0.25,1,0],[0.5,1,0],[0.75,1,0],[1,1,0],[0,0.25,0],[0,0.5,0],[0,0.75,0],[1,0.25,0],[1,0.5,0],[1,0.75,0]];outlineConnect=0;fontColor=#232F3E;gradientColor=#F54749;gradientDirection=north;fillColor=#FFCCFF;strokeColor=#ffffff;dashed=0;verticalLabelPosition=bottom;verticalAlign=top;align=center;html=1;fontSize=12;fontStyle=0;aspect=fixed;shape=mxgraph.aws4.resourceIcon;resIcon=mxgraph.aws4.amplify;fontFamily=Comic Sans MS;" parent="kUISurI0DHJb01z6TseT-3" vertex="1">
                    <mxGeometry x="18" y="79.04761904761905" width="39.523809523809526" height="39.523809523809526" as="geometry"/>
                </mxCell>
                <mxCell id="8sP9y6pPTWbFlFQFhmkR-7" value="Dashboards&lt;br&gt;" style="sketch=0;points=[[0,0,0],[0.25,0,0],[0.5,0,0],[0.75,0,0],[1,0,0],[0,1,0],[0.25,1,0],[0.5,1,0],[0.75,1,0],[1,1,0],[0,0.25,0],[0,0.5,0],[0,0.75,0],[1,0.25,0],[1,0.5,0],[1,0.75,0]];points=[[0,0,0],[0.25,0,0],[0.5,0,0],[0.75,0,0],[1,0,0],[0,1,0],[0.25,1,0],[0.5,1,0],[0.75,1,0],[1,1,0],[0,0.25,0],[0,0.5,0],[0,0.75,0],[1,0.25,0],[1,0.5,0],[1,0.75,0]];outlineConnect=0;fontColor=#232F3E;gradientColor=#F34482;gradientDirection=north;fillColor=#FFCCFF;strokeColor=#ffffff;dashed=0;verticalLabelPosition=bottom;verticalAlign=top;align=center;html=1;fontSize=12;fontStyle=0;aspect=fixed;shape=mxgraph.aws4.resourceIcon;resIcon=mxgraph.aws4.personal_health_dashboard;fontFamily=Comic Sans MS;" parent="kUISurI0DHJb01z6TseT-3" vertex="1">
                    <mxGeometry x="20" y="155.7238095238095" width="34.78095238095238" height="34.78095238095238" as="geometry"/>
                </mxCell>
                <mxCell id="8sP9y6pPTWbFlFQFhmkR-10" value="CLI" style="sketch=0;points=[[0,0,0],[0.25,0,0],[0.5,0,0],[0.75,0,0],[1,0,0],[0,1,0],[0.25,1,0],[0.5,1,0],[0.75,1,0],[1,1,0],[0,0.25,0],[0,0.5,0],[0,0.75,0],[1,0.25,0],[1,0.5,0],[1,0.75,0]];outlineConnect=0;fontColor=#232F3E;gradientColor=#F78E04;gradientDirection=north;fillColor=#D05C17;strokeColor=#ffffff;dashed=0;verticalLabelPosition=bottom;verticalAlign=top;align=center;html=1;fontSize=12;fontStyle=0;aspect=fixed;shape=mxgraph.aws4.resourceIcon;resIcon=mxgraph.aws4.genomics_cli;fontFamily=Comic Sans MS;" parent="kUISurI0DHJb01z6TseT-3" vertex="1">
                    <mxGeometry x="19" y="237.1428571428571" width="37.94285714285714" height="37.94285714285714" as="geometry"/>
                </mxCell>
                <mxCell id="jg9SVg9T9A-UjMyOlw0x-1" value="" style="edgeStyle=none;html=1;fontFamily=Comic Sans MS;fontSize=8;" parent="1" source="8sP9y6pPTWbFlFQFhmkR-1" target="8sP9y6pPTWbFlFQFhmkR-43" edge="1">
                    <mxGeometry relative="1" as="geometry"/>
                </mxCell>
            </root>
        </mxGraphModel>
    </diagram>
    <diagram id="-6TX8ZRkARZB5z5JyYT1" name="Competitor Analysys">
        <mxGraphModel dx="772" dy="335" grid="1" gridSize="10" guides="1" tooltips="1" connect="1" arrows="1" fold="1" page="1" pageScale="1" pageWidth="1100" pageHeight="850" math="0" shadow="0">
            <root>
                <mxCell id="0"/>
                <mxCell id="1" parent="0"/>
                <mxCell id="vNdSwungSPHuTu-_1WlL-1" value="Competitor Analysys" style="shape=table;childLayout=tableLayout;startSize=40;collapsible=0;recursiveResize=0;expand=0;fontStyle=1;strokeColor=#0066CC;fontFamily=Comic Sans MS;fontSize=9;fillColor=#FFFFCC;" parent="1" vertex="1">
                    <mxGeometry x="140" y="140" width="810" height="640" as="geometry"/>
                </mxCell>
                <mxCell id="vNdSwungSPHuTu-_1WlL-2" value="" style="shape=tableRow;horizontal=0;startSize=110;swimlaneHead=0;swimlaneBody=0;top=0;left=0;bottom=0;right=0;dropTarget=0;fillColor=none;collapsible=0;recursiveResize=0;expand=0;fontStyle=1;strokeColor=#0066CC;fontFamily=Comic Sans MS;fontSize=9;" parent="vNdSwungSPHuTu-_1WlL-1" vertex="1">
                    <mxGeometry y="40" width="810" height="120" as="geometry"/>
                </mxCell>
                <mxCell id="vNdSwungSPHuTu-_1WlL-3" value="Faeture1" style="swimlane;swimlaneHead=0;swimlaneBody=0;fontStyle=0;connectable=0;fillColor=none;startSize=40;collapsible=0;recursiveResize=0;expand=0;fontStyle=1;strokeColor=#0066CC;fontFamily=Comic Sans MS;fontSize=9;" parent="vNdSwungSPHuTu-_1WlL-2" vertex="1">
                    <mxGeometry x="110" width="140" height="120" as="geometry">
                        <mxRectangle width="140" height="120" as="alternateBounds"/>
                    </mxGeometry>
                </mxCell>
                <mxCell id="vNdSwungSPHuTu-_1WlL-4" value="Feature2" style="swimlane;swimlaneHead=0;swimlaneBody=0;fontStyle=0;connectable=0;fillColor=none;startSize=40;collapsible=0;recursiveResize=0;expand=0;fontStyle=1;strokeColor=#0066CC;fontFamily=Comic Sans MS;fontSize=9;" parent="vNdSwungSPHuTu-_1WlL-2" vertex="1">
                    <mxGeometry x="250" width="140" height="120" as="geometry">
                        <mxRectangle width="140" height="120" as="alternateBounds"/>
                    </mxGeometry>
                </mxCell>
                <mxCell id="vNdSwungSPHuTu-_1WlL-5" value="Feature3" style="swimlane;swimlaneHead=0;swimlaneBody=0;fontStyle=0;connectable=0;fillColor=none;startSize=40;collapsible=0;recursiveResize=0;expand=0;fontStyle=1;strokeColor=#0066CC;fontFamily=Comic Sans MS;fontSize=9;" parent="vNdSwungSPHuTu-_1WlL-2" vertex="1">
                    <mxGeometry x="390" width="140" height="120" as="geometry">
                        <mxRectangle width="140" height="120" as="alternateBounds"/>
                    </mxGeometry>
                </mxCell>
                <mxCell id="vNdSwungSPHuTu-_1WlL-119" style="swimlane;swimlaneHead=0;swimlaneBody=0;fontStyle=0;connectable=0;fillColor=none;startSize=40;collapsible=0;recursiveResize=0;expand=0;fontStyle=1;strokeColor=#0066CC;fontFamily=Comic Sans MS;fontSize=9;" parent="vNdSwungSPHuTu-_1WlL-2" vertex="1">
                    <mxGeometry x="530" width="140" height="120" as="geometry">
                        <mxRectangle width="140" height="120" as="alternateBounds"/>
                    </mxGeometry>
                </mxCell>
                <mxCell id="vNdSwungSPHuTu-_1WlL-122" style="swimlane;swimlaneHead=0;swimlaneBody=0;fontStyle=0;connectable=0;fillColor=none;startSize=40;collapsible=0;recursiveResize=0;expand=0;fontStyle=1;strokeColor=#0066CC;fontFamily=Comic Sans MS;fontSize=9;" parent="vNdSwungSPHuTu-_1WlL-2" vertex="1">
                    <mxGeometry x="670" width="140" height="120" as="geometry">
                        <mxRectangle width="140" height="120" as="alternateBounds"/>
                    </mxGeometry>
                </mxCell>
                <mxCell id="vNdSwungSPHuTu-_1WlL-6" value="" style="shape=tableRow;horizontal=0;startSize=110;swimlaneHead=0;swimlaneBody=0;top=0;left=0;bottom=0;right=0;dropTarget=0;fillColor=none;collapsible=0;recursiveResize=0;expand=0;fontStyle=1;strokeColor=#0066CC;fontFamily=Comic Sans MS;fontSize=9;" parent="vNdSwungSPHuTu-_1WlL-1" vertex="1">
                    <mxGeometry y="160" width="810" height="120" as="geometry"/>
                </mxCell>
                <mxCell id="vNdSwungSPHuTu-_1WlL-7" value="" style="swimlane;swimlaneHead=0;swimlaneBody=0;fontStyle=0;connectable=0;fillColor=none;startSize=0;collapsible=0;recursiveResize=0;expand=0;fontStyle=1;strokeColor=#0066CC;fontFamily=Comic Sans MS;fontSize=9;" parent="vNdSwungSPHuTu-_1WlL-6" vertex="1">
                    <mxGeometry x="110" width="140" height="120" as="geometry">
                        <mxRectangle width="140" height="120" as="alternateBounds"/>
                    </mxGeometry>
                </mxCell>
                <mxCell id="vNdSwungSPHuTu-_1WlL-8" value="" style="swimlane;swimlaneHead=0;swimlaneBody=0;fontStyle=0;connectable=0;fillColor=none;startSize=0;collapsible=0;recursiveResize=0;expand=0;fontStyle=1;strokeColor=#0066CC;fontFamily=Comic Sans MS;fontSize=9;" parent="vNdSwungSPHuTu-_1WlL-6" vertex="1">
                    <mxGeometry x="250" width="140" height="120" as="geometry">
                        <mxRectangle width="140" height="120" as="alternateBounds"/>
                    </mxGeometry>
                </mxCell>
                <mxCell id="vNdSwungSPHuTu-_1WlL-9" value="" style="swimlane;swimlaneHead=0;swimlaneBody=0;fontStyle=0;connectable=0;fillColor=none;startSize=0;collapsible=0;recursiveResize=0;expand=0;fontStyle=1;strokeColor=#0066CC;fontFamily=Comic Sans MS;fontSize=9;" parent="vNdSwungSPHuTu-_1WlL-6" vertex="1">
                    <mxGeometry x="390" width="140" height="120" as="geometry">
                        <mxRectangle width="140" height="120" as="alternateBounds"/>
                    </mxGeometry>
                </mxCell>
                <mxCell id="vNdSwungSPHuTu-_1WlL-120" style="swimlane;swimlaneHead=0;swimlaneBody=0;fontStyle=0;connectable=0;fillColor=none;startSize=0;collapsible=0;recursiveResize=0;expand=0;fontStyle=1;strokeColor=#0066CC;fontFamily=Comic Sans MS;fontSize=9;" parent="vNdSwungSPHuTu-_1WlL-6" vertex="1">
                    <mxGeometry x="530" width="140" height="120" as="geometry">
                        <mxRectangle width="140" height="120" as="alternateBounds"/>
                    </mxGeometry>
                </mxCell>
                <mxCell id="vNdSwungSPHuTu-_1WlL-123" style="swimlane;swimlaneHead=0;swimlaneBody=0;fontStyle=0;connectable=0;fillColor=none;startSize=0;collapsible=0;recursiveResize=0;expand=0;fontStyle=1;strokeColor=#0066CC;fontFamily=Comic Sans MS;fontSize=9;" parent="vNdSwungSPHuTu-_1WlL-6" vertex="1">
                    <mxGeometry x="670" width="140" height="120" as="geometry">
                        <mxRectangle width="140" height="120" as="alternateBounds"/>
                    </mxGeometry>
                </mxCell>
                <mxCell id="vNdSwungSPHuTu-_1WlL-10" value="" style="shape=tableRow;horizontal=0;startSize=110;swimlaneHead=0;swimlaneBody=0;top=0;left=0;bottom=0;right=0;dropTarget=0;fillColor=none;collapsible=0;recursiveResize=0;expand=0;fontStyle=1;strokeColor=#0066CC;fontFamily=Comic Sans MS;fontSize=9;" parent="vNdSwungSPHuTu-_1WlL-1" vertex="1">
                    <mxGeometry y="280" width="810" height="120" as="geometry"/>
                </mxCell>
                <mxCell id="vNdSwungSPHuTu-_1WlL-11" value="" style="swimlane;swimlaneHead=0;swimlaneBody=0;fontStyle=0;connectable=0;fillColor=none;startSize=0;collapsible=0;recursiveResize=0;expand=0;fontStyle=1;strokeColor=#0066CC;fontFamily=Comic Sans MS;fontSize=9;" parent="vNdSwungSPHuTu-_1WlL-10" vertex="1">
                    <mxGeometry x="110" width="140" height="120" as="geometry">
                        <mxRectangle width="140" height="120" as="alternateBounds"/>
                    </mxGeometry>
                </mxCell>
                <mxCell id="vNdSwungSPHuTu-_1WlL-12" value="" style="swimlane;swimlaneHead=0;swimlaneBody=0;fontStyle=0;connectable=0;fillColor=none;startSize=0;collapsible=0;recursiveResize=0;expand=0;fontStyle=1;strokeColor=#0066CC;fontFamily=Comic Sans MS;fontSize=9;" parent="vNdSwungSPHuTu-_1WlL-10" vertex="1">
                    <mxGeometry x="250" width="140" height="120" as="geometry">
                        <mxRectangle width="140" height="120" as="alternateBounds"/>
                    </mxGeometry>
                </mxCell>
                <mxCell id="vNdSwungSPHuTu-_1WlL-13" value="" style="swimlane;swimlaneHead=0;swimlaneBody=0;fontStyle=0;connectable=0;fillColor=none;startSize=0;collapsible=0;recursiveResize=0;expand=0;fontStyle=1;strokeColor=#0066CC;fontFamily=Comic Sans MS;fontSize=9;" parent="vNdSwungSPHuTu-_1WlL-10" vertex="1">
                    <mxGeometry x="390" width="140" height="120" as="geometry">
                        <mxRectangle width="140" height="120" as="alternateBounds"/>
                    </mxGeometry>
                </mxCell>
                <mxCell id="vNdSwungSPHuTu-_1WlL-121" style="swimlane;swimlaneHead=0;swimlaneBody=0;fontStyle=0;connectable=0;fillColor=none;startSize=0;collapsible=0;recursiveResize=0;expand=0;fontStyle=1;strokeColor=#0066CC;fontFamily=Comic Sans MS;fontSize=9;" parent="vNdSwungSPHuTu-_1WlL-10" vertex="1">
                    <mxGeometry x="530" width="140" height="120" as="geometry">
                        <mxRectangle width="140" height="120" as="alternateBounds"/>
                    </mxGeometry>
                </mxCell>
                <mxCell id="vNdSwungSPHuTu-_1WlL-124" style="swimlane;swimlaneHead=0;swimlaneBody=0;fontStyle=0;connectable=0;fillColor=none;startSize=0;collapsible=0;recursiveResize=0;expand=0;fontStyle=1;strokeColor=#0066CC;fontFamily=Comic Sans MS;fontSize=9;" parent="vNdSwungSPHuTu-_1WlL-10" vertex="1">
                    <mxGeometry x="670" width="140" height="120" as="geometry">
                        <mxRectangle width="140" height="120" as="alternateBounds"/>
                    </mxGeometry>
                </mxCell>
                <mxCell id="vNdSwungSPHuTu-_1WlL-125" style="shape=tableRow;horizontal=0;startSize=110;swimlaneHead=0;swimlaneBody=0;top=0;left=0;bottom=0;right=0;dropTarget=0;fillColor=none;collapsible=0;recursiveResize=0;expand=0;fontStyle=1;strokeColor=#0066CC;fontFamily=Comic Sans MS;fontSize=9;" parent="vNdSwungSPHuTu-_1WlL-1" vertex="1">
                    <mxGeometry y="400" width="810" height="120" as="geometry"/>
                </mxCell>
                <mxCell id="vNdSwungSPHuTu-_1WlL-126" style="swimlane;swimlaneHead=0;swimlaneBody=0;fontStyle=0;connectable=0;fillColor=none;startSize=0;collapsible=0;recursiveResize=0;expand=0;fontStyle=1;strokeColor=#0066CC;fontFamily=Comic Sans MS;fontSize=9;" parent="vNdSwungSPHuTu-_1WlL-125" vertex="1">
                    <mxGeometry x="110" width="140" height="120" as="geometry">
                        <mxRectangle width="140" height="120" as="alternateBounds"/>
                    </mxGeometry>
                </mxCell>
                <mxCell id="vNdSwungSPHuTu-_1WlL-127" style="swimlane;swimlaneHead=0;swimlaneBody=0;fontStyle=0;connectable=0;fillColor=none;startSize=0;collapsible=0;recursiveResize=0;expand=0;fontStyle=1;strokeColor=#0066CC;fontFamily=Comic Sans MS;fontSize=9;" parent="vNdSwungSPHuTu-_1WlL-125" vertex="1">
                    <mxGeometry x="250" width="140" height="120" as="geometry">
                        <mxRectangle width="140" height="120" as="alternateBounds"/>
                    </mxGeometry>
                </mxCell>
                <mxCell id="vNdSwungSPHuTu-_1WlL-128" style="swimlane;swimlaneHead=0;swimlaneBody=0;fontStyle=0;connectable=0;fillColor=none;startSize=0;collapsible=0;recursiveResize=0;expand=0;fontStyle=1;strokeColor=#0066CC;fontFamily=Comic Sans MS;fontSize=9;" parent="vNdSwungSPHuTu-_1WlL-125" vertex="1">
                    <mxGeometry x="390" width="140" height="120" as="geometry">
                        <mxRectangle width="140" height="120" as="alternateBounds"/>
                    </mxGeometry>
                </mxCell>
                <mxCell id="vNdSwungSPHuTu-_1WlL-129" style="swimlane;swimlaneHead=0;swimlaneBody=0;fontStyle=0;connectable=0;fillColor=none;startSize=0;collapsible=0;recursiveResize=0;expand=0;fontStyle=1;strokeColor=#0066CC;fontFamily=Comic Sans MS;fontSize=9;" parent="vNdSwungSPHuTu-_1WlL-125" vertex="1">
                    <mxGeometry x="530" width="140" height="120" as="geometry">
                        <mxRectangle width="140" height="120" as="alternateBounds"/>
                    </mxGeometry>
                </mxCell>
                <mxCell id="vNdSwungSPHuTu-_1WlL-130" style="swimlane;swimlaneHead=0;swimlaneBody=0;fontStyle=0;connectable=0;fillColor=none;startSize=0;collapsible=0;recursiveResize=0;expand=0;fontStyle=1;strokeColor=#0066CC;fontFamily=Comic Sans MS;fontSize=9;" parent="vNdSwungSPHuTu-_1WlL-125" vertex="1">
                    <mxGeometry x="670" width="140" height="120" as="geometry">
                        <mxRectangle width="140" height="120" as="alternateBounds"/>
                    </mxGeometry>
                </mxCell>
                <mxCell id="vNdSwungSPHuTu-_1WlL-131" style="shape=tableRow;horizontal=0;startSize=110;swimlaneHead=0;swimlaneBody=0;top=0;left=0;bottom=0;right=0;dropTarget=0;fillColor=none;collapsible=0;recursiveResize=0;expand=0;fontStyle=1;strokeColor=#0066CC;fontFamily=Comic Sans MS;fontSize=9;" parent="vNdSwungSPHuTu-_1WlL-1" vertex="1">
                    <mxGeometry y="520" width="810" height="120" as="geometry"/>
                </mxCell>
                <mxCell id="vNdSwungSPHuTu-_1WlL-132" style="swimlane;swimlaneHead=0;swimlaneBody=0;fontStyle=0;connectable=0;fillColor=none;startSize=0;collapsible=0;recursiveResize=0;expand=0;fontStyle=1;strokeColor=#0066CC;fontFamily=Comic Sans MS;fontSize=9;" parent="vNdSwungSPHuTu-_1WlL-131" vertex="1">
                    <mxGeometry x="110" width="140" height="120" as="geometry">
                        <mxRectangle width="140" height="120" as="alternateBounds"/>
                    </mxGeometry>
                </mxCell>
                <mxCell id="vNdSwungSPHuTu-_1WlL-133" style="swimlane;swimlaneHead=0;swimlaneBody=0;fontStyle=0;connectable=0;fillColor=none;startSize=0;collapsible=0;recursiveResize=0;expand=0;fontStyle=1;strokeColor=#0066CC;fontFamily=Comic Sans MS;fontSize=9;" parent="vNdSwungSPHuTu-_1WlL-131" vertex="1">
                    <mxGeometry x="250" width="140" height="120" as="geometry">
                        <mxRectangle width="140" height="120" as="alternateBounds"/>
                    </mxGeometry>
                </mxCell>
                <mxCell id="vNdSwungSPHuTu-_1WlL-134" style="swimlane;swimlaneHead=0;swimlaneBody=0;fontStyle=0;connectable=0;fillColor=none;startSize=0;collapsible=0;recursiveResize=0;expand=0;fontStyle=1;strokeColor=#0066CC;fontFamily=Comic Sans MS;fontSize=9;" parent="vNdSwungSPHuTu-_1WlL-131" vertex="1">
                    <mxGeometry x="390" width="140" height="120" as="geometry">
                        <mxRectangle width="140" height="120" as="alternateBounds"/>
                    </mxGeometry>
                </mxCell>
                <mxCell id="vNdSwungSPHuTu-_1WlL-135" style="swimlane;swimlaneHead=0;swimlaneBody=0;fontStyle=0;connectable=0;fillColor=none;startSize=0;collapsible=0;recursiveResize=0;expand=0;fontStyle=1;strokeColor=#0066CC;fontFamily=Comic Sans MS;fontSize=9;" parent="vNdSwungSPHuTu-_1WlL-131" vertex="1">
                    <mxGeometry x="530" width="140" height="120" as="geometry">
                        <mxRectangle width="140" height="120" as="alternateBounds"/>
                    </mxGeometry>
                </mxCell>
                <mxCell id="vNdSwungSPHuTu-_1WlL-136" style="swimlane;swimlaneHead=0;swimlaneBody=0;fontStyle=0;connectable=0;fillColor=none;startSize=0;collapsible=0;recursiveResize=0;expand=0;fontStyle=1;strokeColor=#0066CC;fontFamily=Comic Sans MS;fontSize=9;" parent="vNdSwungSPHuTu-_1WlL-131" vertex="1">
                    <mxGeometry x="670" width="140" height="120" as="geometry">
                        <mxRectangle width="140" height="120" as="alternateBounds"/>
                    </mxGeometry>
                </mxCell>
                <mxCell id="vNdSwungSPHuTu-_1WlL-143" value="" style="shape=tableRow;horizontal=0;startSize=110;swimlaneHead=0;swimlaneBody=0;top=0;left=0;bottom=0;right=0;dropTarget=0;fillColor=none;collapsible=0;recursiveResize=0;expand=0;fontStyle=1;strokeColor=#0066CC;fontFamily=Comic Sans MS;fontSize=9;" parent="1" vertex="1">
                    <mxGeometry x="140" y="510" width="810" height="120" as="geometry"/>
                </mxCell>
                <mxCell id="vNdSwungSPHuTu-_1WlL-144" value="" style="swimlane;swimlaneHead=0;swimlaneBody=0;fontStyle=0;connectable=0;fillColor=none;startSize=0;collapsible=0;recursiveResize=0;expand=0;fontStyle=1;strokeColor=#0066CC;fontFamily=Comic Sans MS;fontSize=9;" parent="vNdSwungSPHuTu-_1WlL-143" vertex="1">
                    <mxGeometry x="110" width="140" height="120" as="geometry">
                        <mxRectangle width="140" height="120" as="alternateBounds"/>
                    </mxGeometry>
                </mxCell>
                <mxCell id="vNdSwungSPHuTu-_1WlL-145" value="" style="swimlane;swimlaneHead=0;swimlaneBody=0;fontStyle=0;connectable=0;fillColor=none;startSize=0;collapsible=0;recursiveResize=0;expand=0;fontStyle=1;strokeColor=#0066CC;fontFamily=Comic Sans MS;fontSize=9;" parent="vNdSwungSPHuTu-_1WlL-143" vertex="1">
                    <mxGeometry x="250" width="140" height="120" as="geometry">
                        <mxRectangle width="140" height="120" as="alternateBounds"/>
                    </mxGeometry>
                </mxCell>
                <mxCell id="vNdSwungSPHuTu-_1WlL-146" value="" style="swimlane;swimlaneHead=0;swimlaneBody=0;fontStyle=0;connectable=0;fillColor=none;startSize=0;collapsible=0;recursiveResize=0;expand=0;fontStyle=1;strokeColor=#0066CC;fontFamily=Comic Sans MS;fontSize=9;" parent="vNdSwungSPHuTu-_1WlL-143" vertex="1">
                    <mxGeometry x="390" width="140" height="120" as="geometry">
                        <mxRectangle width="140" height="120" as="alternateBounds"/>
                    </mxGeometry>
                </mxCell>
                <mxCell id="vNdSwungSPHuTu-_1WlL-147" style="swimlane;swimlaneHead=0;swimlaneBody=0;fontStyle=0;connectable=0;fillColor=none;startSize=0;collapsible=0;recursiveResize=0;expand=0;fontStyle=1;strokeColor=#0066CC;fontFamily=Comic Sans MS;fontSize=9;" parent="vNdSwungSPHuTu-_1WlL-143" vertex="1">
                    <mxGeometry x="530" width="140" height="120" as="geometry">
                        <mxRectangle width="140" height="120" as="alternateBounds"/>
                    </mxGeometry>
                </mxCell>
                <mxCell id="vNdSwungSPHuTu-_1WlL-148" style="swimlane;swimlaneHead=0;swimlaneBody=0;fontStyle=0;connectable=0;fillColor=none;startSize=0;collapsible=0;recursiveResize=0;expand=0;fontStyle=1;strokeColor=#0066CC;fontFamily=Comic Sans MS;fontSize=9;" parent="vNdSwungSPHuTu-_1WlL-143" vertex="1">
                    <mxGeometry x="670" width="140" height="120" as="geometry">
                        <mxRectangle width="140" height="120" as="alternateBounds"/>
                    </mxGeometry>
                </mxCell>
                <mxCell id="vNdSwungSPHuTu-_1WlL-149" value="Company1" style="text;html=1;strokeColor=none;fillColor=none;align=center;verticalAlign=middle;whiteSpace=wrap;rounded=0;fontFamily=Comic Sans MS;fontSize=9;" parent="1" vertex="1">
                    <mxGeometry x="160" y="220" width="60" height="30" as="geometry"/>
                </mxCell>
                <mxCell id="vNdSwungSPHuTu-_1WlL-150" value="Fetaure Exist" style="rounded=1;whiteSpace=wrap;html=1;strokeColor=#0066CC;fontFamily=Comic Sans MS;fontSize=9;fillColor=#99FF99;" parent="1" vertex="1">
                    <mxGeometry x="280" y="30" width="140" height="80" as="geometry"/>
                </mxCell>
                <mxCell id="vNdSwungSPHuTu-_1WlL-151" value="Fetaure Exist" style="rounded=1;whiteSpace=wrap;html=1;strokeColor=#0066CC;fontFamily=Comic Sans MS;fontSize=9;fillColor=#FFFFCC;" parent="1" vertex="1">
                    <mxGeometry x="460" y="30" width="140" height="80" as="geometry"/>
                </mxCell>
                <mxCell id="vNdSwungSPHuTu-_1WlL-152" value="Fetaure Exist" style="rounded=1;whiteSpace=wrap;html=1;strokeColor=#0066CC;fontFamily=Comic Sans MS;fontSize=9;fillColor=#FF6666;" parent="1" vertex="1">
                    <mxGeometry x="650" y="30" width="140" height="80" as="geometry"/>
                </mxCell>
                <mxCell id="vNdSwungSPHuTu-_1WlL-153" value="Company1" style="text;html=1;strokeColor=none;fillColor=none;align=center;verticalAlign=middle;whiteSpace=wrap;rounded=0;fontFamily=Comic Sans MS;fontSize=9;" parent="1" vertex="1">
                    <mxGeometry x="160" y="340" width="60" height="30" as="geometry"/>
                </mxCell>
                <mxCell id="vNdSwungSPHuTu-_1WlL-154" value="Company1" style="text;html=1;strokeColor=none;fillColor=none;align=center;verticalAlign=middle;whiteSpace=wrap;rounded=0;fontFamily=Comic Sans MS;fontSize=9;" parent="1" vertex="1">
                    <mxGeometry x="160" y="460" width="60" height="30" as="geometry"/>
                </mxCell>
                <mxCell id="vNdSwungSPHuTu-_1WlL-155" value="Company1" style="text;html=1;strokeColor=none;fillColor=none;align=center;verticalAlign=middle;whiteSpace=wrap;rounded=0;fontFamily=Comic Sans MS;fontSize=9;" parent="1" vertex="1">
                    <mxGeometry x="160" y="580" width="60" height="30" as="geometry"/>
                </mxCell>
                <mxCell id="vNdSwungSPHuTu-_1WlL-156" value="Company1" style="text;html=1;strokeColor=none;fillColor=none;align=center;verticalAlign=middle;whiteSpace=wrap;rounded=0;fontFamily=Comic Sans MS;fontSize=9;" parent="1" vertex="1">
                    <mxGeometry x="160" y="700" width="60" height="30" as="geometry"/>
                </mxCell>
            </root>
        </mxGraphModel>
    </diagram>
    <diagram id="pYP-aqqwuo515o5n9fWe" name="transformation">
        <mxGraphModel dx="1872" dy="2035" grid="1" gridSize="10" guides="1" tooltips="1" connect="1" arrows="1" fold="1" page="1" pageScale="1" pageWidth="1100" pageHeight="850" math="0" shadow="0">
            <root>
                <mxCell id="0"/>
                <mxCell id="1" parent="0"/>
                <mxCell id="82dtt1fWFMic4u1b7Cw8-1" value="" style="group" vertex="1" connectable="0" parent="1">
                    <mxGeometry x="-130" y="-950" width="720" height="440" as="geometry"/>
                </mxCell>
                <mxCell id="pwxfyV8NG3vbBgJ1mFDp-1" value="" style="group" parent="82dtt1fWFMic4u1b7Cw8-1" vertex="1" connectable="0">
                    <mxGeometry x="140" y="40" width="430" height="390" as="geometry"/>
                </mxCell>
                <mxCell id="pwxfyV8NG3vbBgJ1mFDp-2" value="" style="rounded=1;whiteSpace=wrap;html=1;fillColor=#EEE2E2;" parent="pwxfyV8NG3vbBgJ1mFDp-1" vertex="1">
                    <mxGeometry width="429.99999999999994" height="390" as="geometry"/>
                </mxCell>
                <mxCell id="pwxfyV8NG3vbBgJ1mFDp-3" value="" style="group" parent="pwxfyV8NG3vbBgJ1mFDp-1" vertex="1" connectable="0">
                    <mxGeometry x="20.476190476190474" y="230.45454545454544" width="389.04761904761904" height="159.54545454545453" as="geometry"/>
                </mxCell>
                <mxCell id="pwxfyV8NG3vbBgJ1mFDp-4" value="......" style="text;html=1;strokeColor=none;fillColor=none;align=center;verticalAlign=middle;whiteSpace=wrap;rounded=0;fontFamily=Comic Sans MS;" parent="pwxfyV8NG3vbBgJ1mFDp-3" vertex="1">
                    <mxGeometry x="317.38095238095235" y="97.15909090909088" width="61.42857142857142" height="30.68181818181818" as="geometry"/>
                </mxCell>
                <mxCell id="pwxfyV8NG3vbBgJ1mFDp-6" value="" style="group" parent="pwxfyV8NG3vbBgJ1mFDp-1" vertex="1" connectable="0">
                    <mxGeometry x="20.47809523809524" y="203.86363636363637" width="399.29" height="182.38704545454542" as="geometry"/>
                </mxCell>
                <mxCell id="pwxfyV8NG3vbBgJ1mFDp-7" value="" style="group" parent="pwxfyV8NG3vbBgJ1mFDp-6" vertex="1" connectable="0">
                    <mxGeometry y="17.727272727272727" width="399.29" height="164.65977272727272" as="geometry"/>
                </mxCell>
                <mxCell id="pwxfyV8NG3vbBgJ1mFDp-8" value="" style="shape=document;whiteSpace=wrap;html=1;boundedLbl=1;strokeColor=#0066CC;fontFamily=Comic Sans MS;fontSize=24;fillColor=#FFCCE6;" parent="pwxfyV8NG3vbBgJ1mFDp-7" vertex="1">
                    <mxGeometry y="-17.727272727272727" width="399.29" height="182.38704545454544" as="geometry"/>
                </mxCell>
                <mxCell id="pwxfyV8NG3vbBgJ1mFDp-9" value="&lt;font face=&quot;Comic Sans MS&quot;&gt;SEARCH&lt;/font&gt;" style="rounded=1;whiteSpace=wrap;html=1;fillColor=#FFFFFF;" parent="pwxfyV8NG3vbBgJ1mFDp-7" vertex="1">
                    <mxGeometry x="20.476190476190474" y="26.591590909090915" width="71.66666666666666" height="20.454545454545453" as="geometry"/>
                </mxCell>
                <mxCell id="pwxfyV8NG3vbBgJ1mFDp-10" value="&lt;font face=&quot;Comic Sans MS&quot;&gt;Security/RBAC&lt;/font&gt;" style="rounded=1;whiteSpace=wrap;html=1;" parent="pwxfyV8NG3vbBgJ1mFDp-7" vertex="1">
                    <mxGeometry x="102.38095238095238" y="26.591590909090915" width="102.38095238095238" height="20.454545454545453" as="geometry"/>
                </mxCell>
                <mxCell id="pwxfyV8NG3vbBgJ1mFDp-11" value="&lt;font face=&quot;Comic Sans MS&quot;&gt;CMS&lt;/font&gt;" style="rounded=1;whiteSpace=wrap;html=1;fillColor=#FFFFFF;" parent="pwxfyV8NG3vbBgJ1mFDp-7" vertex="1">
                    <mxGeometry x="215" y="26.591590909090915" width="51.19047619047619" height="20.454545454545453" as="geometry"/>
                </mxCell>
                <mxCell id="pwxfyV8NG3vbBgJ1mFDp-12" value="&lt;font face=&quot;Comic Sans MS&quot;&gt;DMS&lt;/font&gt;" style="rounded=1;whiteSpace=wrap;html=1;fillColor=#FFFFFF;" parent="pwxfyV8NG3vbBgJ1mFDp-7" vertex="1">
                    <mxGeometry x="284.10714285714283" y="26.591590909090915" width="51.19047619047619" height="20.454545454545453" as="geometry"/>
                </mxCell>
                <mxCell id="pwxfyV8NG3vbBgJ1mFDp-13" value="&lt;font face=&quot;Comic Sans MS&quot;&gt;Workflows&lt;/font&gt;" style="rounded=1;whiteSpace=wrap;html=1;fillColor=#FFFFFF;" parent="pwxfyV8NG3vbBgJ1mFDp-7" vertex="1">
                    <mxGeometry x="20.476190476190474" y="57.27340909090909" width="71.66666666666666" height="20.454545454545453" as="geometry"/>
                </mxCell>
                <mxCell id="pwxfyV8NG3vbBgJ1mFDp-14" value="&lt;font face=&quot;Comic Sans MS&quot;&gt;Policy Engine&lt;/font&gt;" style="rounded=1;whiteSpace=wrap;html=1;fillColor=#FFFFFF;" parent="pwxfyV8NG3vbBgJ1mFDp-7" vertex="1">
                    <mxGeometry x="102.38095238095238" y="57.27340909090909" width="81.9047619047619" height="20.454545454545453" as="geometry"/>
                </mxCell>
                <mxCell id="pwxfyV8NG3vbBgJ1mFDp-15" value="&lt;font face=&quot;Comic Sans MS&quot;&gt;ESB&lt;/font&gt;" style="rounded=1;whiteSpace=wrap;html=1;fillColor=#FFFFFF;" parent="pwxfyV8NG3vbBgJ1mFDp-7" vertex="1">
                    <mxGeometry x="20.476190476190474" y="93.06886363636364" width="81.9047619047619" height="20.454545454545453" as="geometry"/>
                </mxCell>
                <mxCell id="pwxfyV8NG3vbBgJ1mFDp-16" value="&lt;font face=&quot;Comic Sans MS&quot;&gt;Catalogue&lt;/font&gt;" style="rounded=1;whiteSpace=wrap;html=1;fillColor=#FFFFFF;" parent="pwxfyV8NG3vbBgJ1mFDp-7" vertex="1">
                    <mxGeometry x="209.88095238095238" y="57.27340909090909" width="56.3095238095238" height="20.454545454545453" as="geometry"/>
                </mxCell>
                <mxCell id="pwxfyV8NG3vbBgJ1mFDp-17" value="&lt;font face=&quot;Comic Sans MS&quot;&gt;Change Central&lt;/font&gt;" style="rounded=1;whiteSpace=wrap;html=1;fillColor=#FFFFFF;" parent="pwxfyV8NG3vbBgJ1mFDp-7" vertex="1">
                    <mxGeometry x="296.90476190476187" y="57.27340909090909" width="92.14285714285714" height="20.454545454545453" as="geometry"/>
                </mxCell>
                <mxCell id="pwxfyV8NG3vbBgJ1mFDp-18" value="&lt;font face=&quot;Comic Sans MS&quot;&gt;Dataflow&lt;/font&gt;" style="rounded=1;whiteSpace=wrap;html=1;fillColor=#FFFFFF;" parent="pwxfyV8NG3vbBgJ1mFDp-7" vertex="1">
                    <mxGeometry x="122.85714285714285" y="87.95522727272727" width="92.14285714285714" height="20.454545454545453" as="geometry"/>
                </mxCell>
                <mxCell id="pwxfyV8NG3vbBgJ1mFDp-19" value="&lt;font face=&quot;Comic Sans MS&quot;&gt;Lake&lt;/font&gt;" style="rounded=1;whiteSpace=wrap;html=1;fillColor=#FFFFFF;" parent="pwxfyV8NG3vbBgJ1mFDp-7" vertex="1">
                    <mxGeometry x="225.2380952380952" y="87.95522727272727" width="92.14285714285714" height="20.454545454545453" as="geometry"/>
                </mxCell>
                <mxCell id="pwxfyV8NG3vbBgJ1mFDp-20" value="&lt;font style=&quot;font-size: 12px;&quot;&gt;Common Services -&lt;font color=&quot;#ff230a&quot;&gt;multiple product/component integration&lt;/font&gt;&lt;/font&gt;" style="text;html=1;strokeColor=none;fillColor=none;align=center;verticalAlign=middle;whiteSpace=wrap;rounded=0;fontFamily=Comic Sans MS;fontSize=24;" parent="pwxfyV8NG3vbBgJ1mFDp-6" vertex="1">
                    <mxGeometry x="24.64" width="350" height="26.59090909090909" as="geometry"/>
                </mxCell>
                <mxCell id="pwxfyV8NG3vbBgJ1mFDp-21" value="" style="group" parent="pwxfyV8NG3vbBgJ1mFDp-1" vertex="1" connectable="0">
                    <mxGeometry x="75.07000000000001" y="44.31818181818181" width="279.85" height="136.0036363636363" as="geometry"/>
                </mxCell>
                <mxCell id="pwxfyV8NG3vbBgJ1mFDp-22" value="" style="shape=dataStorage;whiteSpace=wrap;html=1;fixedSize=1;strokeColor=#0066CC;fontFamily=Comic Sans MS;fontSize=12;fillColor=#CCFFFF;rotation=90;" parent="pwxfyV8NG3vbBgJ1mFDp-21" vertex="1">
                    <mxGeometry x="58.129999999999995" y="-51.524318181818174" width="153.44" height="239.0522727272727" as="geometry"/>
                </mxCell>
                <mxCell id="pwxfyV8NG3vbBgJ1mFDp-23" value="&lt;font style=&quot;font-size: 12px;&quot;&gt;Business Services -&lt;font color=&quot;#ff1c03&quot;&gt;1 codebase&lt;/font&gt;&amp;nbsp;&lt;/font&gt;" style="text;html=1;strokeColor=none;fillColor=none;align=center;verticalAlign=middle;whiteSpace=wrap;rounded=0;fontFamily=Comic Sans MS;fontSize=24;" parent="pwxfyV8NG3vbBgJ1mFDp-21" vertex="1">
                    <mxGeometry x="29.850000000000023" y="7.303636363636372" width="240" height="30.34022727272727" as="geometry"/>
                </mxCell>
                <mxCell id="pwxfyV8NG3vbBgJ1mFDp-24" value="&lt;font face=&quot;Comic Sans MS&quot;&gt;Domain Specific Service1&lt;/font&gt;" style="rounded=1;whiteSpace=wrap;html=1;fillColor=#FFFFFF;" parent="pwxfyV8NG3vbBgJ1mFDp-21" vertex="1">
                    <mxGeometry x="29.850000000000023" y="37.64386363636366" width="150" height="26.590909090909086" as="geometry"/>
                </mxCell>
                <mxCell id="pwxfyV8NG3vbBgJ1mFDp-25" value="&lt;font face=&quot;Comic Sans MS&quot;&gt;Domain Specific Service2&lt;/font&gt;" style="rounded=1;whiteSpace=wrap;html=1;fillColor=#FFFFFF;" parent="pwxfyV8NG3vbBgJ1mFDp-21" vertex="1">
                    <mxGeometry x="59.85000000000002" y="64.23477272727276" width="150" height="26.590909090909086" as="geometry"/>
                </mxCell>
                <mxCell id="pwxfyV8NG3vbBgJ1mFDp-26" value="......" style="text;html=1;strokeColor=none;fillColor=none;align=center;verticalAlign=middle;whiteSpace=wrap;rounded=0;fontFamily=Comic Sans MS;" parent="pwxfyV8NG3vbBgJ1mFDp-21" vertex="1">
                    <mxGeometry x="219.85000000000002" y="64.23477272727276" width="60" height="26.590909090909086" as="geometry"/>
                </mxCell>
                <mxCell id="pwxfyV8NG3vbBgJ1mFDp-27" style="edgeStyle=none;html=1;fontFamily=Comic Sans MS;fontSize=24;" parent="82dtt1fWFMic4u1b7Cw8-1" source="pwxfyV8NG3vbBgJ1mFDp-45" edge="1">
                    <mxGeometry relative="1" as="geometry">
                        <mxPoint x="30" y="230" as="targetPoint"/>
                    </mxGeometry>
                </mxCell>
                <mxCell id="pwxfyV8NG3vbBgJ1mFDp-28" style="edgeStyle=none;html=1;fontFamily=Comic Sans MS;fontSize=24;" parent="82dtt1fWFMic4u1b7Cw8-1" source="pwxfyV8NG3vbBgJ1mFDp-46" edge="1">
                    <mxGeometry relative="1" as="geometry">
                        <mxPoint x="30" y="230" as="targetPoint"/>
                    </mxGeometry>
                </mxCell>
                <mxCell id="pwxfyV8NG3vbBgJ1mFDp-29" style="edgeStyle=none;html=1;fontFamily=Comic Sans MS;fontSize=24;" parent="82dtt1fWFMic4u1b7Cw8-1" source="pwxfyV8NG3vbBgJ1mFDp-47" edge="1">
                    <mxGeometry relative="1" as="geometry">
                        <mxPoint x="20" y="230" as="targetPoint"/>
                    </mxGeometry>
                </mxCell>
                <mxCell id="pwxfyV8NG3vbBgJ1mFDp-31" style="edgeStyle=none;html=1;entryX=-0.021;entryY=0.482;entryDx=0;entryDy=0;entryPerimeter=0;fontFamily=Comic Sans MS;fontSize=24;" parent="82dtt1fWFMic4u1b7Cw8-1" source="pwxfyV8NG3vbBgJ1mFDp-2" target="pwxfyV8NG3vbBgJ1mFDp-35" edge="1">
                    <mxGeometry relative="1" as="geometry"/>
                </mxCell>
                <mxCell id="pwxfyV8NG3vbBgJ1mFDp-32" style="edgeStyle=none;html=1;fontFamily=Comic Sans MS;fontSize=12;" parent="82dtt1fWFMic4u1b7Cw8-1" source="pwxfyV8NG3vbBgJ1mFDp-33" target="pwxfyV8NG3vbBgJ1mFDp-2" edge="1">
                    <mxGeometry relative="1" as="geometry"/>
                </mxCell>
                <mxCell id="pwxfyV8NG3vbBgJ1mFDp-33" value="API Gateway" style="sketch=0;outlineConnect=0;fontColor=#232F3E;gradientColor=none;fillColor=#B0084D;strokeColor=none;dashed=0;verticalLabelPosition=bottom;verticalAlign=top;align=center;html=1;fontSize=12;fontStyle=0;aspect=fixed;pointerEvents=1;shape=mxgraph.aws4.endpoint;fontFamily=Comic Sans MS;" parent="82dtt1fWFMic4u1b7Cw8-1" vertex="1">
                    <mxGeometry x="100" y="220" width="30" height="30" as="geometry"/>
                </mxCell>
                <mxCell id="pwxfyV8NG3vbBgJ1mFDp-34" value="" style="group" parent="82dtt1fWFMic4u1b7Cw8-1" vertex="1" connectable="0">
                    <mxGeometry x="600" y="50" width="120" height="390" as="geometry"/>
                </mxCell>
                <mxCell id="pwxfyV8NG3vbBgJ1mFDp-35" value="" style="rounded=1;whiteSpace=wrap;html=1;fillColor=#EEE2E2;" parent="pwxfyV8NG3vbBgJ1mFDp-34" vertex="1">
                    <mxGeometry width="120" height="390" as="geometry"/>
                </mxCell>
                <mxCell id="pwxfyV8NG3vbBgJ1mFDp-36" value="&lt;font style=&quot;font-size: 14px;&quot;&gt;&lt;b&gt;Data Services&lt;/b&gt;&lt;/font&gt;" style="text;html=1;strokeColor=none;fillColor=none;align=center;verticalAlign=middle;whiteSpace=wrap;rounded=0;fontFamily=Comic Sans MS;fontSize=8;" parent="pwxfyV8NG3vbBgJ1mFDp-34" vertex="1">
                    <mxGeometry x="9" y="13.295454545454545" width="100" height="26.59090909090909" as="geometry"/>
                </mxCell>
                <mxCell id="pwxfyV8NG3vbBgJ1mFDp-37" value="&lt;font style=&quot;font-size: 8px;&quot;&gt;Search&lt;br&gt;&lt;/font&gt;" style="shape=datastore;whiteSpace=wrap;html=1;strokeColor=#0066CC;fontFamily=Comic Sans MS;fontSize=14;fillColor=#FFCCE6;" parent="pwxfyV8NG3vbBgJ1mFDp-34" vertex="1">
                    <mxGeometry x="29" y="44.31818181818181" width="60" height="53.18181818181818" as="geometry"/>
                </mxCell>
                <mxCell id="pwxfyV8NG3vbBgJ1mFDp-38" value="&lt;font style=&quot;&quot;&gt;&lt;font style=&quot;font-size: 6px;&quot;&gt;RELATIONAL&lt;br&gt;&lt;/font&gt;&lt;br&gt;&lt;/font&gt;" style="shape=datastore;whiteSpace=wrap;html=1;strokeColor=#0066CC;fontFamily=Comic Sans MS;fontSize=14;fillColor=#FFCCE6;" parent="pwxfyV8NG3vbBgJ1mFDp-34" vertex="1">
                    <mxGeometry x="30" y="124.09090909090908" width="60" height="53.18181818181818" as="geometry"/>
                </mxCell>
                <mxCell id="pwxfyV8NG3vbBgJ1mFDp-39" value="&lt;font style=&quot;&quot;&gt;&lt;font style=&quot;font-size: 6px;&quot;&gt;Cache&lt;/font&gt;&lt;br&gt;&lt;/font&gt;" style="shape=datastore;whiteSpace=wrap;html=1;strokeColor=#0066CC;fontFamily=Comic Sans MS;fontSize=14;fillColor=#FFCCE6;" parent="pwxfyV8NG3vbBgJ1mFDp-34" vertex="1">
                    <mxGeometry x="30" y="212.72727272727272" width="60" height="53.18181818181818" as="geometry"/>
                </mxCell>
                <mxCell id="pwxfyV8NG3vbBgJ1mFDp-40" value="&lt;font style=&quot;&quot;&gt;&lt;font style=&quot;font-size: 6px;&quot;&gt;Graph&lt;/font&gt;&lt;br&gt;&lt;/font&gt;" style="shape=datastore;whiteSpace=wrap;html=1;strokeColor=#0066CC;fontFamily=Comic Sans MS;fontSize=14;fillColor=#FFCCE6;" parent="pwxfyV8NG3vbBgJ1mFDp-34" vertex="1">
                    <mxGeometry x="30" y="288.0681818181818" width="60" height="53.18181818181818" as="geometry"/>
                </mxCell>
                <mxCell id="pwxfyV8NG3vbBgJ1mFDp-41" value="&lt;font style=&quot;font-size: 24px;&quot;&gt;.....&lt;/font&gt;" style="text;html=1;strokeColor=none;fillColor=none;align=center;verticalAlign=middle;whiteSpace=wrap;rounded=0;fontFamily=Comic Sans MS;fontSize=6;" parent="pwxfyV8NG3vbBgJ1mFDp-34" vertex="1">
                    <mxGeometry x="49" y="350.1136363636364" width="60" height="26.59090909090909" as="geometry"/>
                </mxCell>
                <mxCell id="pwxfyV8NG3vbBgJ1mFDp-43" value="" style="group" parent="82dtt1fWFMic4u1b7Cw8-1" vertex="1" connectable="0">
                    <mxGeometry y="50" width="80" height="370" as="geometry"/>
                </mxCell>
                <mxCell id="pwxfyV8NG3vbBgJ1mFDp-44" value="" style="rounded=1;whiteSpace=wrap;html=1;fillColor=#EEE2E2;" parent="pwxfyV8NG3vbBgJ1mFDp-43" vertex="1">
                    <mxGeometry width="80" height="370" as="geometry"/>
                </mxCell>
                <mxCell id="pwxfyV8NG3vbBgJ1mFDp-45" value="Mobile client" style="sketch=0;outlineConnect=0;fontColor=#232F3E;gradientColor=none;strokeColor=#232F3E;fillColor=#EEE2E2;dashed=0;verticalLabelPosition=bottom;verticalAlign=top;align=center;html=1;fontSize=12;fontStyle=0;aspect=fixed;shape=mxgraph.aws4.resourceIcon;resIcon=mxgraph.aws4.mobile_client;fontFamily=Comic Sans MS;" parent="pwxfyV8NG3vbBgJ1mFDp-43" vertex="1">
                    <mxGeometry x="13" width="52.857142857142854" height="52.857142857142854" as="geometry"/>
                </mxCell>
                <mxCell id="pwxfyV8NG3vbBgJ1mFDp-46" value="Applications" style="sketch=0;points=[[0,0,0],[0.25,0,0],[0.5,0,0],[0.75,0,0],[1,0,0],[0,1,0],[0.25,1,0],[0.5,1,0],[0.75,1,0],[1,1,0],[0,0.25,0],[0,0.5,0],[0,0.75,0],[1,0.25,0],[1,0.5,0],[1,0.75,0]];outlineConnect=0;fontColor=#232F3E;gradientColor=#F54749;gradientDirection=north;fillColor=#FFCCFF;strokeColor=#ffffff;dashed=0;verticalLabelPosition=bottom;verticalAlign=top;align=center;html=1;fontSize=12;fontStyle=0;aspect=fixed;shape=mxgraph.aws4.resourceIcon;resIcon=mxgraph.aws4.amplify;fontFamily=Comic Sans MS;" parent="pwxfyV8NG3vbBgJ1mFDp-43" vertex="1">
                    <mxGeometry x="18" y="88.09523809523809" width="44.047619047619044" height="44.047619047619044" as="geometry"/>
                </mxCell>
                <mxCell id="pwxfyV8NG3vbBgJ1mFDp-47" value="Dashboards&lt;br&gt;" style="sketch=0;points=[[0,0,0],[0.25,0,0],[0.5,0,0],[0.75,0,0],[1,0,0],[0,1,0],[0.25,1,0],[0.5,1,0],[0.75,1,0],[1,1,0],[0,0.25,0],[0,0.5,0],[0,0.75,0],[1,0.25,0],[1,0.5,0],[1,0.75,0]];points=[[0,0,0],[0.25,0,0],[0.5,0,0],[0.75,0,0],[1,0,0],[0,1,0],[0.25,1,0],[0.5,1,0],[0.75,1,0],[1,1,0],[0,0.25,0],[0,0.5,0],[0,0.75,0],[1,0.25,0],[1,0.5,0],[1,0.75,0]];outlineConnect=0;fontColor=#232F3E;gradientColor=#F34482;gradientDirection=north;fillColor=#FFCCFF;strokeColor=#ffffff;dashed=0;verticalLabelPosition=bottom;verticalAlign=top;align=center;html=1;fontSize=12;fontStyle=0;aspect=fixed;shape=mxgraph.aws4.resourceIcon;resIcon=mxgraph.aws4.personal_health_dashboard;fontFamily=Comic Sans MS;" parent="pwxfyV8NG3vbBgJ1mFDp-43" vertex="1">
                    <mxGeometry x="20" y="173.54761904761907" width="38.761904761904766" height="38.761904761904766" as="geometry"/>
                </mxCell>
                <mxCell id="pwxfyV8NG3vbBgJ1mFDp-48" value="CLI" style="sketch=0;points=[[0,0,0],[0.25,0,0],[0.5,0,0],[0.75,0,0],[1,0,0],[0,1,0],[0.25,1,0],[0.5,1,0],[0.75,1,0],[1,1,0],[0,0.25,0],[0,0.5,0],[0,0.75,0],[1,0.25,0],[1,0.5,0],[1,0.75,0]];outlineConnect=0;fontColor=#232F3E;gradientColor=#F78E04;gradientDirection=north;fillColor=#D05C17;strokeColor=#ffffff;dashed=0;verticalLabelPosition=bottom;verticalAlign=top;align=center;html=1;fontSize=12;fontStyle=0;aspect=fixed;shape=mxgraph.aws4.resourceIcon;resIcon=mxgraph.aws4.genomics_cli;fontFamily=Comic Sans MS;" parent="pwxfyV8NG3vbBgJ1mFDp-43" vertex="1">
                    <mxGeometry x="19" y="264.2857142857143" width="42.285714285714285" height="42.285714285714285" as="geometry"/>
                </mxCell>
                <mxCell id="pwxfyV8NG3vbBgJ1mFDp-5" value="Legacy Monolith" style="text;html=1;strokeColor=none;fillColor=none;align=center;verticalAlign=middle;whiteSpace=wrap;rounded=0;fontFamily=Comic Sans MS;fontSize=24;" parent="82dtt1fWFMic4u1b7Cw8-1" vertex="1">
                    <mxGeometry x="255" width="200" height="30" as="geometry"/>
                </mxCell>
                <mxCell id="82dtt1fWFMic4u1b7Cw8-4" value="" style="edgeStyle=none;html=1;fontColor=#FF230A;" edge="1" parent="82dtt1fWFMic4u1b7Cw8-1" source="pwxfyV8NG3vbBgJ1mFDp-44" target="pwxfyV8NG3vbBgJ1mFDp-33">
                    <mxGeometry relative="1" as="geometry"/>
                </mxCell>
                <mxCell id="82dtt1fWFMic4u1b7Cw8-5" value="" style="endArrow=none;html=1;fontColor=#FF230A;shadow=0;fillColor=#3333FF;strokeColor=#3333FF;" edge="1" parent="1">
                    <mxGeometry width="50" height="50" relative="1" as="geometry">
                        <mxPoint x="640" y="-510" as="sourcePoint"/>
                        <mxPoint x="640" y="-900" as="targetPoint"/>
                    </mxGeometry>
                </mxCell>
                <mxCell id="0gBn-n4TOAm3gDtEJDbB-1" value="" style="group" vertex="1" connectable="0" parent="1">
                    <mxGeometry x="660" y="-910" width="710" height="390" as="geometry"/>
                </mxCell>
                <mxCell id="0gBn-n4TOAm3gDtEJDbB-2" value="" style="group" vertex="1" connectable="0" parent="0gBn-n4TOAm3gDtEJDbB-1">
                    <mxGeometry x="150" width="420" height="390" as="geometry"/>
                </mxCell>
                <mxCell id="0gBn-n4TOAm3gDtEJDbB-3" value="" style="rounded=1;whiteSpace=wrap;html=1;fillColor=#EEE2E2;" vertex="1" parent="0gBn-n4TOAm3gDtEJDbB-2">
                    <mxGeometry y="10" width="420" height="380" as="geometry"/>
                </mxCell>
                <mxCell id="0gBn-n4TOAm3gDtEJDbB-4" value="" style="group" vertex="1" connectable="0" parent="0gBn-n4TOAm3gDtEJDbB-2">
                    <mxGeometry x="20" y="44.31818181818181" width="380" height="70.9090909090909" as="geometry"/>
                </mxCell>
                <mxCell id="0gBn-n4TOAm3gDtEJDbB-5" value="" style="group;fillColor=#FFCCCC;container=0;" vertex="1" connectable="0" parent="0gBn-n4TOAm3gDtEJDbB-4">
                    <mxGeometry width="380" height="70.9090909090909" as="geometry"/>
                </mxCell>
                <mxCell id="0gBn-n4TOAm3gDtEJDbB-6" value="&lt;font face=&quot;Comic Sans MS&quot;&gt;Service Orchestration&lt;/font&gt;" style="rounded=1;whiteSpace=wrap;html=1;strokeColor=#0066CC;fillColor=#4DB2FF;" vertex="1" parent="0gBn-n4TOAm3gDtEJDbB-4">
                    <mxGeometry x="10" y="13.295454545454545" width="90" height="44.31818181818181" as="geometry"/>
                </mxCell>
                <mxCell id="0gBn-n4TOAm3gDtEJDbB-7" value="&lt;font face=&quot;Comic Sans MS&quot;&gt;Service Mesh&lt;/font&gt;" style="rounded=1;whiteSpace=wrap;html=1;fillColor=#FFFFFF;" vertex="1" parent="0gBn-n4TOAm3gDtEJDbB-4">
                    <mxGeometry x="110" y="26.59090909090909" width="80" height="17.727272727272727" as="geometry"/>
                </mxCell>
                <mxCell id="0gBn-n4TOAm3gDtEJDbB-8" value="&lt;font face=&quot;Comic Sans MS&quot;&gt;Monitoring &amp;amp;&amp;amp; Scaling&lt;/font&gt;" style="rounded=1;whiteSpace=wrap;html=1;" vertex="1" parent="0gBn-n4TOAm3gDtEJDbB-4">
                    <mxGeometry x="220" y="26.59090909090909" width="130" height="17.727272727272727" as="geometry"/>
                </mxCell>
                <mxCell id="0gBn-n4TOAm3gDtEJDbB-9" value="" style="group" vertex="1" connectable="0" parent="0gBn-n4TOAm3gDtEJDbB-2">
                    <mxGeometry x="20" y="141.8181818181818" width="380" height="70.9090909090909" as="geometry"/>
                </mxCell>
                <mxCell id="0gBn-n4TOAm3gDtEJDbB-10" value="" style="group;fillColor=#CCFFFF;container=0;" vertex="1" connectable="0" parent="0gBn-n4TOAm3gDtEJDbB-9">
                    <mxGeometry width="380" height="70.9090909090909" as="geometry"/>
                </mxCell>
                <mxCell id="0gBn-n4TOAm3gDtEJDbB-11" value="&lt;font face=&quot;Comic Sans MS&quot;&gt;Business&amp;nbsp;&lt;br&gt;Services&lt;br&gt;&lt;/font&gt;" style="rounded=1;whiteSpace=wrap;html=1;strokeColor=#0066CC;fillColor=#4DB2FF;" vertex="1" parent="0gBn-n4TOAm3gDtEJDbB-9">
                    <mxGeometry x="10" y="13.295454545454545" width="90" height="44.31818181818181" as="geometry"/>
                </mxCell>
                <mxCell id="0gBn-n4TOAm3gDtEJDbB-12" value="&lt;font face=&quot;Comic Sans MS&quot;&gt;Domain Specific Service1&lt;/font&gt;" style="rounded=1;whiteSpace=wrap;html=1;fillColor=#FFFFFF;" vertex="1" parent="0gBn-n4TOAm3gDtEJDbB-9">
                    <mxGeometry x="110" y="8.863636363636363" width="150" height="26.59090909090909" as="geometry"/>
                </mxCell>
                <mxCell id="0gBn-n4TOAm3gDtEJDbB-13" value="&lt;font face=&quot;Comic Sans MS&quot;&gt;Domain Specific Service2&lt;/font&gt;" style="rounded=1;whiteSpace=wrap;html=1;fillColor=#FFFFFF;" vertex="1" parent="0gBn-n4TOAm3gDtEJDbB-9">
                    <mxGeometry x="140" y="31.02272727272727" width="150" height="26.59090909090909" as="geometry"/>
                </mxCell>
                <mxCell id="0gBn-n4TOAm3gDtEJDbB-14" value="......" style="text;html=1;strokeColor=none;fillColor=none;align=center;verticalAlign=middle;whiteSpace=wrap;rounded=0;fontFamily=Comic Sans MS;" vertex="1" parent="0gBn-n4TOAm3gDtEJDbB-9">
                    <mxGeometry x="280" y="44.31818181818181" width="60" height="26.59090909090909" as="geometry"/>
                </mxCell>
                <mxCell id="0gBn-n4TOAm3gDtEJDbB-15" value="Refactored,&lt;br&gt;Replatformed" style="text;html=1;strokeColor=none;fillColor=none;align=center;verticalAlign=middle;whiteSpace=wrap;rounded=0;fontFamily=Comic Sans MS;fontSize=12;" vertex="1" parent="0gBn-n4TOAm3gDtEJDbB-9">
                    <mxGeometry x="320" y="7.532318181818142" width="60" height="29.250000000000004" as="geometry"/>
                </mxCell>
                <mxCell id="0gBn-n4TOAm3gDtEJDbB-16" value="" style="group" vertex="1" connectable="0" parent="0gBn-n4TOAm3gDtEJDbB-2">
                    <mxGeometry x="20" y="248.18181818181816" width="380" height="115.22727272727272" as="geometry"/>
                </mxCell>
                <mxCell id="0gBn-n4TOAm3gDtEJDbB-17" value="" style="group;fillColor=#CCFFFF;container=0;" vertex="1" connectable="0" parent="0gBn-n4TOAm3gDtEJDbB-16">
                    <mxGeometry width="380" height="115.22727272727272" as="geometry"/>
                </mxCell>
                <mxCell id="0gBn-n4TOAm3gDtEJDbB-18" value="&lt;font face=&quot;Comic Sans MS&quot;&gt;Common Services&lt;/font&gt;" style="rounded=1;whiteSpace=wrap;html=1;strokeColor=#0066CC;fillColor=#4DB2FF;" vertex="1" parent="0gBn-n4TOAm3gDtEJDbB-16">
                    <mxGeometry x="10" y="35.45454545454545" width="90" height="44.31818181818181" as="geometry"/>
                </mxCell>
                <mxCell id="0gBn-n4TOAm3gDtEJDbB-19" value="&lt;font face=&quot;Comic Sans MS&quot;&gt;SEARCH&lt;/font&gt;" style="rounded=1;whiteSpace=wrap;html=1;fillColor=#FFFFFF;" vertex="1" parent="0gBn-n4TOAm3gDtEJDbB-16">
                    <mxGeometry x="110" y="8.863636363636363" width="70" height="17.727272727272727" as="geometry"/>
                </mxCell>
                <mxCell id="0gBn-n4TOAm3gDtEJDbB-20" value="&lt;font face=&quot;Comic Sans MS&quot;&gt;Security/RBAC&lt;/font&gt;" style="rounded=1;whiteSpace=wrap;html=1;" vertex="1" parent="0gBn-n4TOAm3gDtEJDbB-16">
                    <mxGeometry x="190" y="8.863636363636363" width="100" height="17.727272727272727" as="geometry"/>
                </mxCell>
                <mxCell id="0gBn-n4TOAm3gDtEJDbB-21" value="&lt;font face=&quot;Comic Sans MS&quot;&gt;CMS&lt;/font&gt;" style="rounded=1;whiteSpace=wrap;html=1;fillColor=#FFFFFF;" vertex="1" parent="0gBn-n4TOAm3gDtEJDbB-16">
                    <mxGeometry x="300" y="8.863636363636363" width="50" height="17.727272727272727" as="geometry"/>
                </mxCell>
                <mxCell id="0gBn-n4TOAm3gDtEJDbB-22" value="&lt;font face=&quot;Comic Sans MS&quot;&gt;DMS&lt;/font&gt;" style="rounded=1;whiteSpace=wrap;html=1;fillColor=#FFFFFF;" vertex="1" parent="0gBn-n4TOAm3gDtEJDbB-16">
                    <mxGeometry x="110" y="35.45454545454545" width="50" height="17.727272727272727" as="geometry"/>
                </mxCell>
                <mxCell id="0gBn-n4TOAm3gDtEJDbB-23" value="&lt;font face=&quot;Comic Sans MS&quot;&gt;Workflows&lt;/font&gt;" style="rounded=1;whiteSpace=wrap;html=1;fillColor=#FFFFFF;" vertex="1" parent="0gBn-n4TOAm3gDtEJDbB-16">
                    <mxGeometry x="170" y="35.45454545454545" width="70" height="17.727272727272727" as="geometry"/>
                </mxCell>
                <mxCell id="0gBn-n4TOAm3gDtEJDbB-24" value="&lt;font face=&quot;Comic Sans MS&quot;&gt;Policy Engine&lt;/font&gt;" style="rounded=1;whiteSpace=wrap;html=1;fillColor=#FFFFFF;" vertex="1" parent="0gBn-n4TOAm3gDtEJDbB-16">
                    <mxGeometry x="250" y="35.45454545454545" width="80" height="17.727272727272727" as="geometry"/>
                </mxCell>
                <mxCell id="0gBn-n4TOAm3gDtEJDbB-25" value="&lt;font face=&quot;Comic Sans MS&quot;&gt;ESB&lt;/font&gt;" style="rounded=1;whiteSpace=wrap;html=1;fillColor=#FFFFFF;" vertex="1" parent="0gBn-n4TOAm3gDtEJDbB-16">
                    <mxGeometry x="110" y="62.04545454545454" width="80" height="17.727272727272727" as="geometry"/>
                </mxCell>
                <mxCell id="0gBn-n4TOAm3gDtEJDbB-26" value="&lt;font face=&quot;Comic Sans MS&quot;&gt;Catalogue&lt;/font&gt;" style="rounded=1;whiteSpace=wrap;html=1;fillColor=#FFFFFF;" vertex="1" parent="0gBn-n4TOAm3gDtEJDbB-16">
                    <mxGeometry x="212.5" y="62.04545454545454" width="55" height="17.727272727272727" as="geometry"/>
                </mxCell>
                <mxCell id="0gBn-n4TOAm3gDtEJDbB-27" value="&lt;font face=&quot;Comic Sans MS&quot;&gt;Change Central&lt;/font&gt;" style="rounded=1;whiteSpace=wrap;html=1;fillColor=#FFFFFF;" vertex="1" parent="0gBn-n4TOAm3gDtEJDbB-16">
                    <mxGeometry x="280" y="62.04545454545454" width="90" height="17.727272727272727" as="geometry"/>
                </mxCell>
                <mxCell id="0gBn-n4TOAm3gDtEJDbB-28" value="&lt;font face=&quot;Comic Sans MS&quot;&gt;Dataflow&lt;/font&gt;" style="rounded=1;whiteSpace=wrap;html=1;fillColor=#FFFFFF;" vertex="1" parent="0gBn-n4TOAm3gDtEJDbB-16">
                    <mxGeometry x="110" y="88.63636363636363" width="90" height="17.727272727272727" as="geometry"/>
                </mxCell>
                <mxCell id="0gBn-n4TOAm3gDtEJDbB-29" value="&lt;font face=&quot;Comic Sans MS&quot;&gt;Lake&lt;/font&gt;" style="rounded=1;whiteSpace=wrap;html=1;fillColor=#FFFFFF;" vertex="1" parent="0gBn-n4TOAm3gDtEJDbB-16">
                    <mxGeometry x="210" y="88.63636363636363" width="90" height="17.727272727272727" as="geometry"/>
                </mxCell>
                <mxCell id="0gBn-n4TOAm3gDtEJDbB-30" value="......" style="text;html=1;strokeColor=none;fillColor=none;align=center;verticalAlign=middle;whiteSpace=wrap;rounded=0;fontFamily=Comic Sans MS;" vertex="1" parent="0gBn-n4TOAm3gDtEJDbB-16">
                    <mxGeometry x="310" y="84.20454545454545" width="60" height="26.59090909090909" as="geometry"/>
                </mxCell>
                <mxCell id="0gBn-n4TOAm3gDtEJDbB-31" value="&lt;b&gt;Reduced Dependencies&lt;/b&gt;" style="text;html=1;strokeColor=none;fillColor=none;align=center;verticalAlign=middle;whiteSpace=wrap;rounded=0;fontFamily=Comic Sans MS;fontSize=12;" vertex="1" parent="0gBn-n4TOAm3gDtEJDbB-16">
                    <mxGeometry x="8" y="-4.436249999999997" width="90" height="29.25" as="geometry"/>
                </mxCell>
                <mxCell id="0gBn-n4TOAm3gDtEJDbB-33" style="edgeStyle=none;html=1;fontFamily=Comic Sans MS;fontSize=24;" edge="1" parent="0gBn-n4TOAm3gDtEJDbB-1" source="0gBn-n4TOAm3gDtEJDbB-3">
                    <mxGeometry relative="1" as="geometry">
                        <mxPoint x="590" y="170" as="targetPoint"/>
                    </mxGeometry>
                </mxCell>
                <mxCell id="0gBn-n4TOAm3gDtEJDbB-34" style="edgeStyle=none;html=1;entryX=0;entryY=0.5;entryDx=0;entryDy=0;fontFamily=Comic Sans MS;fontSize=24;" edge="1" parent="0gBn-n4TOAm3gDtEJDbB-1" source="0gBn-n4TOAm3gDtEJDbB-36" target="0gBn-n4TOAm3gDtEJDbB-11">
                    <mxGeometry relative="1" as="geometry"/>
                </mxCell>
                <mxCell id="0gBn-n4TOAm3gDtEJDbB-35" style="edgeStyle=none;html=1;entryX=0;entryY=0.5;entryDx=0;entryDy=0;fontFamily=Comic Sans MS;fontSize=24;" edge="1" parent="0gBn-n4TOAm3gDtEJDbB-1" source="0gBn-n4TOAm3gDtEJDbB-36" target="0gBn-n4TOAm3gDtEJDbB-18">
                    <mxGeometry relative="1" as="geometry">
                        <mxPoint x="140" y="190" as="sourcePoint"/>
                    </mxGeometry>
                </mxCell>
                <mxCell id="0gBn-n4TOAm3gDtEJDbB-36" value="API Gateway" style="sketch=0;outlineConnect=0;fontColor=#232F3E;gradientColor=none;fillColor=#B0084D;strokeColor=none;dashed=0;verticalLabelPosition=bottom;verticalAlign=top;align=center;html=1;fontSize=12;fontStyle=0;aspect=fixed;pointerEvents=1;shape=mxgraph.aws4.endpoint;fontFamily=Comic Sans MS;" vertex="1" parent="0gBn-n4TOAm3gDtEJDbB-1">
                    <mxGeometry x="120" y="182.5" width="25" height="25" as="geometry"/>
                </mxCell>
                <mxCell id="0gBn-n4TOAm3gDtEJDbB-37" value="" style="group" vertex="1" connectable="0" parent="0gBn-n4TOAm3gDtEJDbB-1">
                    <mxGeometry x="590" y="15.75" width="120" height="358.5" as="geometry"/>
                </mxCell>
                <mxCell id="0gBn-n4TOAm3gDtEJDbB-38" value="" style="rounded=1;whiteSpace=wrap;html=1;fillColor=#EEE2E2;" vertex="1" parent="0gBn-n4TOAm3gDtEJDbB-37">
                    <mxGeometry width="120" height="358.5" as="geometry"/>
                </mxCell>
                <mxCell id="0gBn-n4TOAm3gDtEJDbB-39" value="&lt;font style=&quot;font-size: 14px;&quot;&gt;&lt;b&gt;Data Services&lt;/b&gt;&lt;/font&gt;" style="text;html=1;strokeColor=none;fillColor=none;align=center;verticalAlign=middle;whiteSpace=wrap;rounded=0;fontFamily=Comic Sans MS;fontSize=8;" vertex="1" parent="0gBn-n4TOAm3gDtEJDbB-37">
                    <mxGeometry x="9" y="12.221590909090908" width="100" height="24.443181818181817" as="geometry"/>
                </mxCell>
                <mxCell id="0gBn-n4TOAm3gDtEJDbB-40" value="&lt;font style=&quot;&quot;&gt;&lt;b style=&quot;&quot;&gt;&lt;font style=&quot;font-size: 10px;&quot;&gt;Search&lt;/font&gt;&lt;/b&gt;&lt;br&gt;&lt;/font&gt;" style="shape=datastore;whiteSpace=wrap;html=1;strokeColor=#0066CC;fontFamily=Comic Sans MS;fontSize=14;fillColor=#FFCCE6;" vertex="1" parent="0gBn-n4TOAm3gDtEJDbB-37">
                    <mxGeometry x="29" y="40.73863636363636" width="60" height="48.88636363636363" as="geometry"/>
                </mxCell>
                <mxCell id="0gBn-n4TOAm3gDtEJDbB-41" value="&lt;font style=&quot;&quot;&gt;&lt;font style=&quot;font-size: 10px;&quot;&gt;&lt;b&gt;Relational&lt;/b&gt;&lt;/font&gt;&lt;br&gt;&lt;/font&gt;" style="shape=datastore;whiteSpace=wrap;html=1;strokeColor=#0066CC;fontFamily=Comic Sans MS;fontSize=14;fillColor=#FFCCE6;" vertex="1" parent="0gBn-n4TOAm3gDtEJDbB-37">
                    <mxGeometry x="30" y="114.06818181818181" width="60" height="48.88636363636363" as="geometry"/>
                </mxCell>
                <mxCell id="0gBn-n4TOAm3gDtEJDbB-42" value="&lt;font style=&quot;&quot;&gt;&lt;font style=&quot;font-size: 10px;&quot;&gt;&lt;b&gt;Cache&lt;/b&gt;&lt;/font&gt;&lt;br&gt;&lt;/font&gt;" style="shape=datastore;whiteSpace=wrap;html=1;strokeColor=#0066CC;fontFamily=Comic Sans MS;fontSize=14;fillColor=#FFCCE6;" vertex="1" parent="0gBn-n4TOAm3gDtEJDbB-37">
                    <mxGeometry x="30" y="195.54545454545453" width="60" height="48.88636363636363" as="geometry"/>
                </mxCell>
                <mxCell id="0gBn-n4TOAm3gDtEJDbB-43" value="&lt;font style=&quot;&quot;&gt;&lt;font style=&quot;font-size: 10px;&quot;&gt;&lt;b&gt;Graph&lt;/b&gt;&lt;/font&gt;&lt;br&gt;&lt;/font&gt;" style="shape=datastore;whiteSpace=wrap;html=1;strokeColor=#0066CC;fontFamily=Comic Sans MS;fontSize=14;fillColor=#FFCCE6;" vertex="1" parent="0gBn-n4TOAm3gDtEJDbB-37">
                    <mxGeometry x="30" y="264.8011363636364" width="60" height="48.88636363636363" as="geometry"/>
                </mxCell>
                <mxCell id="0gBn-n4TOAm3gDtEJDbB-44" value="&lt;font style=&quot;font-size: 24px;&quot;&gt;.....&lt;/font&gt;" style="text;html=1;strokeColor=none;fillColor=none;align=center;verticalAlign=middle;whiteSpace=wrap;rounded=0;fontFamily=Comic Sans MS;fontSize=6;" vertex="1" parent="0gBn-n4TOAm3gDtEJDbB-37">
                    <mxGeometry x="49" y="321.83522727272725" width="60" height="24.443181818181817" as="geometry"/>
                </mxCell>
                <mxCell id="0gBn-n4TOAm3gDtEJDbB-45" value="" style="group" vertex="1" connectable="0" parent="0gBn-n4TOAm3gDtEJDbB-1">
                    <mxGeometry x="20" width="80" height="390" as="geometry"/>
                </mxCell>
                <mxCell id="0gBn-n4TOAm3gDtEJDbB-46" value="" style="rounded=1;whiteSpace=wrap;html=1;fillColor=#EEE2E2;" vertex="1" parent="0gBn-n4TOAm3gDtEJDbB-45">
                    <mxGeometry y="10" width="80" height="380" as="geometry"/>
                </mxCell>
                <mxCell id="0gBn-n4TOAm3gDtEJDbB-47" value="Mobile client" style="sketch=0;outlineConnect=0;fontColor=#232F3E;gradientColor=none;strokeColor=#232F3E;fillColor=#EEE2E2;dashed=0;verticalLabelPosition=bottom;verticalAlign=top;align=center;html=1;fontSize=12;fontStyle=0;aspect=fixed;shape=mxgraph.aws4.resourceIcon;resIcon=mxgraph.aws4.mobile_client;fontFamily=Comic Sans MS;" vertex="1" parent="0gBn-n4TOAm3gDtEJDbB-45">
                    <mxGeometry x="12.79" y="30" width="54.418604651162795" height="54.418604651162795" as="geometry"/>
                </mxCell>
                <mxCell id="0gBn-n4TOAm3gDtEJDbB-48" value="Applications" style="sketch=0;points=[[0,0,0],[0.25,0,0],[0.5,0,0],[0.75,0,0],[1,0,0],[0,1,0],[0.25,1,0],[0.5,1,0],[0.75,1,0],[1,1,0],[0,0.25,0],[0,0.5,0],[0,0.75,0],[1,0.25,0],[1,0.5,0],[1,0.75,0]];outlineConnect=0;fontColor=#232F3E;gradientColor=#F54749;gradientDirection=north;fillColor=#FFCCFF;strokeColor=#ffffff;dashed=0;verticalLabelPosition=bottom;verticalAlign=top;align=center;html=1;fontSize=12;fontStyle=0;aspect=fixed;shape=mxgraph.aws4.resourceIcon;resIcon=mxgraph.aws4.amplify;fontFamily=Comic Sans MS;" vertex="1" parent="0gBn-n4TOAm3gDtEJDbB-45">
                    <mxGeometry x="19.150000000000002" y="119.99767441860465" width="45.348837209302324" height="45.348837209302324" as="geometry"/>
                </mxCell>
                <mxCell id="0gBn-n4TOAm3gDtEJDbB-49" value="Dashboards&lt;br&gt;" style="sketch=0;points=[[0,0,0],[0.25,0,0],[0.5,0,0],[0.75,0,0],[1,0,0],[0,1,0],[0.25,1,0],[0.5,1,0],[0.75,1,0],[1,1,0],[0,0.25,0],[0,0.5,0],[0,0.75,0],[1,0.25,0],[1,0.5,0],[1,0.75,0]];points=[[0,0,0],[0.25,0,0],[0.5,0,0],[0.75,0,0],[1,0,0],[0,1,0],[0.25,1,0],[0.5,1,0],[0.75,1,0],[1,1,0],[0,0.25,0],[0,0.5,0],[0,0.75,0],[1,0.25,0],[1,0.5,0],[1,0.75,0]];outlineConnect=0;fontColor=#232F3E;gradientColor=#F34482;gradientDirection=north;fillColor=#FFCCFF;strokeColor=#ffffff;dashed=0;verticalLabelPosition=bottom;verticalAlign=top;align=center;html=1;fontSize=12;fontStyle=0;aspect=fixed;shape=mxgraph.aws4.resourceIcon;resIcon=mxgraph.aws4.personal_health_dashboard;fontFamily=Comic Sans MS;" vertex="1" parent="0gBn-n4TOAm3gDtEJDbB-45">
                    <mxGeometry x="21.87" y="220.00162790697675" width="39.906976744186046" height="39.906976744186046" as="geometry"/>
                </mxCell>
                <mxCell id="0gBn-n4TOAm3gDtEJDbB-51" value="CLI" style="sketch=0;points=[[0,0,0],[0.25,0,0],[0.5,0,0],[0.75,0,0],[1,0,0],[0,1,0],[0.25,1,0],[0.5,1,0],[0.75,1,0],[1,1,0],[0,0.25,0],[0,0.5,0],[0,0.75,0],[1,0.25,0],[1,0.5,0],[1,0.75,0]];outlineConnect=0;fontColor=#232F3E;gradientColor=#F78E04;gradientDirection=north;fillColor=#D05C17;strokeColor=#ffffff;dashed=0;verticalLabelPosition=bottom;verticalAlign=top;align=center;html=1;fontSize=12;fontStyle=0;aspect=fixed;shape=mxgraph.aws4.resourceIcon;resIcon=mxgraph.aws4.genomics_cli;fontFamily=Comic Sans MS;" vertex="1" parent="0gBn-n4TOAm3gDtEJDbB-45">
                    <mxGeometry x="18.240000000000002" y="310.00162790697675" width="43.53488372093023" height="43.53488372093023" as="geometry"/>
                </mxCell>
                <mxCell id="0gBn-n4TOAm3gDtEJDbB-52" value="" style="edgeStyle=none;html=1;fontFamily=Comic Sans MS;fontSize=12;" edge="1" parent="0gBn-n4TOAm3gDtEJDbB-1" source="0gBn-n4TOAm3gDtEJDbB-46" target="0gBn-n4TOAm3gDtEJDbB-36">
                    <mxGeometry relative="1" as="geometry"/>
                </mxCell>
                <mxCell id="0gBn-n4TOAm3gDtEJDbB-32" value="&lt;font style=&quot;font-size: 24px;&quot;&gt;Cloud Native/ Microservice&lt;/font&gt;" style="text;html=1;strokeColor=none;fillColor=none;align=center;verticalAlign=middle;whiteSpace=wrap;rounded=0;fontFamily=Comic Sans MS;fontSize=12;" vertex="1" parent="1">
                    <mxGeometry x="890" y="-939.25" width="310" height="29.25" as="geometry"/>
                </mxCell>
                <mxCell id="0gBn-n4TOAm3gDtEJDbB-54" value="" style="endArrow=classic;html=1;shadow=0;strokeColor=#3333FF;fontSize=24;fontColor=#FF230A;fillColor=#3333FF;exitX=1;exitY=0.75;exitDx=0;exitDy=0;" edge="1" parent="1" source="pwxfyV8NG3vbBgJ1mFDp-5">
                    <mxGeometry width="50" height="50" relative="1" as="geometry">
                        <mxPoint x="620" y="-860" as="sourcePoint"/>
                        <mxPoint x="870" y="-930" as="targetPoint"/>
                    </mxGeometry>
                </mxCell>
                <mxCell id="0gBn-n4TOAm3gDtEJDbB-55" value="" style="endArrow=none;html=1;fontColor=#FF230A;shadow=0;fillColor=#3333FF;strokeColor=#3333FF;" edge="1" parent="1">
                    <mxGeometry width="50" height="50" relative="1" as="geometry">
                        <mxPoint x="1410" y="-520" as="sourcePoint"/>
                        <mxPoint x="1410" y="-910" as="targetPoint"/>
                    </mxGeometry>
                </mxCell>
            </root>
        </mxGraphModel>
    </diagram>
</mxfile>